<?xml version="1.0" encoding="UTF-8" standalone="no"?>
<svg width="153px" height="98px" viewBox="0 0 153 98" version="1.1" xmlns="http://www.w3.org/2000/svg" xmlns:xlink="http://www.w3.org/1999/xlink" xmlns:sketch="http://www.bohemiancoding.com/sketch/ns">
    <!-- Generator: Sketch 3.2.2 (9983) - http://www.bohemiancoding.com/sketch -->
    <title>Slice 1</title>
    <desc>Created with Sketch.</desc>
    <defs></defs>
    <g id="Page-1" stroke="none" stroke-width="1" fill="none" fill-rule="evenodd" sketch:type="MSPage">
        <g id="logo_ru" sketch:type="MSLayerGroup">
            <g id="Group" sketch:type="MSShapeGroup">
                <g transform="translate(14.000000, 69.000000)" id="Shape" fill="#4D4D4F">
                    <path d="M11.0380859,1.6166611 L17.0771484,16.4477158 L14.0263671,16.4477158 L12.6279296,12.845665 L4.5771483,12.845665 L3.1787108,16.4477158 L0.1279295,16.4477158 L6.1650389,1.6166611 L11.0380859,1.6166611 L11.0380859,1.6166611 Z M5.3173828,11.2567978 L11.8857422,11.2567978 L8.7080078,3.4174423 L8.4970703,3.4174423 L5.3173828,11.2567978 L5.3173828,11.2567978 Z"></path>
                    <path d="M21.8447266,3.2055283 L21.8447266,16.4477158 L18.772461,16.4477158 L18.772461,1.6166611 L31.0595704,1.6166611 L31.0595704,3.2055283 L21.8447266,3.2055283 L21.8447266,3.2055283 Z"></path>
                    <path d="M40.3818359,1.6166611 C41.4423828,1.6166611 42.3916015,1.7333603 43.2314453,1.9662705 C44.0732422,2.1991807 44.7822266,2.5380478 45.3623047,2.9833603 C45.9404297,3.4281845 46.3857422,3.9721298 46.6962891,4.614708 C47.006836,5.2577744 47.163086,5.9887314 47.163086,6.8075791 C47.163086,7.626915 47.006836,8.3578721 46.6962891,9.0004502 C46.3857422,9.6435166 45.9404297,10.1869736 45.3623047,10.6317979 C44.7822266,11.0766221 44.0732422,11.4159776 43.2314453,11.6488877 C42.3916015,11.8817979 41.4423828,11.9984971 40.3818359,11.9984971 L35.8271484,11.9984971 L35.8271484,16.4477159 L32.7548828,16.4477159 L32.7548828,1.6166611 L40.3818359,1.6166611 L40.3818359,1.6166611 Z M35.8271484,3.2055283 L35.8271484,10.4091416 L40.3818359,10.4091416 C41.4990234,10.4091416 42.3642578,10.1161728 42.977539,9.5302353 C43.5927734,8.9442978 43.899414,8.036583 43.899414,6.807579 C43.899414,5.578575 43.5927734,4.6713485 42.977539,4.0849227 C42.3642577,3.4989852 41.4990234,3.2055282 40.3818359,3.2055282 L35.8271484,3.2055282 L35.8271484,3.2055283 Z"></path>
                    <path d="M57.5439453,1.1928329 C58.8154297,1.1928329 59.9697266,1.3622665 61.0087891,1.701622 C62.0458985,2.0404892 62.9365235,2.541954 63.678711,3.2055283 C64.4189454,3.8695908 64.9951173,4.6889267 65.4052735,5.6635361 C65.8154297,6.6381455 66.0185548,7.7607041 66.0185548,9.0321884 C66.0185548,10.3031845 65.8154298,11.4262314 65.4052735,12.4008407 C64.9951172,13.37545 64.4189454,14.194786 63.678711,14.8588485 C62.9365235,15.522911 62.0458985,16.0238876 61.0087891,16.3627548 C59.9697266,16.7021103 58.8154297,16.8715439 57.5439453,16.8715439 C56.2724609,16.8715439 55.1142578,16.7021103 54.0693359,16.3627548 C53.024414,16.0238876 52.1318359,15.522911 51.3896484,14.8588485 C50.6474609,14.194786 50.0751953,13.3754501 49.6728515,12.4008407 C49.2705077,11.4262313 49.0693359,10.3031844 49.0693359,9.0321884 C49.0693359,7.760704 49.2705078,6.6381454 49.6728515,5.6635361 C50.0751952,4.6889268 50.6474609,3.8695908 51.3896484,3.2055283 C52.1318359,2.5419541 53.024414,2.0404892 54.0693359,1.701622 C55.1142578,1.3622665 56.2724609,1.1928329 57.5439453,1.1928329 L57.5439453,1.1928329 Z M57.5439453,2.6762314 C56.8232422,2.6762314 56.149414,2.8031845 55.5205078,3.0575791 C54.8916015,3.3114854 54.3447265,3.7001572 53.8798828,4.2226182 C53.4130859,4.7455674 53.0419922,5.4057237 52.7666015,6.2035752 C52.4912109,7.001915 52.3544921,7.9447861 52.3544921,9.0321885 C52.3544921,10.1200791 52.4912109,11.0629502 52.7666015,11.8608018 C53.0419921,12.6586534 53.4130859,13.3192979 53.8798828,13.8417588 C54.3447266,14.3642197 54.8916016,14.7528916 55.5205078,15.0067979 C56.1494141,15.2611924 56.8232422,15.3881456 57.5439453,15.3881456 C58.2646484,15.3881456 58.9384766,15.2611925 59.5673828,15.0067979 C60.1962891,14.7528916 60.7431641,14.3642198 61.2099609,13.8417588 C61.6767577,13.3192978 62.0458984,12.6586533 62.321289,11.8608018 C62.5986328,11.0629502 62.7353515,10.1200791 62.7353515,9.0321885 C62.7353515,7.9447862 62.5986327,7.0019151 62.321289,6.2035752 C62.0458984,5.4057236 61.6767577,4.7455674 61.2099609,4.2226182 C60.743164,3.7001573 60.196289,3.3114854 59.5673828,3.0575791 C58.9384766,2.8031845 58.2646484,2.6762314 57.5439453,2.6762314 L57.5439453,2.6762314 Z"></path>
                    <path d="M79.1552734,17.295372 L76.0830078,17.295372 L76.0830078,15.6000595 L75.4482422,15.6000595 C74.3037109,15.6000595 73.2685547,15.4555282 72.3427734,15.1659775 C71.4189453,14.8764267 70.6279296,14.4560166 69.9697265,13.9052353 C69.3134765,13.354454 68.8095702,12.6693955 68.4560546,11.8500595 C68.102539,11.0312118 67.9267577,10.0917587 67.9267577,9.0321884 C67.9267577,7.9726181 68.102539,7.0336532 68.4560546,6.2143173 C68.8095702,5.3954696 69.3134765,4.7099228 69.9697265,4.1591415 C70.6279296,3.6083602 71.4189453,3.1879501 72.3427734,2.8983993 C73.2685547,2.6093368 74.3037109,2.4643173 75.4482422,2.4643173 L76.0830078,2.4643173 L76.0830078,0.7690048 L79.1552734,0.7690048 L79.1552734,2.4643173 L79.790039,2.4643173 C80.9345703,2.4643173 81.9697265,2.6093368 82.8955078,2.8983993 C83.8193359,3.1879501 84.6103516,3.6083602 85.2685547,4.1591415 C85.9248047,4.7099228 86.428711,5.3954696 86.7822266,6.2143173 C87.1357422,7.0336532 87.3115235,7.9726181 87.3115235,9.0321884 C87.3115235,10.0917587 87.1357422,11.0312118 86.7822266,11.8500595 C86.428711,12.6693954 85.9248047,13.354454 85.2685547,13.9052353 C84.6103516,14.4560166 83.8193359,14.8764267 82.8955078,15.1659775 C81.9697265,15.4555283 80.9345703,15.6000595 79.790039,15.6000595 L79.1552734,15.6000595 L79.1552734,17.295372 L79.1552734,17.295372 Z M76.0830078,4.0531845 L75.4482422,4.0531845 C74.8681641,4.0531845 74.3212891,4.1449814 73.8056641,4.3285751 C73.2900391,4.5121688 72.8408203,4.8022079 72.459961,5.1972274 C72.0791016,5.5927352 71.7744141,6.1049422 71.5498047,6.7333602 C71.3232422,7.3622665 71.2099609,8.1283797 71.2099609,9.0321883 C71.2099609,9.9364852 71.3232422,10.7025985 71.5498047,11.3310164 C71.7744141,11.9594344 72.0791016,12.4716414 72.459961,12.8671492 C72.8408204,13.262657 73.2900391,13.5522078 73.8056641,13.7358015 C74.3212891,13.9193952 74.8681641,14.0111921 75.4482422,14.0111921 L76.0830078,14.0111921 L76.0830078,4.0531845 L76.0830078,4.0531845 Z M79.1552734,14.0111923 L79.790039,14.0111923 C80.3701171,14.0111923 80.9169921,13.9193954 81.4326171,13.7358017 C81.9482421,13.552208 82.3974609,13.2626572 82.7783202,12.8671494 C83.1591795,12.4716416 83.4638671,11.9594346 83.6884765,11.3310166 C83.915039,10.7025986 84.0283203,9.9364853 84.0283203,9.0321885 C84.0283203,8.1283799 83.915039,7.3622666 83.6884765,6.7333604 C83.4638671,6.1049424 83.1591796,5.5927354 82.7783202,5.1972276 C82.3974608,4.8022081 81.9482421,4.512169 81.4326171,4.3285753 C80.9169921,4.1449816 80.3701171,4.0531847 79.790039,4.0531847 L79.1552734,4.0531847 L79.1552734,14.0111923 L79.1552734,14.0111923 Z"></path>
                    <path d="M97.6943359,1.1928329 C98.9658203,1.1928329 100.120117,1.3622665 101.157226,1.701622 C102.196289,2.0404892 103.086914,2.541954 103.827148,3.2055283 C104.569336,3.8695908 105.145508,4.6889267 105.553711,5.6635361 C105.963867,6.6381455 106.168945,7.7607041 106.168945,9.0321884 C106.168945,10.3031845 105.963867,11.4262314 105.553711,12.4008407 C105.145508,13.3754501 104.569336,14.194786 103.827148,14.8588485 C103.086914,15.522911 102.196289,16.0238876 101.157226,16.3627548 C100.120117,16.7021103 98.9658202,16.8715439 97.6943359,16.8715439 C96.4228516,16.8715439 95.2646484,16.7021103 94.2197265,16.3627548 C93.1728515,16.0238876 92.2802734,15.522911 91.5380859,14.8588485 C90.7978515,14.194786 90.2255859,13.3754501 89.8232421,12.4008407 C89.4208983,11.4262313 89.2197265,10.3031844 89.2197265,9.0321884 C89.2197265,7.760704 89.4208984,6.6381454 89.8232421,5.6635361 C90.2255858,4.6889268 90.7978515,3.8695908 91.5380859,3.2055283 C92.2802734,2.5419541 93.1728515,2.0404892 94.2197265,1.701622 C95.2646484,1.3622665 96.4228516,1.1928329 97.6943359,1.1928329 L97.6943359,1.1928329 Z M97.6943359,2.6762314 C96.9736328,2.6762314 96.2998046,2.8031845 95.6708984,3.0575791 C95.0419921,3.3114854 94.4951171,3.7001572 94.0283203,4.2226182 C93.5615234,4.7455674 93.1923828,5.4057237 92.9169922,6.2035752 C92.6416016,7.001915 92.5029297,7.9447861 92.5029297,9.0321885 C92.5029297,10.1200791 92.6416016,11.0629502 92.9169922,11.8608018 C93.1923828,12.6586534 93.5615235,13.3192979 94.0283203,13.8417588 C94.4951171,14.3642197 95.0419922,14.7528916 95.6708984,15.0067979 C96.2998047,15.2611924 96.9736328,15.3881456 97.6943359,15.3881456 C98.415039,15.3881456 99.0888672,15.2611925 99.7177734,15.0067979 C100.344726,14.7528916 100.893555,14.3642198 101.358398,13.8417588 C101.825195,13.3192979 102.196289,12.6586533 102.47168,11.8608018 C102.74707,11.0629503 102.885742,10.1200791 102.885742,9.0321885 C102.885742,7.9447862 102.74707,7.0019151 102.47168,6.2035752 C102.196289,5.4057236 101.825195,4.7455674 101.358398,4.2226182 C100.893555,3.7001573 100.344726,3.3114854 99.7177734,3.0575791 C99.0888672,2.8031845 98.4150391,2.6762314 97.6943359,2.6762314 L97.6943359,2.6762314 Z"></path>
                    <path d="M116.338867,1.6166611 C117.397461,1.6166611 118.348633,1.7333603 119.188477,1.9662705 C120.02832,2.1991807 120.737305,2.5380478 121.317383,2.9833603 C121.897461,3.4281845 122.34082,3.9721298 122.65332,4.614708 C122.961914,5.2577744 123.118164,5.9887314 123.118164,6.8075791 C123.118164,7.626915 122.961914,8.3578721 122.65332,9.0004502 C122.34082,9.6435166 121.897461,10.1869736 121.317383,10.6317979 C120.737305,11.0766222 120.02832,11.4159776 119.188477,11.6488877 C118.348633,11.8817978 117.397461,11.9984971 116.338867,11.9984971 L111.78418,11.9984971 L111.78418,16.4477159 L108.711914,16.4477159 L108.711914,1.6166611 L116.338867,1.6166611 L116.338867,1.6166611 Z M111.78418,3.2055283 L111.78418,10.4091416 L116.338867,10.4091416 C117.454102,10.4091416 118.319336,10.1161728 118.93457,9.5302353 C119.547852,8.9442978 119.856445,8.036583 119.856445,6.807579 C119.856445,5.578575 119.547851,4.6713485 118.93457,4.0849227 C118.319336,3.4989852 117.454101,3.2055282 116.338867,3.2055282 L111.78418,3.2055282 L111.78418,3.2055283 Z"></path>
                </g>
                <path d="M84.0303497,0.9999999 L67.8498154,0.9999999 L40.7544174,32.8127594 L40.7544174,59.2941933 L49.2044373,59.2941933 L49.2044373,34.5036087 L71.173851,8.5210457 L80.7201462,8.5210457 L102.677933,34.5036087 L102.677933,59.2941933 L111.125748,59.2941933 L111.125748,32.8127594 L84.0303497,0.9999999 Z" id="Shape" fill="#FEBE10"></path>
                <g transform="translate(0.000000, 91.000000)" id="Shape" fill="#4D4D4F">
                    <path d="M2.8867188,4.6903915 L1.631836,2.0009384 L1.5957031,2.0009384 L1.2011718,5.4076767 L0.1621094,5.4076767 L0.7714844,0.3876572 L1.8828125,0.3876572 L3.3173828,3.5072861 L3.3535156,3.5072861 L4.7871094,0.3876572 L5.8994141,0.3876572 L6.5087891,5.4076767 L5.46875,5.4076767 L5.0742187,2.0009384 L5.0380859,2.0009384 L3.7832031,4.6903915 L2.8867188,4.6903915 L2.8867188,4.6903915 Z"></path>
                    <path d="M7.4765625,0.3876572 L11.4921875,0.3876572 L11.4921875,1.2123642 L8.4804688,1.2123642 L8.4804688,2.5033798 L10.5605469,2.5033798 L10.5605469,3.3280868 L8.4804688,3.3280868 L8.4804688,4.5829696 L11.5644532,4.5829696 L11.5644532,5.4076766 L7.4765625,5.4076766 L7.4765625,0.3876572 L7.4765625,0.3876572 Z"></path>
                    <path d="M13.6142578,1.6781845 C13.7363281,2.1088486 14.0449219,2.4316025 14.6181641,2.4316025 L15.3710938,2.4316025 L15.3710938,0.3876572 L16.375,0.3876572 L16.375,2.4316025 L17.1279297,2.4316025 C17.7021485,2.4316025 18.0107422,2.1088486 18.1328125,1.6781845 L18.4912109,0.3876572 L19.53125,0.3876572 L19.171875,1.6781845 C18.8642578,2.7900009 18.2753906,2.9692001 18.2753906,2.9692001 L18.2753906,3.0053329 L19.9257812,5.4076767 L18.7421874,5.4076767 L17.2714843,3.2563095 L16.375,3.2563095 L16.375,5.4076767 L15.3710937,5.4076767 L15.3710937,3.2563095 L14.4746093,3.2563095 L13.0048827,5.4076767 L11.8212889,5.4076767 L13.470703,3.0053329 L13.470703,2.9692001 C13.470703,2.9692001 12.8828124,2.7900009 12.5742186,1.6781845 L12.2158202,0.3876572 L13.2558593,0.3876572 L13.6142578,1.6781845 L13.6142578,1.6781845 Z"></path>
                    <path d="M24.9375,0.3876572 L24.9375,4.5829697 L25.5830078,4.5829697 L25.5830078,6.4833603 L24.5791015,6.4833603 L24.5791015,5.4076767 L20.993164,5.4076767 L20.993164,6.4833603 L19.9892577,6.4833603 L19.9892577,4.5829697 L20.0605468,4.5829697 C20.4912109,4.5829697 20.8427734,4.2245713 20.9218749,3.5790634 L21.3164062,0.3876571 L24.9375,0.3876571 L24.9375,0.3876572 Z M21.4951172,4.5473251 L21.4951172,4.5829696 L23.9335938,4.5829696 L23.9335938,1.2123641 L22.2480469,1.2123641 L21.9619141,3.5790633 C21.9257813,4.1166611 21.4951172,4.5473251 21.4951172,4.5473251 L21.4951172,4.5473251 Z"></path>
                    <path d="M28.0214844,4.0448837 L27.5976563,4.0448837 L25.8408204,0.3876571 L26.9521485,0.3876571 L28.3154298,3.291954 L28.3867189,3.291954 L29.7490236,0.3876571 L30.8613283,0.3876571 L28.4941408,5.4076766 L27.3828127,5.4076766 L28.0214844,4.0448837 L28.0214844,4.0448837 Z"></path>
                    <path d="M36.1748047,0.3876572 L36.1748047,5.4076767 L35.1708984,5.4076767 L35.1708984,3.3280869 L32.5888671,3.3280869 L32.5888671,5.4076767 L31.5849608,5.4076767 L31.5849608,0.3876572 L32.5888671,0.3876572 L32.5888671,2.5033799 L35.1708984,2.5033799 L35.1708984,0.3876572 L36.1748047,0.3876572 L36.1748047,0.3876572 Z"></path>
                    <path d="M42.234375,5.4076767 L41.1582031,5.4076767 L40.7636718,4.4037704 L38.290039,4.4037704 L37.8955077,5.4076767 L36.8193358,5.4076767 L38.8994139,0.3876572 L40.1542967,0.3876572 L42.234375,5.4076767 L42.234375,5.4076767 Z M38.6484375,3.5429306 L40.4052734,3.5429306 L39.5449218,1.4633408 L39.508789,1.4633408 L38.6484375,3.5429306 L38.6484375,3.5429306 Z"></path>
                    <path d="M45.1738281,0.3876572 C46.5722656,0.3876572 47.3251953,1.1405869 47.3251953,2.1088486 C47.3251953,3.0771103 46.5722656,3.83004 45.1738281,3.83004 L43.8828125,3.83004 L43.8828125,5.4076767 L42.8789062,5.4076767 L42.8789062,0.3876572 L45.1738281,0.3876572 L45.1738281,0.3876572 Z M43.8828125,1.2123642 L43.8828125,3.005333 L45.1738281,3.005333 C45.8554687,3.005333 46.2851562,2.5746689 46.2851562,2.1088486 C46.2851562,1.64254 45.8554687,1.2123642 45.1738281,1.2123642 L43.8828125,1.2123642 L43.8828125,1.2123642 Z"></path>
                    <path d="M50.2509766,0.2441025 C51.8291016,0.2441025 52.9404297,1.3559189 52.9404297,2.8974228 C52.9404297,4.439415 51.8291016,5.5512314 50.2509766,5.5512314 C48.6728516,5.5512314 47.5615235,4.439415 47.5615235,2.8974228 C47.5615234,1.3559189 48.6728516,0.2441025 50.2509766,0.2441025 L50.2509766,0.2441025 Z M50.2509766,1.1049423 C49.3183594,1.1049423 48.6015625,1.8217392 48.6015625,2.8974228 C48.6015625,3.9731064 49.3183594,4.6903916 50.2509766,4.6903916 C51.1835938,4.6903916 51.9003907,3.9731064 51.9003907,2.8974228 C51.9003907,1.8217392 51.1835938,1.1049423 50.2509766,1.1049423 L50.2509766,1.1049423 Z"></path>
                    <path d="M58.0380859,0.3876572 L58.0380859,4.5829697 L58.6835937,4.5829697 L58.6835937,6.4833603 L57.6796874,6.4833603 L57.6796874,5.4076767 L54.09375,5.4076767 L54.09375,6.4833603 L53.0898437,6.4833603 L53.0898437,4.5829697 L53.1611328,4.5829697 C53.5917969,4.5829697 53.9433594,4.2245713 54.0224609,3.5790634 L54.4169922,0.3876571 L58.0380859,0.3876571 L58.0380859,0.3876572 Z M54.5957031,4.5473251 L54.5957031,4.5829696 L57.0341797,4.5829696 L57.0341797,1.2123641 L55.3486328,1.2123641 L55.0625,3.5790634 C55.0263672,4.1166611 54.5957031,4.5473251 54.5957031,4.5473251 L54.5957031,4.5473251 Z"></path>
                    <path d="M63.9052734,0.3876572 L63.9052734,5.4076767 L62.9013671,5.4076767 L62.9013671,3.3280869 L60.3193358,3.3280869 L60.3193358,5.4076767 L59.3154295,5.4076767 L59.3154295,0.3876572 L60.3193358,0.3876572 L60.3193358,2.5033799 L62.9013671,2.5033799 L62.9013671,0.3876572 L63.9052734,0.3876572 L63.9052734,0.3876572 Z"></path>
                    <path d="M69.9648438,5.4076767 L68.8886719,5.4076767 L68.4941406,4.4037704 L66.0205078,4.4037704 L65.6259765,5.4076767 L64.5498046,5.4076767 L66.6298827,0.3876572 L67.8847655,0.3876572 L69.9648438,5.4076767 L69.9648438,5.4076767 Z M66.3789063,3.5429306 L68.1357422,3.5429306 L67.2753906,1.4633408 L67.2392578,1.4633408 L66.3789063,3.5429306 L66.3789063,3.5429306 Z"></path>
                    <path d="M74.8974609,0.3876572 L74.8974609,5.4076767 L73.8935546,5.4076767 L73.8935546,3.6864853 L72.4951171,3.6864853 L71.2763671,5.4076767 L70.1289062,5.4076767 L71.4912109,3.5072861 L71.4912109,3.4711533 C71.4912109,3.4711533 70.4873046,3.1845322 70.4873046,2.0370713 C70.4873046,1.0688096 71.1611327,0.3876572 72.5673827,0.3876572 L74.8974609,0.3876572 L74.8974609,0.3876572 Z M72.5673828,2.8617783 L73.8935547,2.8617783 L73.8935547,1.2123642 L72.5673828,1.2123642 C71.8857422,1.2123642 71.5273437,1.5707626 71.5273437,2.0370712 C71.5273438,2.4316025 71.8857422,2.8617783 72.5673828,2.8617783 L72.5673828,2.8617783 Z"></path>
                    <path d="M83.0371094,5.4076767 L81.9609375,5.4076767 L81.5664062,4.4037704 L79.0927734,4.4037704 L78.6982421,5.4076767 L77.6220702,5.4076767 L79.7021483,0.3876572 L80.9570311,0.3876572 L83.0371094,5.4076767 L83.0371094,5.4076767 Z M79.4511719,3.5429306 L81.2080078,3.5429306 L80.3476562,1.4633408 L80.3115234,1.4633408 L79.4511719,3.5429306 L79.4511719,3.5429306 Z"></path>
                    <path d="M83.6816406,0.3876572 L87.446289,0.3876572 L87.446289,1.2123642 L84.6855468,1.2123642 L84.6855468,5.4076767 L83.6816405,5.4076767 L83.6816405,0.3876572 L83.6816406,0.3876572 Z"></path>
                    <path d="M90.3867188,0.3876572 C91.7851563,0.3876572 92.538086,1.1405869 92.538086,2.1088486 C92.538086,3.0771103 91.7851563,3.83004 90.3867188,3.83004 L89.0957032,3.83004 L89.0957032,5.4076767 L88.0917969,5.4076767 L88.0917969,0.3876572 L90.3867188,0.3876572 L90.3867188,0.3876572 Z M89.0957031,1.2123642 L89.0957031,3.005333 L90.3867187,3.005333 C91.0683593,3.005333 91.4980468,2.5746689 91.4980468,2.1088486 C91.4980468,1.64254 91.0683593,1.2123642 90.3867187,1.2123642 L89.0957031,1.2123642 L89.0957031,1.2123642 Z"></path>
                    <path d="M98.1035156,5.4076767 L97.0273437,5.4076767 L96.6328124,4.4037704 L94.1591796,4.4037704 L93.7646483,5.4076767 L92.6884764,5.4076767 L94.7685545,0.3876572 L96.0234373,0.3876572 L98.1035156,5.4076767 L98.1035156,5.4076767 Z M94.5175781,3.5429306 L96.274414,3.5429306 L95.4140624,1.4633408 L95.3779296,1.4633408 L94.5175781,3.5429306 L94.5175781,3.5429306 Z"></path>
                    <path d="M101.042969,0.3876572 C102.441406,0.3876572 103.194336,1.1405869 103.194336,2.1088486 C103.194336,3.0771103 102.441406,3.83004 101.042969,3.83004 L99.7519532,3.83004 L99.7519532,5.4076767 L98.7480469,5.4076767 L98.7480469,0.3876572 L101.042969,0.3876572 L101.042969,0.3876572 Z M99.7519531,1.2123642 L99.7519531,3.005333 L101.042969,3.005333 C101.724609,3.005333 102.154297,2.5746689 102.154297,2.1088486 C102.154297,1.64254 101.724609,1.2123642 101.042969,1.2123642 L99.7519531,1.2123642 L99.7519531,1.2123642 Z"></path>
                    <path d="M108.59375,0.3876572 L108.59375,5.4076767 L107.589844,5.4076767 L107.589844,3.3280869 L105.007812,3.3280869 L105.007812,5.4076767 L104.003906,5.4076767 L104.003906,0.3876572 L105.007812,0.3876572 L105.007812,2.5033799 L107.589844,2.5033799 L107.589844,0.3876572 L108.59375,0.3876572 L108.59375,0.3876572 Z"></path>
                    <path d="M114.65332,5.4076767 L113.577148,5.4076767 L113.182617,4.4037704 L110.708984,4.4037704 L110.314453,5.4076767 L109.238281,5.4076767 L111.318359,0.3876572 L112.573242,0.3876572 L114.65332,5.4076767 L114.65332,5.4076767 Z M111.067383,3.5429306 L112.824219,3.5429306 L111.963867,1.4633408 L111.927734,1.4633408 L111.067383,3.5429306 L111.067383,3.5429306 Z"></path>
                    <path d="M119.585938,0.3876572 L119.585938,5.4076767 L118.582031,5.4076767 L118.582031,3.6864853 L117.183594,3.6864853 L115.964844,5.4076767 L114.817383,5.4076767 L116.179688,3.5072861 L116.179688,3.4711533 C116.179688,3.4711533 115.175781,3.1845322 115.175781,2.0370713 C115.175781,1.0688096 115.849609,0.3876572 117.255859,0.3876572 L119.585938,0.3876572 L119.585938,0.3876572 Z M117.255859,2.8617783 L118.582031,2.8617783 L118.582031,1.2123642 L117.255859,1.2123642 C116.574219,1.2123642 116.21582,1.5707626 116.21582,2.0370712 C116.21582,2.4316025 116.574219,2.8617783 117.255859,2.8617783 L117.255859,2.8617783 Z"></path>
                    <path d="M125.230469,5.4076767 L122.828125,5.4076767 L122.828125,0.3876572 L126.808594,0.3876572 L126.808594,1.2123642 L123.832031,1.2123642 L123.832031,2.1806259 L125.230469,2.1806259 C126.521484,2.1806259 127.274414,2.9335556 127.274414,3.7939072 C127.274414,4.654747 126.521484,5.4076767 125.230469,5.4076767 L125.230469,5.4076767 Z M125.230469,4.5829697 C125.875977,4.5829697 126.234375,4.2245713 126.234375,3.7939072 C126.234375,3.3637314 125.875977,3.005333 125.230469,3.005333 L123.832031,3.005333 L123.832031,4.5829697 L125.230469,4.5829697 L125.230469,4.5829697 Z"></path>
                    <path d="M128.083984,5.4076767 L128.083984,0.3876572 L129.087891,0.3876572 L129.087891,3.83004 L129.124023,3.83004 L131.633789,0.3876572 L132.637695,0.3876572 L132.637695,5.4076767 L131.633789,5.4076767 L131.633789,1.9652939 L131.597656,1.9652939 L129.087891,5.4076767 L128.083984,5.4076767 L128.083984,5.4076767 Z"></path>
                    <path d="M136.09375,0.3876572 C137.492188,0.3876572 138.245117,1.1405869 138.245117,2.1088486 C138.245117,3.0771103 137.492188,3.83004 136.09375,3.83004 L134.802734,3.83004 L134.802734,5.4076767 L133.798828,5.4076767 L133.798828,0.3876572 L136.09375,0.3876572 L136.09375,0.3876572 Z M134.802734,1.2123642 L134.802734,3.005333 L136.09375,3.005333 C136.775391,3.005333 137.205078,2.5746689 137.205078,2.1088486 C137.205078,1.64254 136.775391,1.2123642 136.09375,1.2123642 L134.802734,1.2123642 L134.802734,1.2123642 Z"></path>
                    <path d="M140.332031,1.6781845 C140.454102,2.1088486 140.762695,2.4316025 141.335938,2.4316025 L142.088867,2.4316025 L142.088867,0.3876572 L143.092774,0.3876572 L143.092774,2.4316025 L143.845703,2.4316025 C144.419922,2.4316025 144.728516,2.1088486 144.850586,1.6781845 L145.208985,0.3876572 L146.249024,0.3876572 L145.889649,1.6781845 C145.582031,2.7900009 144.993164,2.9692001 144.993164,2.9692001 L144.993164,3.0053329 L146.643555,5.4076767 L145.459961,5.4076767 L143.989258,3.2563095 L143.092774,3.2563095 L143.092774,5.4076767 L142.088867,5.4076767 L142.088867,3.2563095 L141.192383,3.2563095 L139.722656,5.4076767 L138.539062,5.4076767 L140.188477,3.0053329 L140.188477,2.9692001 C140.188477,2.9692001 139.600586,2.7900009 139.291992,1.6781845 L138.933594,0.3876572 L139.973633,0.3876572 L140.332031,1.6781845 L140.332031,1.6781845 Z"></path>
                    <path d="M152.042969,5.4076767 L150.966797,5.4076767 L150.572266,4.4037704 L148.098633,4.4037704 L147.704102,5.4076767 L146.62793,5.4076767 L148.708008,0.3876572 L149.962891,0.3876572 L152.042969,5.4076767 L152.042969,5.4076767 Z M148.457031,3.5429306 L150.213867,3.5429306 L149.353516,1.4633408 L149.317383,1.4633408 L148.457031,3.5429306 L148.457031,3.5429306 Z"></path>
                </g>
                <path d="M40.7544174,59.3242302 L49.2044373,59.3242302 L49.2044373,34.5336418 L40.7544174,32.8427944 L40.7544174,59.3242302 Z" id="Shape" fill="#F9A01B"></path>
                <path d="M111.12561,59.3242302 L102.67559,59.3242302 L102.67559,34.5336418 L111.12561,32.8427944 L111.12561,59.3242302 Z" id="Shape" fill="#F9A01B"></path>
                <path d="M71.2616425,23.23456 L40.7545891,59.2941856 L53.4224968,59.2941856 L75.4994125,33.3115273 L76.3805084,33.3115273 L98.4577026,59.2941856 L111.12561,59.2941856 L80.6185532,23.23456 L71.2616425,23.23456 Z" id="Shape" fill="#4D4D4F"></path>
            </g>
        </g>
    </g>
</svg>