<?xml version="1.0" encoding="utf-8"?>
<!-- Generator: Adobe Illustrator 18.1.1, SVG Export Plug-In . SVG Version: 6.00 Build 0)  -->
<svg version="1.1" id="Слой_1" xmlns="http://www.w3.org/2000/svg" xmlns:xlink="http://www.w3.org/1999/xlink" x="0px" y="0px"
	 viewBox="0 0 151.8808594 96.4834824" enable-background="new 0 0 151.8808594 96.4834824" xml:space="preserve">
<g>
	<g>
		<path fill="#4D4D4F" d="M26.9423828,69.6169281l6.0390625,14.8310547h-3.0517578L28.53125,80.845932h-8.0507813
			l-1.3984375,3.6020508H16.03125l6.0380859-14.8310547H26.9423828z M21.2216797,79.2570648h6.5683594l-3.1777344-7.8393555
			h-0.2119141L21.2216797,79.2570648z"/>
		<path fill="#4D4D4F" d="M41.2441406,69.1931c1.2851563,0,2.5,0.2192383,3.6445313,0.6567383
			c1.1435547,0.4379883,2.1181641,1.03125,2.9238281,1.7797852l-1.0595703,1.2714844
			c-0.8046875-0.7485352-1.6494141-1.2890625-2.5322266-1.6210938c-0.8828125-0.331543-1.8037109-0.4980469-2.7646484-0.4980469
			c-0.7207031,0-1.3847656,0.1240234-1.9912109,0.3710938c-0.6074219,0.2470703-1.1337891,0.625-1.5791016,1.1333008
			c-0.4443359,0.5087891-0.7910156,1.1547852-1.0380859,1.9389648c-0.2470703,0.7836914-0.3701172,1.7197266-0.3701172,2.8071289
			c0,1.1157227,0.1269531,2.0732422,0.3808594,2.8710938s0.6074219,1.4545898,1.0595703,1.9702148
			s0.9990234,0.8969727,1.6416016,1.144043c0.6425781,0.2475586,1.3457031,0.3706055,2.1083984,0.3706055
			c0.6357422,0,1.1826172-0.0561523,1.6425781-0.1694336c0.4580078-0.112793,0.84375-0.246582,1.1542969-0.4023438
			c0.3671875-0.1694336,0.6708984-0.3671875,0.9111328-0.5932617v-4.0253906h-2.7548828v-1.3774414h5.8271484v5.8266602
			c-0.5234375,0.4238281-1.1308594,0.7978516-1.8222656,1.1225586c-0.59375,0.2827148-1.3242188,0.5371094-2.1933594,0.7631836
			c-0.8681641,0.2255859-1.8603516,0.3388672-2.9765625,0.3388672c-1.2714844,0-2.4150391-0.1694336-3.4326172-0.5087891
			c-1.0166016-0.3388672-1.8857422-0.8398438-2.6054688-1.5039063c-0.7207031-0.6640625-1.2714844-1.4833984-1.6523438-2.4580078
			c-0.3818359-0.9746094-0.5722656-2.0976563-0.5722656-3.3686523c0-1.2714844,0.1904297-2.394043,0.5722656-3.3686523
			c0.3808594-0.9746094,0.9208984-1.7939453,1.6201172-2.4580078c0.6992188-0.6635742,1.546875-1.1650391,2.5429688-1.5039063
			C38.9238281,69.3625336,40.0292969,69.1931,41.2441406,69.1931z"/>
		<path fill="#4D4D4F" d="M58.6171875,69.6169281c1.0595703,0,2.0097656,0.1166992,2.8496094,0.3496094
			c0.8408203,0.2329102,1.5498047,0.5717773,2.1298828,1.0170898c0.5791016,0.4448242,1.0234375,0.9887695,1.3349609,1.6313477
			c0.3095703,0.6430664,0.4658203,1.3740234,0.4658203,2.1928711c0,1.1303711-0.2832031,2.0834961-0.8476563,2.8603516
			c-0.5654297,0.7768555-1.3769531,1.3701172-2.4365234,1.7797852l3.4960938,5h-3.4960938l-3.1142578-4.4492188h-0.3818359H54.0625
			v4.4492188h-3.0722656V69.6169281H58.6171875z M54.0625,71.2057953v7.2036133h4.5546875
			c1.1162109,0,1.9775391-0.2929688,2.5849609-0.8789063s0.9111328-1.4936523,0.9111328-2.7226563
			s-0.3037109-2.1362305-0.9111328-2.7226563c-0.6074219-0.5859375-1.46875-0.8793945-2.5849609-0.8793945H54.0625z"/>
		<path fill="#4D4D4F" d="M75.9912109,69.1931c1.2714844,0,2.4257813,0.1694336,3.4638672,0.5087891
			c1.0380859,0.3388672,1.9287109,0.840332,2.6699219,1.5039063c0.7412109,0.6640625,1.3173828,1.4833984,1.7265625,2.4580078
			c0.4101563,0.9746094,0.6142578,2.097168,0.6142578,3.3686523c0,1.2709961-0.2041016,2.394043-0.6142578,3.3686523
			c-0.4091797,0.9746094-0.9853516,1.7939453-1.7265625,2.4580078s-1.6318359,1.1650391-2.6699219,1.5039063
			c-1.0380859,0.3393555-2.1923828,0.5087891-3.4638672,0.5087891s-2.4296875-0.1694336-3.4746094-0.5087891
			c-1.0458984-0.3388672-1.9384766-0.8398438-2.6806641-1.5039063c-0.7412109-0.6640625-1.3134766-1.4833984-1.7158203-2.4580078
			s-0.6035156-2.0976563-0.6035156-3.3686523c0-1.2714844,0.2011719-2.394043,0.6035156-3.3686523
			s0.9746094-1.7939453,1.7158203-2.4580078c0.7421875-0.6635742,1.6347656-1.1650391,2.6806641-1.5039063
			C73.5615234,69.3625336,74.7197266,69.1931,75.9912109,69.1931z M75.9912109,70.6764984
			c-0.7207031,0-1.3945313,0.1269531-2.0234375,0.3813477c-0.6289063,0.2539063-1.1757813,0.6425781-1.6416016,1.1650391
			c-0.4667969,0.5229492-0.8369141,1.1831055-1.1123047,1.980957c-0.2753906,0.7983398-0.4130859,1.7412109-0.4130859,2.8286133
			c0,1.0878906,0.1376953,2.0307617,0.4130859,2.8286133s0.6455078,1.4584961,1.1123047,1.980957
			c0.4658203,0.5224609,1.0126953,0.9111328,1.6416016,1.1650391c0.6289063,0.2543945,1.3027344,0.3813477,2.0234375,0.3813477
			s1.3945313-0.1269531,2.0234375-0.3813477c0.6279297-0.2539063,1.1757813-0.6425781,1.6416016-1.1650391
			c0.4667969-0.5224609,0.8369141-1.1831055,1.1123047-1.980957c0.2763672-0.7978516,0.4140625-1.7407227,0.4140625-2.8286133
			c0-1.0874023-0.1376953-2.0302734-0.4140625-2.8286133c-0.2753906-0.7978516-0.6455078-1.4580078-1.1123047-1.980957
			c-0.4658203-0.5224609-1.0136719-0.9111328-1.6416016-1.1650391
			C77.3857422,70.8034515,76.7119141,70.6764984,75.9912109,70.6764984z"/>
		<path fill="#4D4D4F" d="M90.0810547,71.2057953v5.0849609h7.7333984v1.5893555h-7.7333984v6.5678711h-3.0722656V69.6169281
			h13.3476563v1.5888672H90.0810547z"/>
		<path fill="#4D4D4F" d="M109.2548828,69.1931c1.2714844,0,2.4257813,0.1694336,3.4638672,0.5087891
			c1.0380859,0.3388672,1.9287109,0.840332,2.6699219,1.5039063c0.7412109,0.6640625,1.3173828,1.4833984,1.7265625,2.4580078
			c0.4101563,0.9746094,0.6142578,2.097168,0.6142578,3.3686523c0,1.2709961-0.2041016,2.394043-0.6142578,3.3686523
			c-0.4091797,0.9746094-0.9853516,1.7939453-1.7265625,2.4580078s-1.6318359,1.1650391-2.6699219,1.5039063
			c-1.0380859,0.3393555-2.1923828,0.5087891-3.4638672,0.5087891s-2.4296875-0.1694336-3.4746094-0.5087891
			c-1.0458984-0.3388672-1.9384766-0.8398438-2.6806641-1.5039063c-0.7412109-0.6640625-1.3134766-1.4833984-1.7158203-2.4580078
			s-0.6035156-2.0976563-0.6035156-3.3686523c0-1.2714844,0.2011719-2.394043,0.6035156-3.3686523
			s0.9746094-1.7939453,1.7158203-2.4580078c0.7421875-0.6635742,1.6347656-1.1650391,2.6806641-1.5039063
			C106.8251953,69.3625336,107.9833984,69.1931,109.2548828,69.1931z M109.2548828,70.6764984
			c-0.7207031,0-1.3945313,0.1269531-2.0234375,0.3813477c-0.6289063,0.2539063-1.1757813,0.6425781-1.6416016,1.1650391
			c-0.4667969,0.5229492-0.8369141,1.1831055-1.1123047,1.980957c-0.2753906,0.7983398-0.4130859,1.7412109-0.4130859,2.8286133
			c0,1.0878906,0.1376953,2.0307617,0.4130859,2.8286133s0.6455078,1.4584961,1.1123047,1.980957
			c0.4658203,0.5224609,1.0126953,0.9111328,1.6416016,1.1650391c0.6289063,0.2543945,1.3027344,0.3813477,2.0234375,0.3813477
			s1.3945313-0.1269531,2.0234375-0.3813477c0.6279297-0.2539063,1.1757813-0.6425781,1.6416016-1.1650391
			c0.4667969-0.5224609,0.8369141-1.1831055,1.1123047-1.980957c0.2763672-0.7978516,0.4140625-1.7407227,0.4140625-2.8286133
			c0-1.0874023-0.1376953-2.0302734-0.4140625-2.8286133c-0.2753906-0.7978516-0.6455078-1.4580078-1.1123047-1.980957
			c-0.4658203-0.5224609-1.0136719-0.9111328-1.6416016-1.1650391
			C110.6494141,70.8034515,109.9755859,70.6764984,109.2548828,70.6764984z"/>
		<path fill="#4D4D4F" d="M127.8994141,69.6169281c1.0595703,0,2.0097656,0.1166992,2.8496094,0.3496094
			c0.8408203,0.2329102,1.5498047,0.5717773,2.1298828,1.0170898c0.5791016,0.4448242,1.0234375,0.9887695,1.3349609,1.6313477
			c0.3095703,0.6430664,0.4658203,1.3740234,0.4658203,2.1928711c0,1.1303711-0.2832031,2.0834961-0.8476563,2.8603516
			c-0.5654297,0.7768555-1.3769531,1.3701172-2.4365234,1.7797852l3.4960938,5h-3.4960938L128.28125,79.998764h-0.3818359
			h-4.5546875v4.4492188h-3.0722656V69.6169281H127.8994141z M123.3447266,71.2057953v7.2036133h4.5546875
			c1.1162109,0,1.9775391-0.2929688,2.5849609-0.8789063s0.9111328-1.4936523,0.9111328-2.7226563
			s-0.3037109-2.1362305-0.9111328-2.7226563c-0.6074219-0.5859375-1.46875-0.8793945-2.5849609-0.8793945H123.3447266z"/>
	</g>
	<polygon fill="#FEBE10" points="83.8687286,-0.0001408 67.6881943,-0.0001408 40.5927925,31.8126183 40.5927925,58.2940521 
		49.0428162,58.2940521 49.0428162,33.5034676 71.0122299,7.520905 80.5585251,7.520905 102.5163116,33.5034676 
		102.5163116,58.2940521 110.9641266,58.2940521 110.9641266,31.8126183 	"/>
	<g>
		<path fill="#4D4D4F" d="M2.7246094,94.6906586l-1.2548828-2.6894531H1.4335938l-0.3945313,3.4067383H0l0.609375-5.0200195
			h1.1113281l1.4345703,3.1196289h0.0361328L4.625,90.3879242h1.1123047l0.609375,5.0200195H5.3066406l-0.3945313-3.4067383
			H4.8759766l-1.2548828,2.6894531H2.7246094z"/>
		<path fill="#4D4D4F" d="M7.3144531,90.3879242h4.015625v0.824707H8.3183594v1.2910156h2.0800781v0.824707H8.3183594v1.2548828
			h3.0839844v0.824707H7.3144531V90.3879242z"/>
		<path fill="#4D4D4F" d="M13.4521484,91.6784515c0.1220703,0.4306641,0.4306641,0.753418,1.0039063,0.753418h0.7529297v-2.0439453
			h1.0039063v2.0439453h0.7529297c0.5742188,0,0.8828125-0.3227539,1.0048828-0.753418l0.3583984-1.2905273h1.0400391
			l-0.359375,1.2905273c-0.3076172,1.1118164-0.8964844,1.2910156-0.8964844,1.2910156V93.0056l1.6503906,2.4023438h-1.1835938
			l-1.4707031-2.1513672h-0.8964844v2.1513672h-1.0039063v-2.1513672H14.3125l-1.4697266,2.1513672h-1.1835938L13.3085938,93.0056
			v-0.0361328c0,0-0.5878906-0.1791992-0.8964844-1.2910156l-0.3583984-1.2905273H13.09375L13.4521484,91.6784515z"/>
		<path fill="#4D4D4F" d="M24.7753906,90.3879242v4.1953125h0.6455078v1.9003906h-1.0039063v-1.0756836h-3.5859375v1.0756836
			h-1.0039063v-1.9003906h0.0712891c0.4306641,0,0.7822266-0.3583984,0.8613281-1.0039063l0.3945313-3.1914063H24.7753906z
			 M21.3330078,94.5475922v0.0356445h2.4384766v-3.3706055h-1.6855469l-0.2861328,2.3666992
			C21.7636719,94.1169281,21.3330078,94.5475922,21.3330078,94.5475922z"/>
		<path fill="#4D4D4F" d="M27.859375,94.0451508h-0.4238281l-1.7568359-3.6572266h1.1113281l1.3632813,2.9042969h0.0712891
			l1.3623047-2.9042969h1.1123047l-2.3671875,5.0200195h-1.1113281L27.859375,94.0451508z"/>
		<path fill="#4D4D4F" d="M36.0126953,90.3879242v5.0200195h-1.0039063v-2.0795898h-2.5820313v2.0795898h-1.0039063v-5.0200195
			h1.0039063v2.1157227h2.5820313v-2.1157227H36.0126953z"/>
		<path fill="#4D4D4F" d="M42.0722656,95.4079437h-1.0761719l-0.3945313-1.0039063h-2.4736328l-0.3945313,1.0039063h-1.0761719
			l2.0800781-5.0200195h1.2548828L42.0722656,95.4079437z M38.4863281,93.5431976h1.7568359l-0.8603516-2.0795898h-0.0361328
			L38.4863281,93.5431976z"/>
		<path fill="#4D4D4F" d="M45.0117188,90.3879242c1.3984375,0,2.1513672,0.7529297,2.1513672,1.7211914
			s-0.7529297,1.7211914-2.1513672,1.7211914h-1.2910156v1.5776367h-1.0039063v-5.0200195H45.0117188z M43.7207031,91.2126312
			V93.0056h1.2910156c0.6816406,0,1.1113281-0.4306641,1.1113281-0.8964844c0-0.4663086-0.4296875-0.8964844-1.1113281-0.8964844
			H43.7207031z"/>
		<path fill="#4D4D4F" d="M50.0888672,90.2443695c1.578125,0,2.6894531,1.1118164,2.6894531,2.6533203
			c0,1.5419922-1.1113281,2.6538086-2.6894531,2.6538086s-2.6894531-1.1118164-2.6894531-2.6538086
			C47.3994141,91.3561859,48.5107422,90.2443695,50.0888672,90.2443695z M50.0888672,91.1052094
			c-0.9326172,0-1.6494141,0.7167969-1.6494141,1.7924805s0.7167969,1.7929688,1.6494141,1.7929688
			s1.6494141-0.7172852,1.6494141-1.7929688S51.0214844,91.1052094,50.0888672,91.1052094z"/>
		<path fill="#4D4D4F" d="M57.8759766,90.3879242v4.1953125h0.6455078v1.9003906h-1.0039063v-1.0756836h-3.5859375v1.0756836
			h-1.0039063v-1.9003906h0.0712891c0.4306641,0,0.7822266-0.3583984,0.8613281-1.0039063l0.3945313-3.1914063H57.8759766z
			 M54.4335938,94.5475922v0.0356445h2.4384766v-3.3706055h-1.6855469l-0.2861328,2.3666992
			C54.8642578,94.1169281,54.4335938,94.5475922,54.4335938,94.5475922z"/>
		<path fill="#4D4D4F" d="M63.7431641,90.3879242v5.0200195h-1.0039063v-2.0795898h-2.5820313v2.0795898h-1.0039063v-5.0200195
			h1.0039063v2.1157227h2.5820313v-2.1157227H63.7431641z"/>
		<path fill="#4D4D4F" d="M69.8027344,95.4079437h-1.0761719l-0.3945313-1.0039063h-2.4736328l-0.3945313,1.0039063h-1.0761719
			l2.0800781-5.0200195h1.2548828L69.8027344,95.4079437z M66.2167969,93.5431976h1.7568359l-0.8603516-2.0795898h-0.0361328
			L66.2167969,93.5431976z"/>
		<path fill="#4D4D4F" d="M74.7353516,90.3879242v5.0200195h-1.0039063v-1.7211914h-1.3984375l-1.21875,1.7211914h-1.1474609
			l1.3623047-1.9003906v-0.0361328c0,0-1.0039063-0.2866211-1.0039063-1.434082
			c0-0.9682617,0.6738281-1.6494141,2.0800781-1.6494141H74.7353516z M72.4052734,92.8620453h1.3261719v-1.6494141h-1.3261719
			c-0.6816406,0-1.0400391,0.3583984-1.0400391,0.824707C71.3652344,92.4318695,71.7236328,92.8620453,72.4052734,92.8620453z"/>
		<path fill="#4D4D4F" d="M82.875,95.4079437h-1.0761719l-0.3945313-1.0039063h-2.4736328l-0.3945313,1.0039063h-1.0761719
			l2.0800781-5.0200195h1.2548828L82.875,95.4079437z M79.2890625,93.5431976h1.7568359l-0.8603516-2.0795898h-0.0361328
			L79.2890625,93.5431976z"/>
		<path fill="#4D4D4F" d="M83.5195313,90.3879242h3.7646484v0.824707h-2.7607422v4.1953125h-1.0039063V90.3879242z"/>
		<path fill="#4D4D4F" d="M90.2246094,90.3879242c1.3984375,0,2.1513672,0.7529297,2.1513672,1.7211914
			s-0.7529297,1.7211914-2.1513672,1.7211914h-1.2910156v1.5776367h-1.0039063v-5.0200195H90.2246094z M88.9335938,91.2126312
			V93.0056h1.2910156c0.6816406,0,1.1113281-0.4306641,1.1113281-0.8964844c0-0.4663086-0.4296875-0.8964844-1.1113281-0.8964844
			H88.9335938z"/>
		<path fill="#4D4D4F" d="M97.9414063,95.4079437h-1.0761719l-0.3945313-1.0039063h-2.4736328l-0.3945313,1.0039063h-1.0761719
			l2.0800781-5.0200195h1.2548828L97.9414063,95.4079437z M94.3554688,93.5431976h1.7568359l-0.8603516-2.0795898h-0.0361328
			L94.3554688,93.5431976z"/>
		<path fill="#4D4D4F" d="M100.8808594,90.3879242c1.3984375,0,2.1513672,0.7529297,2.1513672,1.7211914
			s-0.7529297,1.7211914-2.1513672,1.7211914h-1.2910156v1.5776367h-1.0039063v-5.0200195H100.8808594z M99.5898438,91.2126312
			V93.0056h1.2910156c0.6816406,0,1.1113281-0.4306641,1.1113281-0.8964844c0-0.4663086-0.4296875-0.8964844-1.1113281-0.8964844
			H99.5898438z"/>
		<path fill="#4D4D4F" d="M108.4316406,90.3879242v5.0200195h-1.0039063v-2.0795898h-2.5820313v2.0795898h-1.0039063v-5.0200195
			h1.0039063v2.1157227h2.5820313v-2.1157227H108.4316406z"/>
		<path fill="#4D4D4F" d="M114.4912109,95.4079437h-1.0761719l-0.3945313-1.0039063h-2.4736328l-0.3945313,1.0039063h-1.0761719
			l2.0800781-5.0200195h1.2548828L114.4912109,95.4079437z M110.9052734,93.5431976h1.7568359l-0.8603516-2.0795898h-0.0361328
			L110.9052734,93.5431976z"/>
		<path fill="#4D4D4F" d="M119.4238281,90.3879242v5.0200195h-1.0039063v-1.7211914h-1.3984375l-1.21875,1.7211914h-1.1474609
			l1.3623047-1.9003906v-0.0361328c0,0-1.0039063-0.2866211-1.0039063-1.434082
			c0-0.9682617,0.6738281-1.6494141,2.0800781-1.6494141H119.4238281z M117.09375,92.8620453h1.3261719v-1.6494141H117.09375
			c-0.6816406,0-1.0400391,0.3583984-1.0400391,0.824707C116.0537109,92.4318695,116.4121094,92.8620453,117.09375,92.8620453z"/>
		<path fill="#4D4D4F" d="M125.0683594,95.4079437h-2.4023438v-5.0200195h3.9804688v0.824707h-2.9765625v0.9682617h1.3984375
			c1.2910156,0,2.0439453,0.7529297,2.0439453,1.6132813C127.1123047,94.655014,126.359375,95.4079437,125.0683594,95.4079437z
			 M125.0683594,94.5832367c0.6455078,0,1.0039063-0.3583984,1.0039063-0.7890625
			c0-0.4301758-0.3583984-0.7885742-1.0039063-0.7885742h-1.3984375v1.5776367H125.0683594z"/>
		<path fill="#4D4D4F" d="M127.921875,95.4079437v-5.0200195h1.0039063v3.4423828h0.0361328l2.5097656-3.4423828h1.0039063
			v5.0200195h-1.0039063v-3.4423828h-0.0361328l-2.5097656,3.4423828H127.921875z"/>
		<path fill="#4D4D4F" d="M135.9316406,90.3879242c1.3984375,0,2.1513672,0.7529297,2.1513672,1.7211914
			s-0.7529297,1.7211914-2.1513672,1.7211914h-1.2910156v1.5776367h-1.0039063v-5.0200195H135.9316406z M134.640625,91.2126312
			V93.0056h1.2910156c0.6816406,0,1.1113281-0.4306641,1.1113281-0.8964844c0-0.4663086-0.4296875-0.8964844-1.1113281-0.8964844
			H134.640625z"/>
		<path fill="#4D4D4F" d="M140.1699219,91.6784515c0.1220703,0.4306641,0.4306641,0.753418,1.0039063,0.753418h0.7529297v-2.0439453
			h1.0039063v2.0439453h0.7529297c0.5742188,0,0.8828125-0.3227539,1.0048828-0.753418l0.3583984-1.2905273h1.0400391
			l-0.359375,1.2905273c-0.3076172,1.1118164-0.8964844,1.2910156-0.8964844,1.2910156V93.0056l1.6503906,2.4023438h-1.1835938
			l-1.4707031-2.1513672h-0.8964844v2.1513672h-1.0039063v-2.1513672h-0.8964844l-1.4697266,2.1513672h-1.1835938
			l1.6494141-2.4023438v-0.0361328c0,0-0.5878906-0.1791992-0.8964844-1.2910156l-0.3583984-1.2905273h1.0400391
			L140.1699219,91.6784515z"/>
		<path fill="#4D4D4F" d="M151.8808594,95.4079437h-1.0761719l-0.3945313-1.0039063h-2.4736328l-0.3945313,1.0039063h-1.0761719
			l2.0800781-5.0200195h1.2548828L151.8808594,95.4079437z M148.2949219,93.5431976h1.7568359l-0.8603516-2.0795898h-0.0361328
			L148.2949219,93.5431976z"/>
	</g>
	<polygon fill="#F9A01B" points="40.5927925,58.3240891 49.0428162,58.3240891 49.0428162,33.5335007 40.5927925,31.8426533 	"/>
	<polygon fill="#F9A01B" points="110.9639893,58.3240891 102.5139694,58.3240891 102.5139694,33.5335007 110.9639893,31.8426533 	
		"/>
	<polygon fill="#4D4D4F" points="71.1000214,22.2344189 40.592968,58.2940445 53.2608757,58.2940445 75.3377914,32.3113861 
		76.2188873,32.3113861 98.2960815,58.2940445 110.9639893,58.2940445 80.4569321,22.2344189 	"/>
</g>
</svg>
