<?xml version="1.0" encoding="UTF-8" standalone="no"?>
<svg width="72px" height="60px" viewBox="0 0 72 60" version="1.1" xmlns="http://www.w3.org/2000/svg" xmlns:xlink="http://www.w3.org/1999/xlink" xmlns:sketch="http://www.bohemiancoding.com/sketch/ns">
    <!-- Generator: Sketch 3.2.2 (9983) - http://www.bohemiancoding.com/sketch -->
    <title>Slice 1</title>
    <desc>Created with Sketch.</desc>
    <defs></defs>
    <g id="Page-1" stroke="none" stroke-width="1" fill="none" fill-rule="evenodd" sketch:type="MSPage">
        <g id="logo_ru" sketch:type="MSLayerGroup">
            <g id="Page-1" sketch:type="MSShapeGroup">
                <g id="logo_ru">
                    <g id="Group">
                        <path d="M44.0303497,0.9999999 L27.8498154,0.9999999 L0.7544174,32.8127594 L0.7544174,59.2941933 L9.2044373,59.2941933 L9.2044373,34.5036087 L31.173851,8.5210457 L40.7201462,8.5210457 L62.677933,34.5036087 L62.677933,59.2941933 L71.125748,59.2941933 L71.125748,32.8127594 L44.0303497,0.9999999 L44.0303497,0.9999999 Z" id="Shape" fill="#FEBE10"></path>
                        <path d="M0.7544174,59.3242302 L9.2044373,59.3242302 L9.2044373,34.5336418 L0.7544174,32.8427944 L0.7544174,59.3242302 L0.7544174,59.3242302 Z" id="Shape" fill="#F9A01B"></path>
                        <path d="M71.12561,59.3242302 L62.67559,59.3242302 L62.67559,34.5336418 L71.12561,32.8427944 L71.12561,59.3242302 L71.12561,59.3242302 Z" id="Shape" fill="#F9A01B"></path>
                        <path d="M31.2616425,23.23456 L0.7545891,59.2941856 L13.4224968,59.2941856 L35.4994125,33.3115273 L36.3805084,33.3115273 L58.4577026,59.2941856 L71.12561,59.2941856 L40.6185532,23.23456 L31.2616425,23.23456 L31.2616425,23.23456 Z" id="Shape" fill="#4D4D4F"></path>
                    </g>
                </g>
            </g>
        </g>
    </g>
</svg>