<?xml version="1.0" encoding="UTF-8" standalone="no"?>
<svg width="146px" height="83px" viewBox="0 0 146 83" version="1.1" xmlns="http://www.w3.org/2000/svg" xmlns:xlink="http://www.w3.org/1999/xlink" xmlns:sketch="http://www.bohemiancoding.com/sketch/ns">
    <!-- Generator: Sketch 3.2.2 (9983) - http://www.bohemiancoding.com/sketch -->
    <title>Slice 1</title>
    <desc>Created with Sketch.</desc>
    <defs></defs>
    <g id="Page-1" stroke="none" stroke-width="1" fill="none" fill-rule="evenodd" sketch:type="MSPage">
        <g id="logo_en" sketch:type="MSLayerGroup">
            <g id="Group" sketch:type="MSShapeGroup">
                <g transform="translate(20.000000, 59.000000)" id="Shape" fill="#4D4D4F">
                    <path d="M10.2578125,1.2277908 L15.4814453,14.0583572 L12.8427734,14.0583572 L11.6328125,10.9421463 L4.6669922,10.9421463 L3.4580078,14.0583572 L0.8183594,14.0583572 L6.0419922,1.2277908 L10.2578125,1.2277908 L10.2578125,1.2277908 Z M5.3085938,9.5676346 L10.991211,9.5676346 L8.241211,2.785408 L8.0585938,2.785408 L5.3085938,9.5676346 L5.3085938,9.5676346 Z"></path>
                    <path d="M22.6308594,0.8610916 C23.7421875,0.8610916 24.7939453,1.0505447 25.7832032,1.429451 C26.7734376,1.8083573 27.616211,2.3215408 28.3125001,2.9690018 L27.3964845,4.0686112 C26.7001954,3.4211503 25.9697267,2.9538651 25.2060548,2.6662674 C24.4423829,2.3796463 23.6445314,2.2356033 22.8144532,2.2356033 C22.1904298,2.2356033 21.616211,2.3430252 21.0908204,2.5564041 C20.5654298,2.7702713 20.1103516,3.0974197 19.725586,3.5373611 C19.3408204,3.9773025 19.0410157,4.5358963 18.8271485,5.2141189 C18.6132813,5.8923415 18.506836,6.7024002 18.506836,7.6428298 C18.506836,8.6086501 18.616211,9.4362868 18.8369141,10.1267165 C19.0566407,10.8171462 19.3613282,11.3855056 19.7529297,11.8313063 C20.1435547,12.2775954 20.6171875,12.6076735 21.1738281,12.8210524 C21.7294922,13.0349196 22.3378906,13.1418532 22.9970703,13.1418532 C23.546875,13.1418532 24.0205078,13.0930251 24.4179687,12.9953688 C24.8144531,12.8977125 25.1474609,12.7815016 25.4169921,12.646736 C25.7343749,12.5002516 25.9970702,12.3293532 26.205078,12.1335524 L26.205078,8.6511305 L23.8222655,8.6511305 L23.8222655,7.4597242 L28.8632811,7.4597242 L28.8632811,12.5002515 C28.4101561,12.8669507 27.8847655,13.1906812 27.2861327,13.4719312 C26.7734374,13.7165601 26.1406249,13.9362867 25.3896483,14.1315992 C24.6376952,14.3269117 23.7792967,14.4250562 22.814453,14.4250562 C21.7138671,14.4250562 20.7246092,14.2780835 19.8447264,13.9851148 C18.9648436,13.6916578 18.2128905,13.258064 17.5898436,12.6838453 C16.9667967,12.1096266 16.4902342,11.4006422 16.1601561,10.5573805 C15.830078,9.7141188 15.6650389,8.7429274 15.6650389,7.6428297 C15.6650389,6.5432203 15.830078,5.5715406 16.1601561,4.7287672 C16.4902342,3.8855055 16.9580077,3.1770094 17.5624999,2.6023024 C18.1679687,2.0280836 18.9003905,1.5940016 19.7617187,1.3010329 C20.6240234,1.007576 21.5800781,0.8610916 22.6308594,0.8610916 L22.6308594,0.8610916 Z"></path>
                    <path d="M37.6611328,1.2277908 C38.5771484,1.2277908 39.3994141,1.3283767 40.1259766,1.5300369 C40.8535157,1.7316971 41.4677735,2.0251541 41.96875,2.4099197 C42.4697265,2.7946853 42.8544922,3.2653885 43.1230469,3.8210525 C43.3916016,4.3772048 43.5263672,5.0100173 43.5263672,5.7185134 C43.5263672,6.6960525 43.2822266,7.5207595 42.7929688,8.1926345 C42.3046875,8.8649978 41.6015625,9.3781814 40.6855469,9.7326736 L43.709961,14.0583572 L40.6855469,14.0583572 L37.991211,10.2092361 L37.6611329,10.2092361 L33.7197266,10.2092361 L33.7197266,14.0583572 L31.0625,14.0583572 L31.0625,1.2277908 L37.6611328,1.2277908 L37.6611328,1.2277908 Z M33.7197266,2.6023026 L33.7197266,8.8342362 L37.6611329,8.8342362 C38.6259767,8.8342362 39.3720704,8.5808182 39.897461,8.073494 C40.4228516,7.5666581 40.6855469,6.7815018 40.6855469,5.7185135 C40.6855469,4.6550369 40.4228516,3.870369 39.897461,3.3630447 C39.3720704,2.8562088 38.6259766,2.6023025 37.6611329,2.6023025 L33.7197266,2.6023025 L33.7197266,2.6023026 Z"></path>
                    <path d="M52.6904297,0.8610916 C53.7900391,0.8610916 54.7890625,1.007576 55.6875,1.301033 C56.5859375,1.5940018 57.3554688,2.0280838 57.9970703,2.6023025 C58.6386719,3.1770095 59.1367187,3.8855056 59.4912109,4.7287673 C59.8457031,5.5715407 60.0224609,6.5432204 60.0224609,7.6428298 C60.0224609,8.7429275 59.8457031,9.7141189 59.4912109,10.5573806 C59.1367187,11.4006423 58.6386718,12.1096267 57.9970703,12.6838454 C57.3554688,13.2580641 56.5859375,13.691658 55.6875,13.9851151 C54.7890625,14.2780839 53.7900391,14.4250565 52.6904297,14.4250565 C51.5908203,14.4250565 50.5888672,14.2780838 49.6845703,13.9851151 C48.7802734,13.6916581 48.0078125,13.2580643 47.3662109,12.6838456 C46.7246093,12.1096269 46.2294921,11.4006425 45.8808593,10.5573808 C45.533203,9.7141191 45.3583984,8.7429277 45.3583984,7.64283 C45.3583984,6.5432206 45.5332031,5.5715409 45.8808593,4.7287675 C46.2294921,3.8855058 46.7246093,3.1770097 47.3662109,2.6023027 C48.0078125,2.0280839 48.7802734,1.5940019 49.6845703,1.3010332 C50.5888672,1.007576 51.5908203,0.8610916 52.6904297,0.8610916 L52.6904297,0.8610916 Z M52.6904297,2.1442947 C52.0673828,2.1442947 51.4833984,2.254158 50.9404297,2.4738845 C50.3964844,2.6940993 49.9228516,3.0300368 49.5195313,3.4821853 C49.116211,3.9343338 48.7958985,4.5056228 48.5576172,5.1960525 C48.3193359,5.8864822 48.2001953,6.7024002 48.2001953,7.6428298 C48.2001953,8.5842361 48.3193359,9.3996657 48.5576172,10.0900954 C48.7958985,10.7805251 49.116211,11.3518142 49.5195313,11.8039626 C49.9228516,12.256111 50.3964844,12.5920485 50.9404297,12.8117751 C51.4833985,13.0319899 52.0673828,13.1418532 52.6904297,13.1418532 C53.3134766,13.1418532 53.897461,13.0319899 54.4414063,12.8117751 C54.9843751,12.5920485 55.4580079,12.256111 55.8613282,11.8039626 C56.2646485,11.3518142 56.5859376,10.7805251 56.8242188,10.0900954 C57.0625,9.3996657 57.1816407,8.584236 57.1816407,7.6428298 C57.1816407,6.7024001 57.0625001,5.8864821 56.8242188,5.1960525 C56.5859375,4.5056229 56.2646485,3.9343337 55.8613282,3.4821853 C55.4580079,3.0300369 54.9843751,2.6940994 54.4414063,2.4738845 C53.8974609,2.254158 53.3134766,2.1442947 52.6904297,2.1442947 L52.6904297,2.1442947 Z"></path>
                    <path d="M64.8789063,2.6023026 L64.8789063,7.0012284 L71.569336,7.0012284 L71.569336,8.3762284 L64.8789063,8.3762284 L64.8789063,14.0583573 L62.2216797,14.0583573 L62.2216797,1.2277908 L73.7695313,1.2277908 L73.7695313,2.6023025 L64.8789063,2.6023025 L64.8789063,2.6023026 Z"></path>
                    <path d="M81.4677734,0.8610916 C82.5673828,0.8610916 83.5664062,1.007576 84.4648437,1.301033 C85.3632812,1.5940018 86.1328125,2.0280838 86.774414,2.6023025 C87.4160156,3.1770095 87.9140624,3.8855056 88.2685546,4.7287673 C88.6230468,5.5715407 88.7998046,6.5432204 88.7998046,7.6428298 C88.7998046,8.7429275 88.6230468,9.7141189 88.2685546,10.5573806 C87.9140624,11.4006423 87.4160155,12.1096267 86.774414,12.6838454 C86.1328125,13.2580641 85.3632812,13.6916579 84.4648437,13.9851149 C83.5664062,14.2780837 82.5673828,14.4250563 81.4677734,14.4250563 C80.368164,14.4250563 79.3662109,14.2780836 78.461914,13.9851149 C77.5576171,13.6916579 76.7851562,13.2580641 76.1435546,12.6838454 C75.501953,12.1096267 75.0068358,11.4006423 74.658203,10.5573806 C74.3105467,9.7141189 74.1357421,8.7429275 74.1357421,7.6428298 C74.1357421,6.5432204 74.3105468,5.5715407 74.658203,4.7287673 C75.0068358,3.8855056 75.501953,3.1770095 76.1435546,2.6023025 C76.7851562,2.0280837 77.5576171,1.5940017 78.461914,1.301033 C79.3662109,1.007576 80.3681641,0.8610916 81.4677734,0.8610916 L81.4677734,0.8610916 Z M81.4677734,2.1442947 C80.8447265,2.1442947 80.2607421,2.254158 79.7177734,2.4738845 C79.1738281,2.6940993 78.7001953,3.0300368 78.296875,3.4821853 C77.8935547,3.9343338 77.5732422,4.5056228 77.3349609,5.1960525 C77.0966796,5.8864822 76.977539,6.7024002 76.977539,7.6428298 C76.977539,8.5842361 77.0966796,9.3996657 77.3349609,10.0900954 C77.5732422,10.7805251 77.8935547,11.3518142 78.296875,11.8039626 C78.7001953,12.256111 79.1738281,12.5920485 79.7177734,12.8117751 C80.2607422,13.0319899 80.8447265,13.1418532 81.4677734,13.1418532 C82.0908203,13.1418532 82.6748047,13.0319899 83.21875,12.8117751 C83.7617188,12.5920485 84.2353516,12.256111 84.6386719,11.8039626 C85.0419922,11.3518142 85.3632813,10.7805251 85.6015625,10.0900954 C85.8398437,9.3996657 85.9589844,8.584236 85.9589844,7.6428298 C85.9589844,6.7024001 85.8398438,5.8864821 85.6015625,5.1960525 C85.3632812,4.5056229 85.0419922,3.9343337 84.6386719,3.4821853 C84.2353516,3.0300369 83.7617188,2.6940994 83.21875,2.4738845 C82.6748047,2.254158 82.0908203,2.1442947 81.4677734,2.1442947 L81.4677734,2.1442947 Z"></path>
                    <path d="M97.5976563,1.2277908 C98.5136719,1.2277908 99.3359376,1.3283767 100.0625,1.5300369 C100.790039,1.7316971 101.404297,2.0251541 101.905273,2.4099197 C102.40625,2.7946853 102.791016,3.2653885 103.05957,3.8210525 C103.328125,4.3772048 103.462891,5.0100173 103.462891,5.7185134 C103.462891,6.6960525 103.21875,7.5207595 102.729492,8.1926345 C102.241211,8.8649978 101.538086,9.3781814 100.62207,9.7326736 L103.646484,14.0583572 L100.62207,14.0583572 L97.9277345,10.2092361 L97.5976564,10.2092361 L93.65625,10.2092361 L93.65625,14.0583572 L90.9990234,14.0583572 L90.9990234,1.2277908 L97.5976563,1.2277908 L97.5976563,1.2277908 Z M93.65625,2.6023026 L93.65625,8.8342362 L97.5976563,8.8342362 C98.5625001,8.8342362 99.3085938,8.5808182 99.8339844,8.073494 C100.359375,7.5666581 100.62207,6.7815018 100.62207,5.7185135 C100.62207,4.6550369 100.359375,3.870369 99.8339844,3.3630447 C99.3085938,2.8562088 98.5625,2.6023025 97.5976563,2.6023025 L93.65625,2.6023025 L93.65625,2.6023026 Z"></path>
                </g>
                <path d="M79.5063324,0 L65.5081329,0 L42.0672112,27.5220337 L42.0672112,50.4318008 L49.3775444,50.4318008 L49.3775444,28.9848309 L68.3838425,6.5066495 L76.6425934,6.5066495 L95.6388321,28.9848309 L95.6388321,50.4318008 L102.947258,50.4318008 L102.947258,27.5220337 L79.5063324,0 Z" id="Shape" fill="#FEBE10"></path>
                <g transform="translate(0.000000, 78.000000)" id="Shape" fill="#4D4D4F">
                    <path d="M1.1845703,4.5398026 L0.3154297,4.5398026 L0.3154297,0.1926346 L1.1845703,0.1926346 L1.1845703,4.5398026 L1.1845703,4.5398026 Z"></path>
                    <path d="M5.2939453,3.1735916 L5.2939453,0.1926346 L6.1630859,0.1926346 L6.1630859,4.5398026 L5.2314453,4.5398026 L3.0888672,1.5588456 L3.0576172,1.5588456 L3.0576172,4.5398026 L2.1884766,4.5398026 L2.1884766,0.1926346 L3.1201172,0.1926346 L5.2626953,3.1735916 L5.2939453,3.1735916 L5.2939453,3.1735916 Z"></path>
                    <path d="M10.6230469,0.1926346 L10.6230469,0.9069901 L9.1328125,0.9069901 L9.1328125,4.5398026 L8.2636719,4.5398026 L8.2636719,0.9069901 L6.7724609,0.9069901 L6.7724609,0.1926346 L10.6230469,0.1926346 L10.6230469,0.1926346 Z"></path>
                    <path d="M11.234375,0.1926346 L14.7119141,0.1926346 L14.7119141,0.9069901 L12.1035157,0.9069901 L12.1035157,2.0246659 L13.9052735,2.0246659 L13.9052735,2.7390214 L12.1035157,2.7390214 L12.1035157,3.8254472 L14.7744141,3.8254472 L14.7744141,4.5398027 L11.234375,4.5398027 L11.234375,0.1926346 L11.234375,0.1926346 Z"></path>
                    <path d="M17.4277344,0.1926346 C18.6074219,0.1926346 19.2285157,0.8137284 19.2285157,1.6208573 C19.2285157,2.5524979 18.4218751,2.8630448 18.4218751,2.8630448 L18.4218751,2.8942948 L19.5703126,4.5398026 L18.5458985,4.5398026 L17.5205079,3.0490799 L16.3095704,3.0490799 L16.3095704,4.5398026 L15.4404298,4.5398026 L15.4404298,0.1926346 L17.4277344,0.1926346 L17.4277344,0.1926346 Z M17.4277344,0.9069901 L16.3095703,0.9069901 L16.3095703,2.3352128 L17.4277344,2.3352128 C18.0175782,2.3352128 18.328125,1.9626542 18.328125,1.6208573 C18.328125,1.2170486 18.0175781,0.9069901 17.4277344,0.9069901 L17.4277344,0.9069901 Z"></path>
                    <path d="M23.2607422,3.1735916 L23.2607422,0.1926346 L24.1298828,0.1926346 L24.1298828,4.5398026 L23.1982422,4.5398026 L21.0556641,1.5588456 L21.0244141,1.5588456 L21.0244141,4.5398026 L20.1552735,4.5398026 L20.1552735,0.1926346 L21.0869141,0.1926346 L23.2294922,3.1735916 L23.2607422,3.1735916 L23.2607422,3.1735916 Z"></path>
                    <path d="M29.3720703,4.5398026 L28.4404297,4.5398026 L28.0986328,3.6701737 L25.9560547,3.6701737 L25.6142578,4.5398026 L24.6826172,4.5398026 L26.4833985,0.1926346 L27.5703126,0.1926346 L29.3720703,4.5398026 L29.3720703,4.5398026 Z M26.2666016,2.9250565 L27.788086,2.9250565 L27.0429688,1.1242752 L27.0117188,1.1242752 L26.2666016,2.9250565 L26.2666016,2.9250565 Z"></path>
                    <path d="M33.0126953,0.1926346 L33.0126953,0.9069901 L31.5224609,0.9069901 L31.5224609,4.5398026 L30.6533203,4.5398026 L30.6533203,0.9069901 L29.1621094,0.9069901 L29.1621094,0.1926346 L33.0126953,0.1926346 L33.0126953,0.1926346 Z"></path>
                    <path d="M34.4921875,4.5398026 L33.6230469,4.5398026 L33.6230469,0.1926346 L34.4921875,0.1926346 L34.4921875,4.5398026 L34.4921875,4.5398026 Z"></path>
                    <path d="M37.5771484,0.0686111 C38.9443359,0.0686111 39.90625,1.0310134 39.90625,2.3659744 C39.90625,3.7014236 38.9443359,4.663826 37.5771484,4.663826 C36.2109375,4.663826 35.2490234,3.7014237 35.2490234,2.3659744 C35.2490234,1.0310135 36.2109375,0.0686111 37.5771484,0.0686111 L37.5771484,0.0686111 Z M37.5771484,0.8137283 C36.7705078,0.8137283 36.149414,1.4348221 36.149414,2.3659744 C36.149414,3.297615 36.7705078,3.9187088 37.5771484,3.9187088 C38.3847656,3.9187088 39.0058593,3.297615 39.0058593,2.3659744 C39.0058594,1.4348221 38.3847656,0.8137283 37.5771484,0.8137283 L37.5771484,0.8137283 Z"></path>
                    <path d="M43.7636719,3.1735916 L43.7636719,0.1926346 L44.6328125,0.1926346 L44.6328125,4.5398026 L43.7011719,4.5398026 L41.5585938,1.5588456 L41.5273438,1.5588456 L41.5273438,4.5398026 L40.6582032,4.5398026 L40.6582032,0.1926346 L41.5898438,0.1926346 L43.7324219,3.1735916 L43.7636719,3.1735916 L43.7636719,3.1735916 Z"></path>
                    <path d="M49.8759766,4.5398026 L48.944336,4.5398026 L48.6025391,3.6701737 L46.459961,3.6701737 L46.1181641,4.5398026 L45.1865235,4.5398026 L46.9873048,0.1926346 L48.0742189,0.1926346 L49.8759766,4.5398026 L49.8759766,4.5398026 Z M46.7705078,2.9250565 L48.2919922,2.9250565 L47.546875,1.1242752 L47.515625,1.1242752 L46.7705078,2.9250565 L46.7705078,2.9250565 Z"></path>
                    <path d="M50.4287109,0.1926346 L51.2978515,0.1926346 L51.2978515,3.8254471 L53.7509765,3.8254471 L53.7509765,4.5398026 L50.4287109,4.5398026 L50.4287109,0.1926346 L50.4287109,0.1926346 Z"></path>
                    <path d="M60.4033203,4.5398026 L59.4716797,4.5398026 L59.1298828,3.6701737 L56.9873047,3.6701737 L56.6455078,4.5398026 L55.7138672,4.5398026 L57.5146485,0.1926346 L58.6015626,0.1926346 L60.4033203,4.5398026 L60.4033203,4.5398026 Z M57.2978516,2.9250565 L58.819336,2.9250565 L58.0742188,1.1242752 L58.0429688,1.1242752 L57.2978516,2.9250565 L57.2978516,2.9250565 Z"></path>
                    <path d="M64.5283203,0.5031815 L64.1552734,1.0930253 C64.1552734,1.0930253 63.7080078,0.8137284 63.1308593,0.8137284 C62.1992187,0.8137284 61.5781249,1.4348222 61.5781249,2.3659745 C61.5781249,3.2976151 62.1992187,3.9187089 63.1308593,3.9187089 C63.5654296,3.9187089 63.8759765,3.7634355 63.8759765,3.7634355 L63.8759765,2.7390214 L62.9755859,2.7390214 L62.9755859,2.0246659 L64.7451172,2.0246659 L64.7451172,4.123787 C64.7451172,4.123787 64.0625,4.6638261 63.0683594,4.6638261 C61.6708985,4.6638261 60.7089844,3.7014238 60.7089844,2.3659745 C60.7089844,1.0310136 61.6708985,0.0686112 63.0683594,0.0686112 C63.96875,0.0686111 64.5283203,0.5031815 64.5283203,0.5031815 L64.5283203,0.5031815 Z"></path>
                    <path d="M67.5966797,0.1926346 C68.7763672,0.1926346 69.397461,0.8137284 69.397461,1.6208573 C69.397461,2.5524979 68.5908204,2.8630448 68.5908204,2.8630448 L68.5908204,2.8942948 L69.7392579,4.5398026 L68.7148438,4.5398026 L67.6904297,3.0490799 L66.4785156,3.0490799 L66.4785156,4.5398026 L65.609375,4.5398026 L65.609375,0.1926346 L67.5966797,0.1926346 L67.5966797,0.1926346 Z M67.5966797,0.9069901 L66.4785156,0.9069901 L66.4785156,2.3352128 L67.5966797,2.3352128 C68.1865235,2.3352128 68.4970703,1.9626542 68.4970703,1.6208573 C68.4970703,1.2170486 68.1865234,0.9069901 67.5966797,0.9069901 L67.5966797,0.9069901 Z"></path>
                    <path d="M71.1933594,4.5398026 L70.3242188,4.5398026 L70.3242188,0.1926346 L71.1933594,0.1926346 L71.1933594,4.5398026 L71.1933594,4.5398026 Z"></path>
                    <path d="M75.8007813,0.5031815 L75.4277344,1.0930253 C75.4277344,1.0930253 74.9804688,0.8137284 74.4033203,0.8137284 C73.4716797,0.8137284 72.8505859,1.4348222 72.8505859,2.3659745 C72.8505859,3.2976151 73.4716797,3.9187089 74.4033203,3.9187089 C75.0244141,3.9187089 75.4902344,3.5774003 75.4902344,3.5774003 L75.8623047,4.1672441 C75.8623047,4.1672441 75.2724609,4.6638261 74.3408203,4.6638261 C72.9121094,4.6638261 71.9501953,3.7014238 71.9501953,2.3659745 C71.9501953,1.0310136 72.9121094,0.0686112 74.3408203,0.0686112 C75.2412109,0.0686111 75.8007813,0.5031815 75.8007813,0.5031815 L75.8007813,0.5031815 Z"></path>
                    <path d="M76.5039063,2.801033 L76.5039063,0.1926346 L77.3730469,0.1926346 L77.3730469,2.801033 C77.3730469,3.4841385 77.8076172,3.9187088 78.491211,3.9187088 C79.1738282,3.9187088 79.6083985,3.4841385 79.6083985,2.801033 L79.6083985,0.1926346 L80.4785157,0.1926346 L80.4785157,2.801033 C80.4785157,3.8879471 79.7021485,4.663826 78.491211,4.663826 C77.2802735,4.663826 76.5039063,3.8879471 76.5039063,2.801033 L76.5039063,2.801033 Z"></path>
                    <path d="M81.4541016,0.1926346 L82.3232422,0.1926346 L82.3232422,3.8254471 L84.7763672,3.8254471 L84.7763672,4.5398026 L81.4541016,4.5398026 L81.4541016,0.1926346 L81.4541016,0.1926346 Z"></path>
                    <path d="M88.3496094,0.1926346 L88.3496094,0.9069901 L86.859375,0.9069901 L86.859375,4.5398026 L85.9902344,4.5398026 L85.9902344,0.9069901 L84.4990235,0.9069901 L84.4990235,0.1926346 L88.3496094,0.1926346 L88.3496094,0.1926346 Z"></path>
                    <path d="M88.9355469,2.801033 L88.9355469,0.1926346 L89.8046875,0.1926346 L89.8046875,2.801033 C89.8046875,3.4841385 90.2392578,3.9187088 90.9228516,3.9187088 C91.6054688,3.9187088 92.0400391,3.4841385 92.0400391,2.801033 L92.0400391,0.1926346 L92.9101563,0.1926346 L92.9101563,2.801033 C92.9101563,3.8879471 92.1337891,4.663826 90.9228516,4.663826 C89.7119141,4.663826 88.9355469,3.8879471 88.9355469,2.801033 L88.9355469,2.801033 Z"></path>
                    <path d="M95.8730469,0.1926346 C97.0527344,0.1926346 97.6738282,0.8137284 97.6738282,1.6208573 C97.6738282,2.5524979 96.8671876,2.8630448 96.8671876,2.8630448 L96.8671876,2.8942948 L98.0156251,4.5398026 L96.991211,4.5398026 L95.9658204,3.0490799 L94.7548829,3.0490799 L94.7548829,4.5398026 L93.8857423,4.5398026 L93.8857423,0.1926346 L95.8730469,0.1926346 L95.8730469,0.1926346 Z M95.8730469,0.9069901 L94.7548828,0.9069901 L94.7548828,2.3352128 L95.8730469,2.3352128 C96.4628907,2.3352128 96.7734375,1.9626542 96.7734375,1.6208573 C96.7734375,1.2170486 96.4628906,0.9069901 95.8730469,0.9069901 L95.8730469,0.9069901 Z"></path>
                    <path d="M102.842773,4.5398026 L101.911133,4.5398026 L101.569336,3.6701737 L99.4267578,3.6701737 L99.0849609,4.5398026 L98.1533203,4.5398026 L99.9541016,0.1926346 L101.041016,0.1926346 L102.842773,4.5398026 L102.842773,4.5398026 Z M99.7373047,2.9250565 L101.258789,2.9250565 L100.513672,1.1242752 L100.482422,1.1242752 L99.7373047,2.9250565 L99.7373047,2.9250565 Z"></path>
                    <path d="M103.396484,0.1926346 L104.265625,0.1926346 L104.265625,3.8254471 L106.71875,3.8254471 L106.71875,4.5398026 L103.396484,4.5398026 L103.396484,0.1926346 L103.396484,0.1926346 Z"></path>
                    <path d="M109.128906,0.1926346 L112.606445,0.1926346 L112.606445,0.9069901 L109.998047,0.9069901 L109.998047,2.0246659 L111.799805,2.0246659 L111.799805,2.7390214 L109.998047,2.7390214 L109.998047,3.8254472 L112.668945,3.8254472 L112.668945,4.5398027 L109.128906,4.5398027 L109.128906,0.1926346 L109.128906,0.1926346 Z"></path>
                    <path d="M113.887695,4.5398026 L112.832031,4.5398026 L114.477539,2.3039628 L113.018555,0.1926347 L114.074219,0.1926347 L115.098633,1.6828691 L115.129883,1.6828691 L116.154297,0.1926347 L117.209961,0.1926347 L115.750977,2.3039628 L117.396484,4.5398026 L116.34082,4.5398026 L115.129883,2.9250565 L115.098633,2.9250565 L113.887695,4.5398026 L113.887695,4.5398026 Z"></path>
                    <path d="M121.373047,0.5031815 L121,1.0930252 C121,1.0930252 120.552734,0.8137283 119.975586,0.8137283 C119.043945,0.8137283 118.422851,1.4348221 118.422851,2.3659744 C118.422851,3.297615 119.043945,3.9187088 119.975586,3.9187088 C120.59668,3.9187088 121.0625,3.5774002 121.0625,3.5774002 L121.43457,4.167244 C121.43457,4.167244 120.844727,4.663826 119.913086,4.663826 C118.484375,4.663826 117.522461,3.7014237 117.522461,2.3659744 C117.522461,1.0310135 118.484375,0.0686111 119.913086,0.0686111 C120.813477,0.0686111 121.373047,0.5031815 121.373047,0.5031815 L121.373047,0.5031815 Z"></path>
                    <path d="M126.075195,0.1926346 L126.075195,4.5398026 L125.206055,4.5398026 L125.206055,2.7390213 L122.969727,2.7390213 L122.969727,4.5398026 L122.100586,4.5398026 L122.100586,0.1926346 L122.969727,0.1926346 L122.969727,2.0246659 L125.206055,2.0246659 L125.206055,0.1926346 L126.075195,0.1926346 L126.075195,0.1926346 Z"></path>
                    <path d="M131.318359,4.5398026 L130.386719,4.5398026 L130.044922,3.6701737 L127.902344,3.6701737 L127.560547,4.5398026 L126.628906,4.5398026 L128.429688,0.1926346 L129.516602,0.1926346 L131.318359,4.5398026 L131.318359,4.5398026 Z M128.212891,2.9250565 L129.734375,2.9250565 L128.989258,1.1242752 L128.958008,1.1242752 L128.212891,2.9250565 L128.212891,2.9250565 Z"></path>
                    <path d="M134.977539,3.1735916 L134.977539,0.1926346 L135.84668,0.1926346 L135.84668,4.5398026 L134.915039,4.5398026 L132.772461,1.5588456 L132.741211,1.5588456 L132.741211,4.5398026 L131.87207,4.5398026 L131.87207,0.1926346 L132.803711,0.1926346 L134.946289,3.1735916 L134.977539,3.1735916 L134.977539,3.1735916 Z"></path>
                    <path d="M140.417969,0.5031815 L140.044922,1.0930253 C140.044922,1.0930253 139.597656,0.8137284 139.020508,0.8137284 C138.088867,0.8137284 137.467773,1.4348222 137.467773,2.3659745 C137.467773,3.2976151 138.088867,3.9187089 139.020508,3.9187089 C139.455078,3.9187089 139.765625,3.7634355 139.765625,3.7634355 L139.765625,2.7390214 L138.865234,2.7390214 L138.865234,2.0246659 L140.634766,2.0246659 L140.634766,4.123787 C140.634766,4.123787 139.952149,4.6638261 138.958008,4.6638261 C137.560547,4.6638261 136.598633,3.7014238 136.598633,2.3659745 C136.598633,1.0310136 137.560547,0.0686112 138.958008,0.0686112 C139.858398,0.0686111 140.417969,0.5031815 140.417969,0.5031815 L140.417969,0.5031815 Z"></path>
                    <path d="M141.5,0.1926346 L144.977539,0.1926346 L144.977539,0.9069901 L142.369141,0.9069901 L142.369141,2.0246659 L144.170898,2.0246659 L144.170898,2.7390214 L142.369141,2.7390214 L142.369141,3.8254472 L145.040039,3.8254472 L145.040039,4.5398027 L141.5,4.5398027 L141.5,0.1926346 L141.5,0.1926346 Z"></path>
                </g>
                <path d="M42.0672112,50.4577827 L49.3775444,50.4577827 L49.3775444,29.0108128 L42.0672112,27.5480156 L42.0672112,50.4577827 Z" id="Shape" fill="#F9A01B"></path>
                <path d="M102.947136,50.4577847 L95.6368102,50.4577847 L95.6368102,29.0108128 L102.947136,27.5480156 L102.947136,50.4577847 Z" id="Shape" fill="#F9A01B"></path>
                <path d="M68.4597931,19.2356873 L42.0673637,50.4317932 L53.0266953,50.4317932 L72.1259995,27.9535313 L72.8882599,27.9535313 L91.9878006,50.4317932 L102.947136,50.4317932 L76.5547028,19.2356873 L68.4597931,19.2356873 Z" id="Shape" fill="#4D4D4F"></path>
            </g>
        </g>
    </g>
</svg>