<?xml version="1.0" encoding="UTF-8" standalone="no"?>
<svg width="180px" height="97px" viewBox="0 0 180 97" version="1.1" xmlns="http://www.w3.org/2000/svg" xmlns:xlink="http://www.w3.org/1999/xlink" xmlns:sketch="http://www.bohemiancoding.com/sketch/ns">
    <!-- Generator: Sketch 3.2.2 (9983) - http://www.bohemiancoding.com/sketch -->
    <title>agrofor_en</title>
    <desc>Created with Sketch.</desc>
    <defs></defs>
    <g id="Page-1" stroke="none" stroke-width="1" fill="none" fill-rule="evenodd" sketch:type="MSPage">
        <g id="text" sketch:type="MSLayerGroup" transform="translate(6.000000, -63.000000)" fill="#4D4D4F">
            <path d="M41.1405802,129.176878 L37.4328027,129.176878 L31.2884857,144.007988 L34.4665807,144.007988 L35.6318822,141.041766 L42.9415007,141.041766 L44.1068022,144.007988 L47.2848972,144.007988 L41.1405802,129.176878 Z M39.2337232,132.354973 L39.3396597,132.354973 L41.8821357,138.49929 L36.6912472,138.49929 L39.2337232,132.354973 Z M54.9123252,128.753132 C50.1451827,128.753132 46.8611512,132.037164 46.8611512,136.592433 C46.8611512,141.147703 50.1451827,144.431734 54.9123252,144.431734 C58.3022932,144.431734 60.6328962,142.588439 60.6328962,142.588439 L60.6328962,135.427132 L54.5945157,135.427132 L54.5945157,137.863671 L57.6666742,137.863671 L57.6666742,141.359576 C57.6666742,141.359576 56.6073092,141.889258 55.1241982,141.889258 C51.9461032,141.889258 49.8273732,139.770528 49.8273732,136.592433 C49.8273732,133.414338 51.9461032,131.295608 55.1241982,131.295608 C57.0946171,131.295608 58.6201027,132.249037 58.6201027,132.249037 L59.8913407,130.236243 C59.8913407,130.236243 57.9844837,128.753132 54.9123252,128.753132 L54.9123252,128.753132 Z M62.5397531,129.176878 L62.5397531,144.007988 L65.5059751,144.007988 L65.5059751,138.923036 L69.6374986,138.923036 L73.1334031,144.007988 L76.6293076,144.007988 L72.7096571,138.393354 L72.7096571,138.287417 C72.7096571,138.287417 75.4640061,137.228052 75.4640061,134.049957 C75.4640061,131.295608 73.3452761,129.176878 69.3196891,129.176878 L62.5397531,129.176878 Z M72.3918476,134.049957 C72.3918476,135.215259 71.3324826,136.486497 69.3196891,136.486497 L65.5059751,136.486497 L65.5059751,131.613418 L69.3196891,131.613418 C71.3324826,131.613418 72.3918476,132.672783 72.3918476,134.049957 L72.3918476,134.049957 Z M76.7352441,136.592433 C76.7352441,141.147703 80.0192756,144.431734 84.6804816,144.431734 C89.3416876,144.431734 92.6257191,141.147703 92.6257191,136.592433 C92.6257191,132.037164 89.3416876,128.753132 84.6804816,128.753132 C80.0192756,128.753132 76.7352441,132.037164 76.7352441,136.592433 L76.7352441,136.592433 Z M89.5535606,136.592433 C89.5535606,139.770528 87.4348306,141.889258 84.6804816,141.889258 C81.9261326,141.889258 79.8074026,139.770528 79.8074026,136.592433 C79.8074026,133.414338 81.9261326,131.295608 84.6804816,131.295608 C87.4348306,131.295608 89.5535606,133.414338 89.5535606,136.592433 L89.5535606,136.592433 Z M94.1512047,144.007988 L97.1174267,144.007988 L97.1174267,138.49929 L103.261744,138.49929 L103.261744,136.083938 L97.1174267,136.083938 L97.1174267,131.613418 L106.016093,131.613418 L106.016093,129.176878 L94.1512047,129.176878 L94.1512047,144.007988 Z M105.783032,136.592433 C105.783032,141.147703 109.067064,144.431734 113.72827,144.431734 C118.389476,144.431734 121.673507,141.147703 121.673507,136.592433 C121.673507,132.037164 118.389476,128.753132 113.72827,128.753132 C109.067064,128.753132 105.783032,132.037164 105.783032,136.592433 L105.783032,136.592433 Z M118.601349,136.592433 C118.601349,139.770528 116.482619,141.889258 113.72827,141.889258 C110.973921,141.889258 108.855191,139.770528 108.855191,136.592433 C108.855191,133.414338 110.973921,131.295608 113.72827,131.295608 C116.482619,131.295608 118.601349,133.414338 118.601349,136.592433 L118.601349,136.592433 Z M123.198993,129.176878 L123.198993,144.007988 L126.165215,144.007988 L126.165215,138.923036 L130.296738,138.923036 L133.792643,144.007988 L137.288547,144.007988 L133.368897,138.393354 L133.368897,138.287417 C133.368897,138.287417 136.123246,137.228052 136.123246,134.049957 C136.123246,131.295608 134.004516,129.176878 129.978929,129.176878 L123.198993,129.176878 Z M133.051087,134.049957 C133.051087,135.215259 131.991722,136.486497 129.978929,136.486497 L126.165215,136.486497 L126.165215,131.613418 L129.978929,131.613418 C131.991722,131.613418 133.051087,132.672783 133.051087,134.049957 L133.051087,134.049957 Z" id="AGROFOR" sketch:type="MSShapeGroup"></path>
            <path d="M1.613291,152.582923 L0.609351,152.582923 L0.609351,157.602623 L1.613291,157.602623 L1.613291,152.582923 Z M6.324638,156.025003 L3.850643,152.582923 L2.774993,152.582923 L2.774993,157.602623 L3.778933,157.602623 L3.778933,154.160543 L3.814788,154.160543 L6.288783,157.602623 L7.364433,157.602623 L7.364433,152.582923 L6.360493,152.582923 L6.360493,156.025003 L6.324638,156.025003 Z M8.074362,152.582923 L8.074362,153.407588 L9.795402,153.407588 L9.795402,157.602623 L10.799342,157.602623 L10.799342,153.407588 L12.520382,153.407588 L12.520382,152.582923 L8.074362,152.582923 Z M13.230311,157.602623 L17.317781,157.602623 L17.317781,156.777958 L14.234251,156.777958 L14.234251,155.523033 L16.313841,155.523033 L16.313841,154.698368 L14.234251,154.698368 L14.234251,153.407588 L17.246071,153.407588 L17.246071,152.582923 L13.230311,152.582923 L13.230311,157.602623 Z M18.092249,152.582923 L18.092249,157.602623 L19.096189,157.602623 L19.096189,155.881583 L20.494534,155.881583 L21.677749,157.602623 L22.860964,157.602623 L21.534329,155.702308 L21.534329,155.666453 C21.534329,155.666453 22.466559,155.307903 22.466559,154.232253 C22.466559,153.300023 21.749459,152.582923 20.386969,152.582923 L18.092249,152.582923 Z M21.426764,154.232253 C21.426764,154.626658 21.068214,155.056918 20.386969,155.056918 L19.096189,155.056918 L19.096189,153.407588 L20.386969,153.407588 C21.068214,153.407588 21.426764,153.766138 21.426764,154.232253 L21.426764,154.232253 Z M27.091854,156.025003 L24.617859,152.582923 L23.542209,152.582923 L23.542209,157.602623 L24.546149,157.602623 L24.546149,154.160543 L24.582004,154.160543 L27.055999,157.602623 L28.131649,157.602623 L28.131649,152.582923 L27.127709,152.582923 L27.127709,156.025003 L27.091854,156.025003 Z M32.111554,152.582923 L30.856629,152.582923 L28.777039,157.602623 L29.852689,157.602623 L30.247094,156.598683 L32.721089,156.598683 L33.115494,157.602623 L34.191144,157.602623 L32.111554,152.582923 Z M31.466164,153.658573 L31.502019,153.658573 L32.362539,155.738163 L30.605644,155.738163 L31.466164,153.658573 Z M33.5249581,152.582923 L33.5249581,153.407588 L35.2459981,153.407588 L35.2459981,157.602623 L36.2499381,157.602623 L36.2499381,153.407588 L37.9709781,153.407588 L37.9709781,152.582923 L33.5249581,152.582923 Z M39.6848471,152.582923 L38.6809071,152.582923 L38.6809071,157.602623 L39.6848471,157.602623 L39.6848471,152.582923 Z M40.5597091,155.092773 C40.5597091,156.634538 41.6712141,157.746043 43.2488341,157.746043 C44.8264541,157.746043 45.9379591,156.634538 45.9379591,155.092773 C45.9379591,153.551008 44.8264541,152.439503 43.2488341,152.439503 C41.6712141,152.439503 40.5597091,153.551008 40.5597091,155.092773 L40.5597091,155.092773 Z M44.8981641,155.092773 C44.8981641,156.168423 44.1810641,156.885523 43.2488341,156.885523 C42.3166041,156.885523 41.5995041,156.168423 41.5995041,155.092773 C41.5995041,154.017123 42.3166041,153.300023 43.2488341,153.300023 C44.1810641,153.300023 44.8981641,154.017123 44.8981641,155.092773 L44.8981641,155.092773 Z M50.3624661,156.025003 L47.8884711,152.582923 L46.8128211,152.582923 L46.8128211,157.602623 L47.8167611,157.602623 L47.8167611,154.160543 L47.8526161,154.160543 L50.3266111,157.602623 L51.4022611,157.602623 L51.4022611,152.582923 L50.3983211,152.582923 L50.3983211,156.025003 L50.3624661,156.025003 Z M55.3821661,152.582923 L54.1272411,152.582923 L52.0476511,157.602623 L53.1233011,157.602623 L53.5177061,156.598683 L55.9917011,156.598683 L56.3861061,157.602623 L57.4617561,157.602623 L55.3821661,152.582923 Z M54.7367761,153.658573 L54.7726311,153.658573 L55.6331511,155.738163 L53.8762561,155.738163 L54.7367761,153.658573 Z M58.1071461,157.602623 L61.9436311,157.602623 L61.9436311,156.777958 L59.1110861,156.777958 L59.1110861,152.582923 L58.1071461,152.582923 L58.1071461,157.602623 Z M67.5513531,152.582923 L66.2964281,152.582923 L64.2168381,157.602623 L65.2924881,157.602623 L65.6868931,156.598683 L68.1608881,156.598683 L68.5552931,157.602623 L69.6309431,157.602623 L67.5513531,152.582923 Z M66.9059631,153.658573 L66.9418181,153.658573 L67.8023381,155.738163 L66.0454431,155.738163 L66.9059631,153.658573 Z M72.7144731,152.439503 C71.1009981,152.439503 69.9894931,153.551008 69.9894931,155.092773 C69.9894931,156.634538 71.1009981,157.746043 72.7144731,157.746043 C73.8618331,157.746043 74.6506431,157.122166 74.6506431,157.122166 L74.6506431,154.698368 L72.6069081,154.698368 L72.6069081,155.523033 L73.6467031,155.523033 L73.6467031,156.706248 C73.6467031,156.706248 73.2881531,156.885523 72.7861831,156.885523 C71.7105331,156.885523 70.9934331,156.168423 70.9934331,155.092773 C70.9934331,154.017123 71.7105331,153.300023 72.7861831,153.300023 C73.4530861,153.300023 73.9693981,153.622718 73.9693981,153.622718 L74.3996581,152.941473 C74.3996581,152.941473 73.7542681,152.439503 72.7144731,152.439503 L72.7144731,152.439503 Z M75.6545831,152.582923 L75.6545831,157.602623 L76.6585231,157.602623 L76.6585231,155.881583 L78.0568681,155.881583 L79.2400831,157.602623 L80.4232981,157.602623 L79.0966631,155.702308 L79.0966631,155.666453 C79.0966631,155.666453 80.0288931,155.307903 80.0288931,154.232253 C80.0288931,153.300023 79.3117931,152.582923 77.9493031,152.582923 L75.6545831,152.582923 Z M78.9890981,154.232253 C78.9890981,154.626658 78.6305481,155.056918 77.9493031,155.056918 L76.6585231,155.056918 L76.6585231,153.407588 L77.9493031,153.407588 C78.6305481,153.407588 78.9890981,153.766138 78.9890981,154.232253 L78.9890981,154.232253 Z M82.1084831,152.582923 L81.1045431,152.582923 L81.1045431,157.602623 L82.1084831,157.602623 L82.1084831,152.582923 Z M85.7441801,152.439503 C84.0948501,152.439503 82.9833451,153.551008 82.9833451,155.092773 C82.9833451,156.634538 84.0948501,157.746043 85.7441801,157.746043 C86.8198301,157.746043 87.5010751,157.172363 87.5010751,157.172363 L87.0708151,156.491118 C87.0708151,156.491118 86.5329901,156.885523 85.8158901,156.885523 C84.7402401,156.885523 84.0231401,156.168423 84.0231401,155.092773 C84.0231401,154.017123 84.7402401,153.300023 85.8158901,153.300023 C86.4827931,153.300023 86.9991051,153.622718 86.9991051,153.622718 L87.4293651,152.941473 C87.4293651,152.941473 86.7839751,152.439503 85.7441801,152.439503 L85.7441801,152.439503 Z M90.5415791,157.746043 C91.9399241,157.746043 92.8362991,156.849668 92.8362991,155.594743 L92.8362991,152.582923 L91.8323591,152.582923 L91.8323591,155.594743 C91.8323591,156.383553 91.3303891,156.885523 90.5415791,156.885523 C89.7527691,156.885523 89.2507991,156.383553 89.2507991,155.594743 L89.2507991,152.582923 L88.2468591,152.582923 L88.2468591,155.594743 C88.2468591,156.849668 89.1432341,157.746043 90.5415791,157.746043 L90.5415791,157.746043 Z M93.9693171,157.602623 L97.8058021,157.602623 L97.8058021,156.777958 L94.9732571,156.777958 L94.9732571,152.582923 L93.9693171,152.582923 L93.9693171,157.602623 Z M97.4902781,152.582923 L97.4902781,153.407588 L99.2113181,153.407588 L99.2113181,157.602623 L100.215258,157.602623 L100.215258,153.407588 L101.936298,153.407588 L101.936298,152.582923 L97.4902781,152.582923 Z M104.912263,157.746043 C106.310608,157.746043 107.206983,156.849668 107.206983,155.594743 L107.206983,152.582923 L106.203043,152.582923 L106.203043,155.594743 C106.203043,156.383553 105.701073,156.885523 104.912263,156.885523 C104.123453,156.885523 103.621483,156.383553 103.621483,155.594743 L103.621483,152.582923 L102.617543,152.582923 L102.617543,155.594743 C102.617543,156.849668 103.513918,157.746043 104.912263,157.746043 L104.912263,157.746043 Z M108.340001,152.582923 L108.340001,157.602623 L109.343941,157.602623 L109.343941,155.881583 L110.742286,155.881583 L111.925501,157.602623 L113.108716,157.602623 L111.782081,155.702308 L111.782081,155.666453 C111.782081,155.666453 112.714311,155.307903 112.714311,154.232253 C112.714311,153.300023 111.997211,152.582923 110.634721,152.582923 L108.340001,152.582923 Z M111.674516,154.232253 C111.674516,154.626658 111.315966,155.056918 110.634721,155.056918 L109.343941,155.056918 L109.343941,153.407588 L110.634721,153.407588 C111.315966,153.407588 111.674516,153.766138 111.674516,154.232253 L111.674516,154.232253 Z M116.608164,152.582923 L115.353239,152.582923 L113.273649,157.602623 L114.349299,157.602623 L114.743704,156.598683 L117.217699,156.598683 L117.612104,157.602623 L118.687754,157.602623 L116.608164,152.582923 Z M115.962774,153.658573 L115.998629,153.658573 L116.859149,155.738163 L115.102254,155.738163 L115.962774,153.658573 Z M119.333144,157.602623 L123.169629,157.602623 L123.169629,156.777958 L120.337084,156.777958 L120.337084,152.582923 L119.333144,152.582923 L119.333144,157.602623 Z M125.959148,157.602623 L130.046618,157.602623 L130.046618,156.777958 L126.963088,156.777958 L126.963088,155.523033 L129.042678,155.523033 L129.042678,154.698368 L126.963088,154.698368 L126.963088,153.407588 L129.974908,153.407588 L129.974908,152.582923 L125.959148,152.582923 L125.959148,157.602623 Z M132.85765,155.738163 L132.893505,155.738163 L134.29185,157.602623 L135.51092,157.602623 L133.610605,155.021063 L135.29579,152.582923 L134.07672,152.582923 L132.893505,154.303963 L132.85765,154.303963 L131.674435,152.582923 L130.455365,152.582923 L132.14055,155.021063 L130.240235,157.602623 L131.459305,157.602623 L132.85765,155.738163 Z M138.422346,152.439503 C136.773016,152.439503 135.661511,153.551008 135.661511,155.092773 C135.661511,156.634538 136.773016,157.746043 138.422346,157.746043 C139.497996,157.746043 140.179241,157.172363 140.179241,157.172363 L139.748981,156.491118 C139.748981,156.491118 139.211156,156.885523 138.494056,156.885523 C137.418406,156.885523 136.701306,156.168423 136.701306,155.092773 C136.701306,154.017123 137.418406,153.300023 138.494056,153.300023 C139.160959,153.300023 139.677271,153.622718 139.677271,153.622718 L140.107531,152.941473 C140.107531,152.941473 139.462141,152.439503 138.422346,152.439503 L138.422346,152.439503 Z M144.539209,152.582923 L144.539209,154.698368 L141.957649,154.698368 L141.957649,152.582923 L140.953709,152.582923 L140.953709,157.602623 L141.957649,157.602623 L141.957649,155.523033 L144.539209,155.523033 L144.539209,157.602623 L145.543149,157.602623 L145.543149,152.582923 L144.539209,152.582923 Z M149.523054,152.582923 L148.268129,152.582923 L146.188539,157.602623 L147.264189,157.602623 L147.658594,156.598683 L150.132589,156.598683 L150.526994,157.602623 L151.602644,157.602623 L149.523054,152.582923 Z M148.877664,153.658573 L148.913519,153.658573 L149.774039,155.738163 L148.017144,155.738163 L148.877664,153.658573 Z M155.797679,156.025003 L153.323684,152.582923 L152.248034,152.582923 L152.248034,157.602623 L153.251974,157.602623 L153.251974,154.160543 L153.287829,154.160543 L155.761824,157.602623 L156.837474,157.602623 L156.837474,152.582923 L155.833534,152.582923 L155.833534,156.025003 L155.797679,156.025003 Z M160.437316,152.439503 C158.823841,152.439503 157.712336,153.551008 157.712336,155.092773 C157.712336,156.634538 158.823841,157.746043 160.437316,157.746043 C161.584676,157.746043 162.373486,157.122166 162.373486,157.122166 L162.373486,154.698368 L160.329751,154.698368 L160.329751,155.523033 L161.369546,155.523033 L161.369546,156.706248 C161.369546,156.706248 161.010996,156.885523 160.509026,156.885523 C159.433376,156.885523 158.716276,156.168423 158.716276,155.092773 C158.716276,154.017123 159.433376,153.300023 160.509026,153.300023 C161.175929,153.300023 161.692241,153.622718 161.692241,153.622718 L162.122501,152.941473 C162.122501,152.941473 161.477111,152.439503 160.437316,152.439503 L160.437316,152.439503 Z M163.377426,157.602623 L167.464896,157.602623 L167.464896,156.777958 L164.381366,156.777958 L164.381366,155.523033 L166.460956,155.523033 L166.460956,154.698368 L164.381366,154.698368 L164.381366,153.407588 L167.393186,153.407588 L167.393186,152.582923 L163.377426,152.582923 L163.377426,157.602623 Z" id="International-Agricultural-Exchange" sketch:type="MSShapeGroup"></path>
        </g>
        <g id="ЂЃ£Ѓ-†£аЃ" sketch:type="MSLayerGroup" transform="translate(54.000000, -128.000000)">
            <path d="M44.1475,128.513 L27.9665,128.513 L0.8715,160.326 L0.8715,186.807 L9.3215,186.807 L9.3215,162.017 L31.2905,136.034 L40.8375,136.034 L62.7955,162.017 L62.7955,186.807 L71.2425,186.807 L71.2425,160.326 L44.1475,128.513" id="Fill-5" fill="#F5B827" sketch:type="MSShapeGroup"></path>
            <path d="M0.8715,186.837 L9.3215,186.837 L9.3215,162.047 L0.8715,160.356 L0.8715,186.837" id="Fill-6" fill="#ED992D" sketch:type="MSShapeGroup"></path>
            <path d="M71.2425,186.837 L62.7925,186.837 L62.7925,162.047 L71.2425,160.356 L71.2425,186.837" id="Fill-7" fill="#ED992D" sketch:type="MSShapeGroup"></path>
            <path d="M31.3785,150.748 L0.8715,186.807 L13.5395,186.807 L35.6165,160.825 L36.4975,160.825 L58.5745,186.807 L71.2425,186.807 L40.7355,150.748 L31.3785,150.748" id="Fill-8" fill="#4D4D4F" sketch:type="MSShapeGroup"></path>
        </g>
    </g>
</svg>