<?xml version="1.0" encoding="UTF-8" standalone="no"?>
<svg width="180px" height="97px" viewBox="0 0 180 97" version="1.1" xmlns="http://www.w3.org/2000/svg" xmlns:xlink="http://www.w3.org/1999/xlink" xmlns:sketch="http://www.bohemiancoding.com/sketch/ns">
    <!-- Generator: Sketch 3.2.2 (9983) - http://www.bohemiancoding.com/sketch -->
    <title>agrofor_ru</title>
    <desc>Created with Sketch.</desc>
    <defs></defs>
    <g id="Page-1" stroke="none" stroke-width="1" fill="none" fill-rule="evenodd" sketch:type="MSPage">
        <g id="text" sketch:type="MSLayerGroup" transform="translate(7.000000, 65.000000)" fill="#4D4D4F">
            <path d="M35.0466802,1.17667848 L31.3389027,1.17667848 L25.1945857,16.0077885 L28.3726807,16.0077885 L29.5379822,13.0415665 L36.8476007,13.0415665 L38.0129022,16.0077885 L41.1909972,16.0077885 L35.0466802,1.17667848 Z M33.1398232,4.35477348 L33.2457597,4.35477348 L35.7882357,10.4990905 L30.5973472,10.4990905 L33.1398232,4.35477348 Z M43.0978542,16.0077885 L46.0640762,16.0077885 L46.0640762,3.61321798 L54.2211867,3.61321798 L54.2211867,1.17667848 L43.0978542,1.17667848 L43.0978542,16.0077885 Z M56.1280437,1.17667848 L56.1280437,16.0077885 L59.0942657,16.0077885 L59.0942657,11.3465825 L62.9079797,11.3465825 C67.0395032,11.3465825 69.2641697,9.12191598 69.2641697,6.26163048 C69.2641697,3.40134498 67.0395032,1.17667848 62.9079797,1.17667848 L56.1280437,1.17667848 Z M62.9079797,3.61321798 C64.9207732,3.61321798 66.1920112,4.88445598 66.1920112,6.26163048 C66.1920112,7.63880498 64.9207732,8.91004298 62.9079797,8.91004298 L59.0942657,8.91004298 L59.0942657,3.61321798 L62.9079797,3.61321798 Z M70.8108426,8.59223348 C70.8108426,13.147503 74.0948741,16.4315345 78.7560801,16.4315345 C83.4172861,16.4315345 86.7013176,13.147503 86.7013176,8.59223348 C86.7013176,4.03696398 83.4172861,0.752932477 78.7560801,0.752932477 C74.0948741,0.752932477 70.8108426,4.03696398 70.8108426,8.59223348 L70.8108426,8.59223348 Z M83.6291591,8.59223348 C83.6291591,11.7703285 81.5104291,13.8890585 78.7560801,13.8890585 C76.0017311,13.8890585 73.8830011,11.7703285 73.8830011,8.59223348 C73.8830011,5.41413848 76.0017311,3.29540848 78.7560801,3.29540848 C81.5104291,3.29540848 83.6291591,5.41413848 83.6291591,8.59223348 L83.6291591,8.59223348 Z M99.371323,0.541059477 L96.405101,0.541059477 L96.405101,2.13010698 C91.0023395,2.44791648 88.2479905,5.20226548 88.2479905,8.59223348 C88.2479905,11.9822015 91.0023395,14.7365505 96.405101,15.05436 L96.405101,16.6434075 L99.371323,16.6434075 L99.371323,15.05436 C104.774084,14.7365505 107.528433,11.9822015 107.528433,8.59223348 C107.528433,5.20226548 104.774084,2.44791648 99.371323,2.13010698 L99.371323,0.541059477 Z M99.371323,4.67258298 C102.761291,4.77851948 104.456275,6.47350348 104.456275,8.59223348 C104.456275,10.7109635 102.761291,12.4059475 99.371323,12.511884 L99.371323,4.67258298 Z M96.405101,12.511884 C93.015133,12.4059475 91.320149,10.7109635 91.320149,8.59223348 C91.320149,6.47350348 93.015133,4.77851948 96.405101,4.67258298 L96.405101,12.511884 Z M109.498852,8.59223348 C109.498852,13.147503 112.782884,16.4315345 117.44409,16.4315345 C122.105296,16.4315345 125.389327,13.147503 125.389327,8.59223348 C125.389327,4.03696398 122.105296,0.752932477 117.44409,0.752932477 C112.782884,0.752932477 109.498852,4.03696398 109.498852,8.59223348 L109.498852,8.59223348 Z M122.317169,8.59223348 C122.317169,11.7703285 120.198439,13.8890585 117.44409,13.8890585 C114.689741,13.8890585 112.571011,11.7703285 112.571011,8.59223348 C112.571011,5.41413848 114.689741,3.29540848 117.44409,3.29540848 C120.198439,3.29540848 122.317169,5.41413848 122.317169,8.59223348 L122.317169,8.59223348 Z M127.974178,1.17667848 L127.974178,16.0077885 L130.9404,16.0077885 L130.9404,11.3465825 L134.754114,11.3465825 C138.885637,11.3465825 141.110304,9.12191598 141.110304,6.26163048 C141.110304,3.40134498 138.885637,1.17667848 134.754114,1.17667848 L127.974178,1.17667848 Z M134.754114,3.61321798 C136.766907,3.61321798 138.038145,4.88445598 138.038145,6.26163048 C138.038145,7.63880498 136.766907,8.91004298 134.754114,8.91004298 L130.9404,8.91004298 L130.9404,3.61321798 L134.754114,3.61321798 Z" id="АГРОФОР" sketch:type="MSShapeGroup"></path>
            <path d="M10.871889,28.8852231 L12.126814,26.1960981 L12.162669,26.1960981 L12.557074,29.6023231 L13.596869,29.6023231 L12.987334,24.5826231 L11.875829,24.5826231 L10.441629,27.7020081 L10.405774,27.7020081 L8.971574,24.5826231 L7.860069,24.5826231 L7.250534,29.6023231 L8.290329,29.6023231 L8.684734,26.1960981 L8.720589,26.1960981 L9.975514,28.8852231 L10.871889,28.8852231 Z M14.564954,29.6023231 L18.652424,29.6023231 L18.652424,28.7776581 L15.568894,28.7776581 L15.568894,27.5227331 L17.648484,27.5227331 L17.648484,26.6980681 L15.568894,26.6980681 L15.568894,25.4072881 L18.580714,25.4072881 L18.580714,24.5826231 L14.564954,24.5826231 L14.564954,29.6023231 Z M20.34478,24.5826231 L19.304985,24.5826231 L19.663535,25.8734031 C19.971888,26.9849081 20.55991,27.1641831 20.55991,27.1641831 L20.55991,27.2000381 L18.91058,29.6023231 L20.093795,29.6023231 L21.56385,27.4510231 L22.460225,27.4510231 L22.460225,29.6023231 L23.464165,29.6023231 L23.464165,27.4510231 L24.36054,27.4510231 L25.830595,29.6023231 L27.01381,29.6023231 L25.36448,27.2000381 L25.36448,27.1641831 C25.36448,27.1641831 25.952502,26.9849081 26.260855,25.8734031 L26.619405,24.5826231 L25.57961,24.5826231 L25.22106,25.8734031 C25.099153,26.3036631 24.7908,26.6263581 24.21712,26.6263581 L23.464165,26.6263581 L23.464165,24.5826231 L22.460225,24.5826231 L22.460225,26.6263581 L21.70727,26.6263581 C21.13359,26.6263581 20.825237,26.3036631 20.70333,25.8734031 L20.34478,24.5826231 Z M28.404984,24.5826231 L28.010579,27.7737181 C27.931698,28.4191081 27.580319,28.7776581 27.150059,28.7776581 L27.078349,28.7776581 L27.078349,30.6779731 L28.082289,30.6779731 L28.082289,29.6023231 L31.667789,29.6023231 L31.667789,30.6779731 L32.671729,30.6779731 L32.671729,28.7776581 L32.026339,28.7776581 L32.026339,24.5826231 L28.404984,24.5826231 Z M29.050374,27.7737181 L29.337214,25.4072881 L31.022399,25.4072881 L31.022399,28.7776581 L28.584259,28.7776581 L28.584259,28.7418031 C28.584259,28.7418031 29.014519,28.3115431 29.050374,27.7737181 L29.050374,27.7737181 Z M34.47165,29.6023231 L35.583155,29.6023231 L37.949585,24.5826231 L36.83808,24.5826231 L35.47559,27.4868781 L35.40388,27.4868781 L34.04139,24.5826231 L32.929885,24.5826231 L34.68678,28.2398331 L35.109869,28.2398331 L34.47165,29.6023231 Z M42.402776,24.5826231 L42.402776,26.6980681 L39.821216,26.6980681 L39.821216,24.5826231 L38.817276,24.5826231 L38.817276,29.6023231 L39.821216,29.6023231 L39.821216,27.5227331 L42.402776,27.5227331 L42.402776,29.6023231 L43.406716,29.6023231 L43.406716,24.5826231 L42.402776,24.5826231 Z M47.386621,24.5826231 L46.131696,24.5826231 L44.052106,29.6023231 L45.127756,29.6023231 L45.522161,28.5983831 L47.996156,28.5983831 L48.390561,29.6023231 L49.466211,29.6023231 L47.386621,24.5826231 Z M46.741231,25.6582731 L46.777086,25.6582731 L47.637606,27.7378631 L45.880711,27.7378631 L46.741231,25.6582731 Z M50.111601,24.5826231 L50.111601,29.6023231 L51.115541,29.6023231 L51.115541,28.0247031 L52.406321,28.0247031 C53.804666,28.0247031 54.557621,27.2717481 54.557621,26.3036631 C54.557621,25.3355781 53.804666,24.5826231 52.406321,24.5826231 L50.111601,24.5826231 Z M52.406321,25.4072881 C53.087566,25.4072881 53.517826,25.8375481 53.517826,26.3036631 C53.517826,26.7697781 53.087566,27.2000381 52.406321,27.2000381 L51.115541,27.2000381 L51.115541,25.4072881 L52.406321,25.4072881 Z M54.507424,27.0924731 C54.507424,28.6342381 55.618929,29.7457431 57.196549,29.7457431 C58.774169,29.7457431 59.885674,28.6342381 59.885674,27.0924731 C59.885674,25.5507081 58.774169,24.4392031 57.196549,24.4392031 C55.618929,24.4392031 54.507424,25.5507081 54.507424,27.0924731 L54.507424,27.0924731 Z M58.845879,27.0924731 C58.845879,28.1681231 58.128779,28.8852231 57.196549,28.8852231 C56.264319,28.8852231 55.547219,28.1681231 55.547219,27.0924731 C55.547219,26.0168231 56.264319,25.2997231 57.196549,25.2997231 C58.128779,25.2997231 58.845879,26.0168231 58.845879,27.0924731 L58.845879,27.0924731 Z M61.2187629,24.5826231 L60.8243579,27.7737181 C60.7454769,28.4191081 60.3940979,28.7776581 59.9638379,28.7776581 L59.8921279,28.7776581 L59.8921279,30.6779731 L60.8960679,30.6779731 L60.8960679,29.6023231 L64.4815679,29.6023231 L64.4815679,30.6779731 L65.4855079,30.6779731 L65.4855079,28.7776581 L64.8401179,28.7776581 L64.8401179,24.5826231 L61.2187629,24.5826231 Z M61.8641529,27.7737181 L62.1509929,25.4072881 L63.8361779,25.4072881 L63.8361779,28.7776581 L61.3980379,28.7776581 L61.3980379,28.7418031 C61.3980379,28.7418031 61.8282979,28.3115431 61.8641529,27.7737181 L61.8641529,27.7737181 Z M69.559353,24.5826231 L69.559353,26.6980681 L66.977793,26.6980681 L66.977793,24.5826231 L65.973853,24.5826231 L65.973853,29.6023231 L66.977793,29.6023231 L66.977793,27.5227331 L69.559353,27.5227331 L69.559353,29.6023231 L70.563293,29.6023231 L70.563293,24.5826231 L69.559353,24.5826231 Z M74.543198,24.5826231 L73.288273,24.5826231 L71.208683,29.6023231 L72.284333,29.6023231 L72.678738,28.5983831 L75.152733,28.5983831 L75.547138,29.6023231 L76.622788,29.6023231 L74.543198,24.5826231 Z M73.897808,25.6582731 L73.933663,25.6582731 L74.794183,27.7378631 L73.037288,27.7378631 L73.897808,25.6582731 Z M79.225861,24.5826231 C77.820345,24.5826231 77.146271,25.2638681 77.146271,26.2319531 C77.146271,27.3793131 78.150211,27.6661531 78.150211,27.6661531 L78.150211,27.7020081 L76.787721,29.6023231 L77.935081,29.6023231 L79.154151,27.8812831 L80.552496,27.8812831 L80.552496,29.6023231 L81.556436,29.6023231 L81.556436,24.5826231 L79.225861,24.5826231 Z M78.186066,26.2319531 C78.186066,25.7658381 78.544616,25.4072881 79.225861,25.4072881 L80.552496,25.4072881 L80.552496,27.0566181 L79.225861,27.0566181 C78.544616,27.0566181 78.186066,26.6263581 78.186066,26.2319531 L78.186066,26.2319531 Z M87.615931,24.5826231 L86.361006,24.5826231 L84.281416,29.6023231 L85.357066,29.6023231 L85.751471,28.5983831 L88.225466,28.5983831 L88.619871,29.6023231 L89.695521,29.6023231 L87.615931,24.5826231 Z M86.970541,25.6582731 L87.006396,25.6582731 L87.866916,27.7378631 L86.110021,27.7378631 L86.970541,25.6582731 Z M90.340911,29.6023231 L91.344851,29.6023231 L91.344851,25.4072881 L94.105686,25.4072881 L94.105686,24.5826231 L90.340911,24.5826231 L90.340911,29.6023231 Z M94.751076,24.5826231 L94.751076,29.6023231 L95.755016,29.6023231 L95.755016,28.0247031 L97.045796,28.0247031 C98.444141,28.0247031 99.197096,27.2717481 99.197096,26.3036631 C99.197096,25.3355781 98.444141,24.5826231 97.045796,24.5826231 L94.751076,24.5826231 Z M97.045796,25.4072881 C97.727041,25.4072881 98.157301,25.8375481 98.157301,26.3036631 C98.157301,26.7697781 97.727041,27.2000381 97.045796,27.2000381 L95.755016,27.2000381 L95.755016,25.4072881 L97.045796,25.4072881 Z M102.538782,24.5826231 L101.283857,24.5826231 L99.204267,29.6023231 L100.279917,29.6023231 L100.674322,28.5983831 L103.148317,28.5983831 L103.542722,29.6023231 L104.618372,29.6023231 L102.538782,24.5826231 Z M101.893392,25.6582731 L101.929247,25.6582731 L102.789767,27.7378631 L101.032872,27.7378631 L101.893392,25.6582731 Z M105.263762,24.5826231 L105.263762,29.6023231 L106.267702,29.6023231 L106.267702,28.0247031 L107.558482,28.0247031 C108.956827,28.0247031 109.709782,27.2717481 109.709782,26.3036631 C109.709782,25.3355781 108.956827,24.5826231 107.558482,24.5826231 L105.263762,24.5826231 Z M107.558482,25.4072881 C108.239727,25.4072881 108.669987,25.8375481 108.669987,26.3036631 C108.669987,26.7697781 108.239727,27.2000381 107.558482,27.2000381 L106.267702,27.2000381 L106.267702,25.4072881 L107.558482,25.4072881 Z M114.105605,24.5826231 L114.105605,26.6980681 L111.524045,26.6980681 L111.524045,24.5826231 L110.520105,24.5826231 L110.520105,29.6023231 L111.524045,29.6023231 L111.524045,27.5227331 L114.105605,27.5227331 L114.105605,29.6023231 L115.109545,29.6023231 L115.109545,24.5826231 L114.105605,24.5826231 Z M119.08945,24.5826231 L117.834525,24.5826231 L115.754935,29.6023231 L116.830585,29.6023231 L117.22499,28.5983831 L119.698985,28.5983831 L120.09339,29.6023231 L121.16904,29.6023231 L119.08945,24.5826231 Z M118.44406,25.6582731 L118.479915,25.6582731 L119.340435,27.7378631 L117.58354,27.7378631 L118.44406,25.6582731 Z M123.772113,24.5826231 C122.366597,24.5826231 121.692523,25.2638681 121.692523,26.2319531 C121.692523,27.3793131 122.696463,27.6661531 122.696463,27.6661531 L122.696463,27.7020081 L121.333973,29.6023231 L122.481333,29.6023231 L123.700403,27.8812831 L125.098748,27.8812831 L125.098748,29.6023231 L126.102688,29.6023231 L126.102688,24.5826231 L123.772113,24.5826231 Z M122.732318,26.2319531 C122.732318,25.7658381 123.090868,25.4072881 123.772113,25.4072881 L125.098748,25.4072881 L125.098748,27.0566181 L123.772113,27.0566181 C123.090868,27.0566181 122.732318,26.6263581 122.732318,26.2319531 L122.732318,26.2319531 Z M130.34792,28.7776581 L130.34792,27.2000381 L131.746265,27.2000381 C132.391655,27.2000381 132.750205,27.5585881 132.750205,27.9888481 C132.750205,28.4191081 132.391655,28.7776581 131.746265,28.7776581 L130.34792,28.7776581 Z M133.79,27.9888481 C133.79,27.1283281 133.037045,26.3753731 131.746265,26.3753731 L130.34792,26.3753731 L130.34792,25.4072881 L133.323885,25.4072881 L133.323885,24.5826231 L129.34398,24.5826231 L129.34398,29.6023231 L131.746265,29.6023231 C133.037045,29.6023231 133.79,28.8493681 133.79,27.9888481 L133.79,27.9888481 Z M135.604263,29.6023231 L138.114113,26.1602431 L138.149968,26.1602431 L138.149968,29.6023231 L139.153908,29.6023231 L139.153908,24.5826231 L138.149968,24.5826231 L135.640118,28.0247031 L135.604263,28.0247031 L135.604263,24.5826231 L134.600323,24.5826231 L134.600323,29.6023231 L135.604263,29.6023231 Z M140.31561,24.5826231 L140.31561,29.6023231 L141.31955,29.6023231 L141.31955,28.0247031 L142.61033,28.0247031 C144.008675,28.0247031 144.76163,27.2717481 144.76163,26.3036631 C144.76163,25.3355781 144.008675,24.5826231 142.61033,24.5826231 L140.31561,24.5826231 Z M142.61033,25.4072881 C143.291575,25.4072881 143.721835,25.8375481 143.721835,26.3036631 C143.721835,26.7697781 143.291575,27.2000381 142.61033,27.2000381 L141.31955,27.2000381 L141.31955,25.4072881 L142.61033,25.4072881 Z M146.489841,24.5826231 L145.450046,24.5826231 L145.808596,25.8734031 C146.116949,26.9849081 146.704971,27.1641831 146.704971,27.1641831 L146.704971,27.2000381 L145.055641,29.6023231 L146.238856,29.6023231 L147.708911,27.4510231 L148.605286,27.4510231 L148.605286,29.6023231 L149.609226,29.6023231 L149.609226,27.4510231 L150.505601,27.4510231 L151.975656,29.6023231 L153.158871,29.6023231 L151.509541,27.2000381 L151.509541,27.1641831 C151.509541,27.1641831 152.097563,26.9849081 152.405916,25.8734031 L152.764466,24.5826231 L151.724671,24.5826231 L151.366121,25.8734031 C151.244214,26.3036631 150.935861,26.6263581 150.362181,26.6263581 L149.609226,26.6263581 L149.609226,24.5826231 L148.605286,24.5826231 L148.605286,26.6263581 L147.852331,26.6263581 C147.278651,26.6263581 146.970298,26.3036631 146.848391,25.8734031 L146.489841,24.5826231 Z M156.335624,24.5826231 L155.080699,24.5826231 L153.001109,29.6023231 L154.076759,29.6023231 L154.471164,28.5983831 L156.945159,28.5983831 L157.339564,29.6023231 L158.415214,29.6023231 L156.335624,24.5826231 Z M155.690234,25.6582731 L155.726089,25.6582731 L156.586609,27.7378631 L154.829714,27.7378631 L155.690234,25.6582731 Z" id="Международная-аграрная-биржа" sketch:type="MSShapeGroup"></path>
        </g>
        <g id="ЂЃ£Ѓ-†£аЃ" sketch:type="MSLayerGroup" transform="translate(55.000000, 0.000000)">
            <path d="M44.119,0.513 L27.938,0.513 L0.843,32.326 L0.843,58.807 L9.293,58.807 L9.293,34.017 L31.262,8.034 L40.809,8.034 L62.767,34.017 L62.767,58.807 L71.214,58.807 L71.214,32.326 L44.119,0.513" id="Fill-1" fill="#F5B827" sketch:type="MSShapeGroup"></path>
            <path d="M0.843,58.837 L9.293,58.837 L9.293,34.047 L0.843,32.356 L0.843,58.837" id="Fill-2" fill="#ED992D" sketch:type="MSShapeGroup"></path>
            <path d="M71.214,58.837 L62.764,58.837 L62.764,34.047 L71.214,32.356 L71.214,58.837" id="Fill-3" fill="#ED992D" sketch:type="MSShapeGroup"></path>
            <path d="M31.35,22.748 L0.843,58.807 L13.511,58.807 L35.588,32.824 L36.469,32.824 L58.546,58.807 L71.214,58.807 L40.707,22.748 L31.35,22.748" id="Fill-4" fill="#4D4D4F" sketch:type="MSShapeGroup"></path>
        </g>
    </g>
</svg>