<?xml version="1.0" encoding="UTF-8" standalone="no"?>
<svg width="180px" height="97px" viewBox="0 0 180 97" version="1.1" xmlns="http://www.w3.org/2000/svg" xmlns:xlink="http://www.w3.org/1999/xlink" xmlns:sketch="http://www.bohemiancoding.com/sketch/ns">
    <!-- Generator: Sketch 3.2.2 (9983) - http://www.bohemiancoding.com/sketch -->
    <title>agrofor_ru</title>
    <desc>Created with Sketch.</desc>
    <defs></defs>
    <g id="Page-1" stroke="none" stroke-width="1" fill="none" fill-rule="evenodd" sketch:type="MSPage">
        <g id="text" sketch:type="MSLayerGroup" transform="translate(7.000000, 64.000000)" fill="#4D4D4F">
            <path d="M34.0466802,1.17667848 L30.3389027,1.17667848 L24.1945857,16.0077885 L27.3726807,16.0077885 L28.5379822,13.0415665 L35.8476007,13.0415665 L37.0129022,16.0077885 L40.1909972,16.0077885 L34.0466802,1.17667848 Z M32.1398232,4.35477348 L32.2457597,4.35477348 L34.7882357,10.4990905 L29.5973472,10.4990905 L32.1398232,4.35477348 Z M42.0978542,16.0077885 L45.0640762,16.0077885 L45.0640762,3.61321798 L53.2211867,3.61321798 L53.2211867,1.17667848 L42.0978542,1.17667848 L42.0978542,16.0077885 Z M55.1280437,1.17667848 L55.1280437,16.0077885 L58.0942657,16.0077885 L58.0942657,11.3465825 L61.9079797,11.3465825 C66.0395032,11.3465825 68.2641697,9.12191598 68.2641697,6.26163048 C68.2641697,3.40134498 66.0395032,1.17667848 61.9079797,1.17667848 L55.1280437,1.17667848 Z M61.9079797,3.61321798 C63.9207732,3.61321798 65.1920112,4.88445598 65.1920112,6.26163048 C65.1920112,7.63880498 63.9207732,8.91004298 61.9079797,8.91004298 L58.0942657,8.91004298 L58.0942657,3.61321798 L61.9079797,3.61321798 Z M69.8108426,8.59223348 C69.8108426,13.147503 73.0948741,16.4315345 77.7560801,16.4315345 C82.4172861,16.4315345 85.7013176,13.147503 85.7013176,8.59223348 C85.7013176,4.03696398 82.4172861,0.752932477 77.7560801,0.752932477 C73.0948741,0.752932477 69.8108426,4.03696398 69.8108426,8.59223348 L69.8108426,8.59223348 Z M82.6291591,8.59223348 C82.6291591,11.7703285 80.5104291,13.8890585 77.7560801,13.8890585 C75.0017311,13.8890585 72.8830011,11.7703285 72.8830011,8.59223348 C72.8830011,5.41413848 75.0017311,3.29540848 77.7560801,3.29540848 C80.5104291,3.29540848 82.6291591,5.41413848 82.6291591,8.59223348 L82.6291591,8.59223348 Z M98.371323,0.541059477 L95.405101,0.541059477 L95.405101,2.13010698 C90.0023395,2.44791648 87.2479905,5.20226548 87.2479905,8.59223348 C87.2479905,11.9822015 90.0023395,14.7365505 95.405101,15.05436 L95.405101,16.6434075 L98.371323,16.6434075 L98.371323,15.05436 C103.774084,14.7365505 106.528433,11.9822015 106.528433,8.59223348 C106.528433,5.20226548 103.774084,2.44791648 98.371323,2.13010698 L98.371323,0.541059477 Z M98.371323,4.67258298 C101.761291,4.77851948 103.456275,6.47350348 103.456275,8.59223348 C103.456275,10.7109635 101.761291,12.4059475 98.371323,12.511884 L98.371323,4.67258298 Z M95.405101,12.511884 C92.015133,12.4059475 90.320149,10.7109635 90.320149,8.59223348 C90.320149,6.47350348 92.015133,4.77851948 95.405101,4.67258298 L95.405101,12.511884 Z M108.498852,8.59223348 C108.498852,13.147503 111.782884,16.4315345 116.44409,16.4315345 C121.105296,16.4315345 124.389327,13.147503 124.389327,8.59223348 C124.389327,4.03696398 121.105296,0.752932477 116.44409,0.752932477 C111.782884,0.752932477 108.498852,4.03696398 108.498852,8.59223348 L108.498852,8.59223348 Z M121.317169,8.59223348 C121.317169,11.7703285 119.198439,13.8890585 116.44409,13.8890585 C113.689741,13.8890585 111.571011,11.7703285 111.571011,8.59223348 C111.571011,5.41413848 113.689741,3.29540848 116.44409,3.29540848 C119.198439,3.29540848 121.317169,5.41413848 121.317169,8.59223348 L121.317169,8.59223348 Z M126.974178,1.17667848 L126.974178,16.0077885 L129.9404,16.0077885 L129.9404,11.3465825 L133.754114,11.3465825 C137.885637,11.3465825 140.110304,9.12191598 140.110304,6.26163048 C140.110304,3.40134498 137.885637,1.17667848 133.754114,1.17667848 L126.974178,1.17667848 Z M133.754114,3.61321798 C135.766907,3.61321798 137.038145,4.88445598 137.038145,6.26163048 C137.038145,7.63880498 135.766907,8.91004298 133.754114,8.91004298 L129.9404,8.91004298 L129.9404,3.61321798 L133.754114,3.61321798 Z" id="АГРОФОР" sketch:type="MSShapeGroup"></path>
            <path d="M11.871889,28.8852231 L13.126814,26.1960981 L13.162669,26.1960981 L13.557074,29.6023231 L14.596869,29.6023231 L13.987334,24.5826231 L12.875829,24.5826231 L11.441629,27.7020081 L11.405774,27.7020081 L9.971574,24.5826231 L8.860069,24.5826231 L8.250534,29.6023231 L9.290329,29.6023231 L9.684734,26.1960981 L9.720589,26.1960981 L10.975514,28.8852231 L11.871889,28.8852231 Z M15.564954,29.6023231 L19.652424,29.6023231 L19.652424,28.7776581 L16.568894,28.7776581 L16.568894,27.5227331 L18.648484,27.5227331 L18.648484,26.6980681 L16.568894,26.6980681 L16.568894,25.4072881 L19.580714,25.4072881 L19.580714,24.5826231 L15.564954,24.5826231 L15.564954,29.6023231 Z M21.34478,24.5826231 L20.304985,24.5826231 L20.663535,25.8734031 C20.971888,26.9849081 21.55991,27.1641831 21.55991,27.1641831 L21.55991,27.2000381 L19.91058,29.6023231 L21.093795,29.6023231 L22.56385,27.4510231 L23.460225,27.4510231 L23.460225,29.6023231 L24.464165,29.6023231 L24.464165,27.4510231 L25.36054,27.4510231 L26.830595,29.6023231 L28.01381,29.6023231 L26.36448,27.2000381 L26.36448,27.1641831 C26.36448,27.1641831 26.952502,26.9849081 27.260855,25.8734031 L27.619405,24.5826231 L26.57961,24.5826231 L26.22106,25.8734031 C26.099153,26.3036631 25.7908,26.6263581 25.21712,26.6263581 L24.464165,26.6263581 L24.464165,24.5826231 L23.460225,24.5826231 L23.460225,26.6263581 L22.70727,26.6263581 C22.13359,26.6263581 21.825237,26.3036631 21.70333,25.8734031 L21.34478,24.5826231 Z M29.404984,24.5826231 L29.010579,27.7737181 C28.931698,28.4191081 28.580319,28.7776581 28.150059,28.7776581 L28.078349,28.7776581 L28.078349,30.6779731 L29.082289,30.6779731 L29.082289,29.6023231 L32.667789,29.6023231 L32.667789,30.6779731 L33.671729,30.6779731 L33.671729,28.7776581 L33.026339,28.7776581 L33.026339,24.5826231 L29.404984,24.5826231 Z M30.050374,27.7737181 L30.337214,25.4072881 L32.022399,25.4072881 L32.022399,28.7776581 L29.584259,28.7776581 L29.584259,28.7418031 C29.584259,28.7418031 30.014519,28.3115431 30.050374,27.7737181 L30.050374,27.7737181 Z M35.47165,29.6023231 L36.583155,29.6023231 L38.949585,24.5826231 L37.83808,24.5826231 L36.47559,27.4868781 L36.40388,27.4868781 L35.04139,24.5826231 L33.929885,24.5826231 L35.68678,28.2398331 L36.109869,28.2398331 L35.47165,29.6023231 Z M43.402776,24.5826231 L43.402776,26.6980681 L40.821216,26.6980681 L40.821216,24.5826231 L39.817276,24.5826231 L39.817276,29.6023231 L40.821216,29.6023231 L40.821216,27.5227331 L43.402776,27.5227331 L43.402776,29.6023231 L44.406716,29.6023231 L44.406716,24.5826231 L43.402776,24.5826231 Z M48.386621,24.5826231 L47.131696,24.5826231 L45.052106,29.6023231 L46.127756,29.6023231 L46.522161,28.5983831 L48.996156,28.5983831 L49.390561,29.6023231 L50.466211,29.6023231 L48.386621,24.5826231 Z M47.741231,25.6582731 L47.777086,25.6582731 L48.637606,27.7378631 L46.880711,27.7378631 L47.741231,25.6582731 Z M51.111601,24.5826231 L51.111601,29.6023231 L52.115541,29.6023231 L52.115541,28.0247031 L53.406321,28.0247031 C54.804666,28.0247031 55.557621,27.2717481 55.557621,26.3036631 C55.557621,25.3355781 54.804666,24.5826231 53.406321,24.5826231 L51.111601,24.5826231 Z M53.406321,25.4072881 C54.087566,25.4072881 54.517826,25.8375481 54.517826,26.3036631 C54.517826,26.7697781 54.087566,27.2000381 53.406321,27.2000381 L52.115541,27.2000381 L52.115541,25.4072881 L53.406321,25.4072881 Z M55.507424,27.0924731 C55.507424,28.6342381 56.618929,29.7457431 58.196549,29.7457431 C59.774169,29.7457431 60.885674,28.6342381 60.885674,27.0924731 C60.885674,25.5507081 59.774169,24.4392031 58.196549,24.4392031 C56.618929,24.4392031 55.507424,25.5507081 55.507424,27.0924731 L55.507424,27.0924731 Z M59.845879,27.0924731 C59.845879,28.1681231 59.128779,28.8852231 58.196549,28.8852231 C57.264319,28.8852231 56.547219,28.1681231 56.547219,27.0924731 C56.547219,26.0168231 57.264319,25.2997231 58.196549,25.2997231 C59.128779,25.2997231 59.845879,26.0168231 59.845879,27.0924731 L59.845879,27.0924731 Z M62.2187629,24.5826231 L61.8243579,27.7737181 C61.7454769,28.4191081 61.3940979,28.7776581 60.9638379,28.7776581 L60.8921279,28.7776581 L60.8921279,30.6779731 L61.8960679,30.6779731 L61.8960679,29.6023231 L65.4815679,29.6023231 L65.4815679,30.6779731 L66.4855079,30.6779731 L66.4855079,28.7776581 L65.8401179,28.7776581 L65.8401179,24.5826231 L62.2187629,24.5826231 Z M62.8641529,27.7737181 L63.1509929,25.4072881 L64.8361779,25.4072881 L64.8361779,28.7776581 L62.3980379,28.7776581 L62.3980379,28.7418031 C62.3980379,28.7418031 62.8282979,28.3115431 62.8641529,27.7737181 L62.8641529,27.7737181 Z M70.559353,24.5826231 L70.559353,26.6980681 L67.977793,26.6980681 L67.977793,24.5826231 L66.973853,24.5826231 L66.973853,29.6023231 L67.977793,29.6023231 L67.977793,27.5227331 L70.559353,27.5227331 L70.559353,29.6023231 L71.563293,29.6023231 L71.563293,24.5826231 L70.559353,24.5826231 Z M75.543198,24.5826231 L74.288273,24.5826231 L72.208683,29.6023231 L73.284333,29.6023231 L73.678738,28.5983831 L76.152733,28.5983831 L76.547138,29.6023231 L77.622788,29.6023231 L75.543198,24.5826231 Z M74.897808,25.6582731 L74.933663,25.6582731 L75.794183,27.7378631 L74.037288,27.7378631 L74.897808,25.6582731 Z M80.225861,24.5826231 C78.820345,24.5826231 78.146271,25.2638681 78.146271,26.2319531 C78.146271,27.3793131 79.150211,27.6661531 79.150211,27.6661531 L79.150211,27.7020081 L77.787721,29.6023231 L78.935081,29.6023231 L80.154151,27.8812831 L81.552496,27.8812831 L81.552496,29.6023231 L82.556436,29.6023231 L82.556436,24.5826231 L80.225861,24.5826231 Z M79.186066,26.2319531 C79.186066,25.7658381 79.544616,25.4072881 80.225861,25.4072881 L81.552496,25.4072881 L81.552496,27.0566181 L80.225861,27.0566181 C79.544616,27.0566181 79.186066,26.6263581 79.186066,26.2319531 L79.186066,26.2319531 Z M88.615931,24.5826231 L87.361006,24.5826231 L85.281416,29.6023231 L86.357066,29.6023231 L86.751471,28.5983831 L89.225466,28.5983831 L89.619871,29.6023231 L90.695521,29.6023231 L88.615931,24.5826231 Z M87.970541,25.6582731 L88.006396,25.6582731 L88.866916,27.7378631 L87.110021,27.7378631 L87.970541,25.6582731 Z M91.340911,29.6023231 L92.344851,29.6023231 L92.344851,25.4072881 L95.105686,25.4072881 L95.105686,24.5826231 L91.340911,24.5826231 L91.340911,29.6023231 Z M95.751076,24.5826231 L95.751076,29.6023231 L96.755016,29.6023231 L96.755016,28.0247031 L98.045796,28.0247031 C99.444141,28.0247031 100.197096,27.2717481 100.197096,26.3036631 C100.197096,25.3355781 99.444141,24.5826231 98.045796,24.5826231 L95.751076,24.5826231 Z M98.045796,25.4072881 C98.727041,25.4072881 99.157301,25.8375481 99.157301,26.3036631 C99.157301,26.7697781 98.727041,27.2000381 98.045796,27.2000381 L96.755016,27.2000381 L96.755016,25.4072881 L98.045796,25.4072881 Z M103.538782,24.5826231 L102.283857,24.5826231 L100.204267,29.6023231 L101.279917,29.6023231 L101.674322,28.5983831 L104.148317,28.5983831 L104.542722,29.6023231 L105.618372,29.6023231 L103.538782,24.5826231 Z M102.893392,25.6582731 L102.929247,25.6582731 L103.789767,27.7378631 L102.032872,27.7378631 L102.893392,25.6582731 Z M106.263762,24.5826231 L106.263762,29.6023231 L107.267702,29.6023231 L107.267702,28.0247031 L108.558482,28.0247031 C109.956827,28.0247031 110.709782,27.2717481 110.709782,26.3036631 C110.709782,25.3355781 109.956827,24.5826231 108.558482,24.5826231 L106.263762,24.5826231 Z M108.558482,25.4072881 C109.239727,25.4072881 109.669987,25.8375481 109.669987,26.3036631 C109.669987,26.7697781 109.239727,27.2000381 108.558482,27.2000381 L107.267702,27.2000381 L107.267702,25.4072881 L108.558482,25.4072881 Z M115.105605,24.5826231 L115.105605,26.6980681 L112.524045,26.6980681 L112.524045,24.5826231 L111.520105,24.5826231 L111.520105,29.6023231 L112.524045,29.6023231 L112.524045,27.5227331 L115.105605,27.5227331 L115.105605,29.6023231 L116.109545,29.6023231 L116.109545,24.5826231 L115.105605,24.5826231 Z M120.08945,24.5826231 L118.834525,24.5826231 L116.754935,29.6023231 L117.830585,29.6023231 L118.22499,28.5983831 L120.698985,28.5983831 L121.09339,29.6023231 L122.16904,29.6023231 L120.08945,24.5826231 Z M119.44406,25.6582731 L119.479915,25.6582731 L120.340435,27.7378631 L118.58354,27.7378631 L119.44406,25.6582731 Z M124.772113,24.5826231 C123.366597,24.5826231 122.692523,25.2638681 122.692523,26.2319531 C122.692523,27.3793131 123.696463,27.6661531 123.696463,27.6661531 L123.696463,27.7020081 L122.333973,29.6023231 L123.481333,29.6023231 L124.700403,27.8812831 L126.098748,27.8812831 L126.098748,29.6023231 L127.102688,29.6023231 L127.102688,24.5826231 L124.772113,24.5826231 Z M123.732318,26.2319531 C123.732318,25.7658381 124.090868,25.4072881 124.772113,25.4072881 L126.098748,25.4072881 L126.098748,27.0566181 L124.772113,27.0566181 C124.090868,27.0566181 123.732318,26.6263581 123.732318,26.2319531 L123.732318,26.2319531 Z M131.34792,28.7776581 L131.34792,27.2000381 L132.746265,27.2000381 C133.391655,27.2000381 133.750205,27.5585881 133.750205,27.9888481 C133.750205,28.4191081 133.391655,28.7776581 132.746265,28.7776581 L131.34792,28.7776581 Z M134.79,27.9888481 C134.79,27.1283281 134.037045,26.3753731 132.746265,26.3753731 L131.34792,26.3753731 L131.34792,25.4072881 L134.323885,25.4072881 L134.323885,24.5826231 L130.34398,24.5826231 L130.34398,29.6023231 L132.746265,29.6023231 C134.037045,29.6023231 134.79,28.8493681 134.79,27.9888481 L134.79,27.9888481 Z M136.604263,29.6023231 L139.114113,26.1602431 L139.149968,26.1602431 L139.149968,29.6023231 L140.153908,29.6023231 L140.153908,24.5826231 L139.149968,24.5826231 L136.640118,28.0247031 L136.604263,28.0247031 L136.604263,24.5826231 L135.600323,24.5826231 L135.600323,29.6023231 L136.604263,29.6023231 Z M141.31561,24.5826231 L141.31561,29.6023231 L142.31955,29.6023231 L142.31955,28.0247031 L143.61033,28.0247031 C145.008675,28.0247031 145.76163,27.2717481 145.76163,26.3036631 C145.76163,25.3355781 145.008675,24.5826231 143.61033,24.5826231 L141.31561,24.5826231 Z M143.61033,25.4072881 C144.291575,25.4072881 144.721835,25.8375481 144.721835,26.3036631 C144.721835,26.7697781 144.291575,27.2000381 143.61033,27.2000381 L142.31955,27.2000381 L142.31955,25.4072881 L143.61033,25.4072881 Z M147.489841,24.5826231 L146.450046,24.5826231 L146.808596,25.8734031 C147.116949,26.9849081 147.704971,27.1641831 147.704971,27.1641831 L147.704971,27.2000381 L146.055641,29.6023231 L147.238856,29.6023231 L148.708911,27.4510231 L149.605286,27.4510231 L149.605286,29.6023231 L150.609226,29.6023231 L150.609226,27.4510231 L151.505601,27.4510231 L152.975656,29.6023231 L154.158871,29.6023231 L152.509541,27.2000381 L152.509541,27.1641831 C152.509541,27.1641831 153.097563,26.9849081 153.405916,25.8734031 L153.764466,24.5826231 L152.724671,24.5826231 L152.366121,25.8734031 C152.244214,26.3036631 151.935861,26.6263581 151.362181,26.6263581 L150.609226,26.6263581 L150.609226,24.5826231 L149.605286,24.5826231 L149.605286,26.6263581 L148.852331,26.6263581 C148.278651,26.6263581 147.970298,26.3036631 147.848391,25.8734031 L147.489841,24.5826231 Z M157.335624,24.5826231 L156.080699,24.5826231 L154.001109,29.6023231 L155.076759,29.6023231 L155.471164,28.5983831 L157.945159,28.5983831 L158.339564,29.6023231 L159.415214,29.6023231 L157.335624,24.5826231 Z M156.690234,25.6582731 L156.726089,25.6582731 L157.586609,27.7378631 L155.829714,27.7378631 L156.690234,25.6582731 Z" id="Международная-аграрная-биржа" sketch:type="MSShapeGroup"></path>
        </g>
        <g id="ЂЃ£Ѓ-†£аЃ" sketch:type="MSLayerGroup" transform="translate(55.000000, -1.000000)">
            <path d="M44.119,0.513 L27.938,0.513 L0.843,32.326 L0.843,58.807 L9.293,58.807 L9.293,34.017 L31.262,8.034 L40.809,8.034 L62.767,34.017 L62.767,58.807 L71.214,58.807 L71.214,32.326 L44.119,0.513" id="Fill-1" fill="#F5B827" sketch:type="MSShapeGroup"></path>
            <path d="M0.843,58.837 L9.293,58.837 L9.293,34.047 L0.843,32.356 L0.843,58.837" id="Fill-2" fill="#ED992D" sketch:type="MSShapeGroup"></path>
            <path d="M71.214,58.837 L62.764,58.837 L62.764,34.047 L71.214,32.356 L71.214,58.837" id="Fill-3" fill="#ED992D" sketch:type="MSShapeGroup"></path>
            <path d="M31.35,22.748 L0.843,58.807 L13.511,58.807 L35.588,32.824 L36.469,32.824 L58.546,58.807 L71.214,58.807 L40.707,22.748 L31.35,22.748" id="Fill-4" fill="#4D4D4F" sketch:type="MSShapeGroup"></path>
        </g>
    </g>
</svg>