<?xml version="1.0" encoding="UTF-8" standalone="no"?>
<svg width="180px" height="97px" viewBox="0 0 180 97" version="1.1" xmlns="http://www.w3.org/2000/svg" xmlns:xlink="http://www.w3.org/1999/xlink" xmlns:sketch="http://www.bohemiancoding.com/sketch/ns">
    <!-- Generator: Sketch 3.2.2 (9983) - http://www.bohemiancoding.com/sketch -->
    <title>fuelfor_ru</title>
    <desc>Created with Sketch.</desc>
    <defs></defs>
    <g id="Page-1" stroke="none" stroke-width="1" fill="none" fill-rule="evenodd" sketch:type="MSPage">
        <g id="text" sketch:type="MSLayerGroup" transform="translate(-272.000000, 65.000000)">
            <path d="M308.805226,0.541059477 L305.839004,0.541059477 L305.839004,2.13010698 C300.436243,2.44791648 297.681894,5.20226548 297.681894,8.59223348 C297.681894,11.9822015 300.436243,14.7365505 305.839004,15.05436 L305.839004,16.6434075 L308.805226,16.6434075 L308.805226,15.05436 C314.207988,14.7365505 316.962337,11.9822015 316.962337,8.59223348 C316.962337,5.20226548 314.207988,2.44791648 308.805226,2.13010698 L308.805226,0.541059477 Z M308.805226,4.67258298 C312.195194,4.77851948 313.890178,6.47350348 313.890178,8.59223348 C313.890178,10.7109635 312.195194,12.4059475 308.805226,12.511884 L308.805226,4.67258298 Z M305.839004,12.511884 C302.449036,12.4059475 300.754052,10.7109635 300.754052,8.59223348 C300.754052,6.47350348 302.449036,4.77851948 305.839004,4.67258298 L305.839004,12.511884 Z M328.996723,11.028773 C328.996723,12.4059475 327.831421,13.571249 325.818628,13.571249 L322.322723,13.571249 L322.322723,8.48629698 L325.818628,8.48629698 C327.831421,8.48629698 328.996723,9.86347148 328.996723,11.028773 L328.996723,11.028773 Z M325.818628,16.0077885 C329.950152,16.0077885 332.068881,13.8890585 332.068881,11.028773 C332.068881,8.16848748 329.950152,6.04975748 325.818628,6.04975748 L322.322723,6.04975748 L322.322723,1.17667848 L319.356501,1.17667848 L319.356501,16.0077885 L325.818628,16.0077885 Z M355.205413,8.59223348 C355.205413,4.03696398 351.921382,0.752932477 347.577985,0.752932477 C343.446462,0.752932477 340.586176,3.61321798 340.056494,7.42693198 L337.514018,7.42693198 L337.514018,1.17667848 L334.547796,1.17667848 L334.547796,16.0077885 L337.514018,16.0077885 L337.514018,9.86347148 L340.056494,9.86347148 C340.586176,13.571249 343.446462,16.4315345 347.577985,16.4315345 C351.921382,16.4315345 355.205413,13.147503 355.205413,8.59223348 L355.205413,8.59223348 Z M343.022716,8.59223348 C343.022716,5.41413848 345.141446,3.29540848 347.577985,3.29540848 C350.014525,3.29540848 352.133255,5.41413848 352.133255,8.59223348 C352.133255,11.7703285 350.014525,13.8890585 347.577985,13.8890585 C345.141446,13.8890585 343.022716,11.7703285 343.022716,8.59223348 L343.022716,8.59223348 Z M360.417489,1.17667848 L359.252187,10.9228365 C359.019127,12.93563 358.086886,13.8890585 356.709711,13.8890585 L356.074092,13.8890585 L356.074092,16.2196615 C356.074092,16.2196615 356.688524,16.4315345 357.557203,16.4315345 C360.099679,16.4315345 361.9006,14.630614 362.324346,10.9228365 L363.171838,3.61321798 L368.362726,3.61321798 L368.362726,16.0077885 L371.328948,16.0077885 L371.328948,1.17667848 L360.417489,1.17667848 Z M384.846446,0.541059477 L381.880224,0.541059477 L381.880224,2.13010698 C376.477462,2.44791648 373.723113,5.20226548 373.723113,8.59223348 C373.723113,11.9822015 376.477462,14.7365505 381.880224,15.05436 L381.880224,16.6434075 L384.846446,16.6434075 L384.846446,15.05436 C390.249207,14.7365505 393.003556,11.9822015 393.003556,8.59223348 C393.003556,5.20226548 390.249207,2.44791648 384.846446,2.13010698 L384.846446,0.541059477 Z M384.846446,4.67258298 C388.236414,4.77851948 389.931398,6.47350348 389.931398,8.59223348 C389.931398,10.7109635 388.236414,12.4059475 384.846446,12.511884 L384.846446,4.67258298 Z M381.880224,12.511884 C378.490256,12.4059475 376.795272,10.7109635 376.795272,8.59223348 C376.795272,6.47350348 378.490256,4.77851948 381.880224,4.67258298 L381.880224,12.511884 Z M394.973975,8.59223348 C394.973975,13.147503 398.258007,16.4315345 402.919213,16.4315345 C407.580419,16.4315345 410.86445,13.147503 410.86445,8.59223348 C410.86445,4.03696398 407.580419,0.752932477 402.919213,0.752932477 C398.258007,0.752932477 394.973975,4.03696398 394.973975,8.59223348 L394.973975,8.59223348 Z M407.792292,8.59223348 C407.792292,11.7703285 405.673562,13.8890585 402.919213,13.8890585 C400.164864,13.8890585 398.046134,11.7703285 398.046134,8.59223348 C398.046134,5.41413848 400.164864,3.29540848 402.919213,3.29540848 C405.673562,3.29540848 407.792292,5.41413848 407.792292,8.59223348 L407.792292,8.59223348 Z M413.449301,1.17667848 L413.449301,16.0077885 L416.415523,16.0077885 L416.415523,11.3465825 L420.229237,11.3465825 C424.36076,11.3465825 426.585427,9.12191598 426.585427,6.26163048 C426.585427,3.40134498 424.36076,1.17667848 420.229237,1.17667848 L413.449301,1.17667848 Z M420.229237,3.61321798 C422.24203,3.61321798 423.513268,4.88445598 423.513268,6.26163048 C423.513268,7.63880498 422.24203,8.91004298 420.229237,8.91004298 L416.415523,8.91004298 L416.415523,3.61321798 L420.229237,3.61321798 Z" id="ФьюлФОР" fill="#4D4D4F" sketch:type="MSShapeGroup"></path>
            <path d="M286.871889,28.8852231 L288.126814,26.1960981 L288.162669,26.1960981 L288.557074,29.6023231 L289.596869,29.6023231 L288.987334,24.5826231 L287.875829,24.5826231 L286.441629,27.7020081 L286.405774,27.7020081 L284.971574,24.5826231 L283.860069,24.5826231 L283.250534,29.6023231 L284.290329,29.6023231 L284.684734,26.1960981 L284.720589,26.1960981 L285.975514,28.8852231 L286.871889,28.8852231 Z M290.564954,29.6023231 L294.652424,29.6023231 L294.652424,28.7776581 L291.568894,28.7776581 L291.568894,27.5227331 L293.648484,27.5227331 L293.648484,26.6980681 L291.568894,26.6980681 L291.568894,25.4072881 L294.580714,25.4072881 L294.580714,24.5826231 L290.564954,24.5826231 L290.564954,29.6023231 Z M296.34478,24.5826231 L295.304985,24.5826231 L295.663535,25.8734031 C295.971888,26.9849081 296.55991,27.1641831 296.55991,27.1641831 L296.55991,27.2000381 L294.91058,29.6023231 L296.093795,29.6023231 L297.56385,27.4510231 L298.460225,27.4510231 L298.460225,29.6023231 L299.464165,29.6023231 L299.464165,27.4510231 L300.36054,27.4510231 L301.830595,29.6023231 L303.01381,29.6023231 L301.36448,27.2000381 L301.36448,27.1641831 C301.36448,27.1641831 301.952502,26.9849081 302.260855,25.8734031 L302.619405,24.5826231 L301.57961,24.5826231 L301.22106,25.8734031 C301.099153,26.3036631 300.7908,26.6263581 300.21712,26.6263581 L299.464165,26.6263581 L299.464165,24.5826231 L298.460225,24.5826231 L298.460225,26.6263581 L297.70727,26.6263581 C297.13359,26.6263581 296.825237,26.3036631 296.70333,25.8734031 L296.34478,24.5826231 Z M304.404984,24.5826231 L304.010579,27.7737181 C303.931698,28.4191081 303.580319,28.7776581 303.150059,28.7776581 L303.078349,28.7776581 L303.078349,30.6779731 L304.082289,30.6779731 L304.082289,29.6023231 L307.667789,29.6023231 L307.667789,30.6779731 L308.671729,30.6779731 L308.671729,28.7776581 L308.026339,28.7776581 L308.026339,24.5826231 L304.404984,24.5826231 Z M305.050374,27.7737181 L305.337214,25.4072881 L307.022399,25.4072881 L307.022399,28.7776581 L304.584259,28.7776581 L304.584259,28.7418031 C304.584259,28.7418031 305.014519,28.3115431 305.050374,27.7737181 L305.050374,27.7737181 Z M310.47165,29.6023231 L311.583155,29.6023231 L313.949585,24.5826231 L312.83808,24.5826231 L311.47559,27.4868781 L311.40388,27.4868781 L310.04139,24.5826231 L308.929885,24.5826231 L310.68678,28.2398331 L311.109869,28.2398331 L310.47165,29.6023231 Z M318.402776,24.5826231 L318.402776,26.6980681 L315.821216,26.6980681 L315.821216,24.5826231 L314.817276,24.5826231 L314.817276,29.6023231 L315.821216,29.6023231 L315.821216,27.5227331 L318.402776,27.5227331 L318.402776,29.6023231 L319.406716,29.6023231 L319.406716,24.5826231 L318.402776,24.5826231 Z M323.386621,24.5826231 L322.131696,24.5826231 L320.052106,29.6023231 L321.127756,29.6023231 L321.522161,28.5983831 L323.996156,28.5983831 L324.390561,29.6023231 L325.466211,29.6023231 L323.386621,24.5826231 Z M322.741231,25.6582731 L322.777086,25.6582731 L323.637606,27.7378631 L321.880711,27.7378631 L322.741231,25.6582731 Z M326.111601,24.5826231 L326.111601,29.6023231 L327.115541,29.6023231 L327.115541,28.0247031 L328.406321,28.0247031 C329.804666,28.0247031 330.557621,27.2717481 330.557621,26.3036631 C330.557621,25.3355781 329.804666,24.5826231 328.406321,24.5826231 L326.111601,24.5826231 Z M328.406321,25.4072881 C329.087566,25.4072881 329.517826,25.8375481 329.517826,26.3036631 C329.517826,26.7697781 329.087566,27.2000381 328.406321,27.2000381 L327.115541,27.2000381 L327.115541,25.4072881 L328.406321,25.4072881 Z M330.507424,27.0924731 C330.507424,28.6342381 331.618929,29.7457431 333.196549,29.7457431 C334.774169,29.7457431 335.885674,28.6342381 335.885674,27.0924731 C335.885674,25.5507081 334.774169,24.4392031 333.196549,24.4392031 C331.618929,24.4392031 330.507424,25.5507081 330.507424,27.0924731 L330.507424,27.0924731 Z M334.845879,27.0924731 C334.845879,28.1681231 334.128779,28.8852231 333.196549,28.8852231 C332.264319,28.8852231 331.547219,28.1681231 331.547219,27.0924731 C331.547219,26.0168231 332.264319,25.2997231 333.196549,25.2997231 C334.128779,25.2997231 334.845879,26.0168231 334.845879,27.0924731 L334.845879,27.0924731 Z M337.218763,24.5826231 L336.824358,27.7737181 C336.745477,28.4191081 336.394098,28.7776581 335.963838,28.7776581 L335.892128,28.7776581 L335.892128,30.6779731 L336.896068,30.6779731 L336.896068,29.6023231 L340.481568,29.6023231 L340.481568,30.6779731 L341.485508,30.6779731 L341.485508,28.7776581 L340.840118,28.7776581 L340.840118,24.5826231 L337.218763,24.5826231 Z M337.864153,27.7737181 L338.150993,25.4072881 L339.836178,25.4072881 L339.836178,28.7776581 L337.398038,28.7776581 L337.398038,28.7418031 C337.398038,28.7418031 337.828298,28.3115431 337.864153,27.7737181 L337.864153,27.7737181 Z M345.559353,24.5826231 L345.559353,26.6980681 L342.977793,26.6980681 L342.977793,24.5826231 L341.973853,24.5826231 L341.973853,29.6023231 L342.977793,29.6023231 L342.977793,27.5227331 L345.559353,27.5227331 L345.559353,29.6023231 L346.563293,29.6023231 L346.563293,24.5826231 L345.559353,24.5826231 Z M350.543198,24.5826231 L349.288273,24.5826231 L347.208683,29.6023231 L348.284333,29.6023231 L348.678738,28.5983831 L351.152733,28.5983831 L351.547138,29.6023231 L352.622788,29.6023231 L350.543198,24.5826231 Z M349.897808,25.6582731 L349.933663,25.6582731 L350.794183,27.7378631 L349.037288,27.7378631 L349.897808,25.6582731 Z M355.225861,24.5826231 C353.820345,24.5826231 353.146271,25.2638681 353.146271,26.2319531 C353.146271,27.3793131 354.150211,27.6661531 354.150211,27.6661531 L354.150211,27.7020081 L352.787721,29.6023231 L353.935081,29.6023231 L355.154151,27.8812831 L356.552496,27.8812831 L356.552496,29.6023231 L357.556436,29.6023231 L357.556436,24.5826231 L355.225861,24.5826231 Z M354.186066,26.2319531 C354.186066,25.7658381 354.544616,25.4072881 355.225861,25.4072881 L356.552496,25.4072881 L356.552496,27.0566181 L355.225861,27.0566181 C354.544616,27.0566181 354.186066,26.6263581 354.186066,26.2319531 L354.186066,26.2319531 Z M360.345955,24.5826231 L360.345955,25.4072881 L362.066995,25.4072881 L362.066995,29.6023231 L363.070935,29.6023231 L363.070935,25.4072881 L364.791975,25.4072881 L364.791975,24.5826231 L360.345955,24.5826231 Z M365.215064,27.0924731 C365.215064,28.6342381 366.326569,29.7457431 367.904189,29.7457431 C369.481809,29.7457431 370.593314,28.6342381 370.593314,27.0924731 C370.593314,25.5507081 369.481809,24.4392031 367.904189,24.4392031 C366.326569,24.4392031 365.215064,25.5507081 365.215064,27.0924731 L365.215064,27.0924731 Z M369.553519,27.0924731 C369.553519,28.1681231 368.836419,28.8852231 367.904189,28.8852231 C366.971959,28.8852231 366.254859,28.1681231 366.254859,27.0924731 C366.254859,26.0168231 366.971959,25.2997231 367.904189,25.2997231 C368.836419,25.2997231 369.553519,26.0168231 369.553519,27.0924731 L369.553519,27.0924731 Z M371.468176,24.5826231 L371.468176,29.6023231 L372.472116,29.6023231 L372.472116,25.4072881 L375.017821,25.4072881 L375.017821,29.6023231 L376.021761,29.6023231 L376.021761,24.5826231 L371.468176,24.5826231 Z M378.072667,24.5826231 L377.678262,27.8812831 C377.599381,28.5625281 377.283857,28.8852231 376.817742,28.8852231 L376.602612,28.8852231 L376.602612,29.6740331 C376.602612,29.6740331 376.810571,29.7457431 377.104582,29.7457431 C377.965102,29.7457431 378.574637,29.1362081 378.718057,27.8812831 L379.004897,25.4072881 L380.761792,25.4072881 L380.761792,29.6023231 L381.765732,29.6023231 L381.765732,24.5826231 L378.072667,24.5826231 Z M383.931374,29.6023231 L386.441224,26.1602431 L386.477079,26.1602431 L386.477079,29.6023231 L387.481019,29.6023231 L387.481019,24.5826231 L386.477079,24.5826231 L383.967229,28.0247031 L383.931374,28.0247031 L383.931374,24.5826231 L382.927434,24.5826231 L382.927434,29.6023231 L383.931374,29.6023231 Z M388.642721,29.6023231 L391.1454,29.6023231 C392.443351,29.6023231 393.124596,28.9210781 393.124596,28.1681231 C393.124596,27.1641831 391.941381,26.9633951 391.941381,26.9633951 L391.941381,26.9275401 C391.941381,26.9275401 392.766046,26.7339231 392.766046,25.9451131 C392.766046,25.1563031 392.192366,24.5826231 390.865731,24.5826231 L388.642721,24.5826231 L388.642721,29.6023231 Z M391.152571,27.4510231 C391.797961,27.4510231 392.084801,27.7378631 392.084801,28.1322681 C392.084801,28.4908181 391.797961,28.7776581 391.152571,28.7776581 L389.646661,28.7776581 L389.646661,27.4510231 L391.152571,27.4510231 Z M390.865731,26.6263581 L389.646661,26.6263581 L389.646661,25.4072881 L390.865731,25.4072881 C391.439411,25.4072881 391.726251,25.6941281 391.726251,26.0168231 C391.726251,26.3395181 391.439411,26.6263581 390.865731,26.6263581 L390.865731,26.6263581 Z M397.376999,24.5826231 L397.376999,26.6980681 L394.795439,26.6980681 L394.795439,24.5826231 L393.791499,24.5826231 L393.791499,29.6023231 L394.795439,29.6023231 L394.795439,27.5227331 L397.376999,27.5227331 L397.376999,29.6023231 L398.380939,29.6023231 L398.380939,24.5826231 L397.376999,24.5826231 Z M402.360844,24.5826231 L401.105919,24.5826231 L399.026329,29.6023231 L400.101979,29.6023231 L400.496384,28.5983831 L402.970379,28.5983831 L403.364784,29.6023231 L404.440434,29.6023231 L402.360844,24.5826231 Z M401.715454,25.6582731 L401.751309,25.6582731 L402.611829,27.7378631 L400.854934,27.7378631 L401.715454,25.6582731 Z M407.043507,24.5826231 C405.637991,24.5826231 404.963917,25.2638681 404.963917,26.2319531 C404.963917,27.3793131 405.967857,27.6661531 405.967857,27.6661531 L405.967857,27.7020081 L404.605367,29.6023231 L405.752727,29.6023231 L406.971797,27.8812831 L408.370142,27.8812831 L408.370142,29.6023231 L409.374082,29.6023231 L409.374082,24.5826231 L407.043507,24.5826231 Z M406.003712,26.2319531 C406.003712,25.7658381 406.362262,25.4072881 407.043507,25.4072881 L408.370142,25.4072881 L408.370142,27.0566181 L407.043507,27.0566181 C406.362262,27.0566181 406.003712,26.6263581 406.003712,26.2319531 L406.003712,26.2319531 Z M413.619314,28.7776581 L413.619314,27.2000381 L415.017659,27.2000381 C415.663049,27.2000381 416.021599,27.5585881 416.021599,27.9888481 C416.021599,28.4191081 415.663049,28.7776581 415.017659,28.7776581 L413.619314,28.7776581 Z M417.061394,27.9888481 C417.061394,27.1283281 416.308439,26.3753731 415.017659,26.3753731 L413.619314,26.3753731 L413.619314,25.4072881 L416.595279,25.4072881 L416.595279,24.5826231 L412.615374,24.5826231 L412.615374,29.6023231 L415.017659,29.6023231 C416.308439,29.6023231 417.061394,28.8493681 417.061394,27.9888481 L417.061394,27.9888481 Z M418.875657,29.6023231 L421.385507,26.1602431 L421.421362,26.1602431 L421.421362,29.6023231 L422.425302,29.6023231 L422.425302,24.5826231 L421.421362,24.5826231 L418.911512,28.0247031 L418.875657,28.0247031 L418.875657,24.5826231 L417.871717,24.5826231 L417.871717,29.6023231 L418.875657,29.6023231 Z M423.587004,24.5826231 L423.587004,29.6023231 L424.590944,29.6023231 L424.590944,28.0247031 L425.881724,28.0247031 C427.280069,28.0247031 428.033024,27.2717481 428.033024,26.3036631 C428.033024,25.3355781 427.280069,24.5826231 425.881724,24.5826231 L423.587004,24.5826231 Z M425.881724,25.4072881 C426.562969,25.4072881 426.993229,25.8375481 426.993229,26.3036631 C426.993229,26.7697781 426.562969,27.2000381 425.881724,27.2000381 L424.590944,27.2000381 L424.590944,25.4072881 L425.881724,25.4072881 Z M429.761235,24.5826231 L428.72144,24.5826231 L429.07999,25.8734031 C429.388343,26.9849081 429.976365,27.1641831 429.976365,27.1641831 L429.976365,27.2000381 L428.327035,29.6023231 L429.51025,29.6023231 L430.980305,27.4510231 L431.87668,27.4510231 L431.87668,29.6023231 L432.88062,29.6023231 L432.88062,27.4510231 L433.776995,27.4510231 L435.24705,29.6023231 L436.430265,29.6023231 L434.780935,27.2000381 L434.780935,27.1641831 C434.780935,27.1641831 435.368957,26.9849081 435.67731,25.8734031 L436.03586,24.5826231 L434.996065,24.5826231 L434.637515,25.8734031 C434.515608,26.3036631 434.207255,26.6263581 433.633575,26.6263581 L432.88062,26.6263581 L432.88062,24.5826231 L431.87668,24.5826231 L431.87668,26.6263581 L431.123725,26.6263581 C430.550045,26.6263581 430.241692,26.3036631 430.119785,25.8734031 L429.761235,24.5826231 Z M439.607018,24.5826231 L438.352093,24.5826231 L436.272503,29.6023231 L437.348153,29.6023231 L437.742558,28.5983831 L440.216553,28.5983831 L440.610958,29.6023231 L441.686608,29.6023231 L439.607018,24.5826231 Z M438.961628,25.6582731 L438.997483,25.6582731 L439.858003,27.7378631 L438.101108,27.7378631 L438.961628,25.6582731 Z" id="Международная-топлив" fill="#1A1918" sketch:type="MSShapeGroup"></path>
        </g>
        <g id="ЂЃ£Ѓ-†£аЃ-2" sketch:type="MSLayerGroup" transform="translate(54.000000, 0.000000)">
            <path d="M44.119,0.513 L27.938,0.513 L0.843,32.326 L0.843,58.807 L9.293,58.807 L9.293,34.017 L31.262,8.034 L40.809,8.034 L62.767,34.017 L62.767,58.807 L71.214,58.807 L71.214,32.326 L44.119,0.513" id="Fill-1" fill="#2196F3" sketch:type="MSShapeGroup"></path>
            <path d="M0.843,58.837 L9.293,58.837 L9.293,34.047 L0.843,32.356 L0.843,58.837" id="Fill-2" fill="#2175B8" sketch:type="MSShapeGroup"></path>
            <path d="M71.214,58.837 L62.764,58.837 L62.764,34.047 L71.214,32.356 L71.214,58.837" id="Fill-3" fill="#2175B8" sketch:type="MSShapeGroup"></path>
            <path d="M31.35,22.748 L0.843,58.807 L13.511,58.807 L35.588,32.824 L36.469,32.824 L58.546,58.807 L71.214,58.807 L40.707,22.748 L31.35,22.748" id="Fill-4" fill="#4D4D4F" sketch:type="MSShapeGroup"></path>
        </g>
    </g>
</svg>