<?xml version="1.0" encoding="UTF-8" standalone="no"?>
<svg width="180px" height="97px" viewBox="0 0 180 97" version="1.1" xmlns="http://www.w3.org/2000/svg" xmlns:xlink="http://www.w3.org/1999/xlink" xmlns:sketch="http://www.bohemiancoding.com/sketch/ns">
    <!-- Generator: Sketch 3.2.2 (9983) - http://www.bohemiancoding.com/sketch -->
    <title>fuelfor_en</title>
    <desc>Created with Sketch.</desc>
    <defs></defs>
    <g id="Page-1" stroke="none" stroke-width="1" fill="none" fill-rule="evenodd" sketch:type="MSPage">
        <g id="ЂЃ£Ѓ-†£аЃ-2" sketch:type="MSLayerGroup" transform="translate(10.000000, -132.000000)">
            <path d="M88.0944,132.513 L71.9134,132.513 L44.8184,164.326 L44.8184,190.807 L53.2684,190.807 L53.2684,166.017 L75.2374,140.034 L84.7844,140.034 L106.7424,166.017 L106.7424,190.807 L115.1894,190.807 L115.1894,164.326 L88.0944,132.513" id="Fill-12" fill="#2196F3" sketch:type="MSShapeGroup"></path>
            <path d="M44.8184,190.837 L53.2684,190.837 L53.2684,166.047 L44.8184,164.356 L44.8184,190.837" id="Fill-11" fill="#2175B8" sketch:type="MSShapeGroup"></path>
            <path d="M115.1894,190.837 L106.7394,190.837 L106.7394,166.047 L115.1894,164.356 L115.1894,190.837" id="Fill-10" fill="#2175B8" sketch:type="MSShapeGroup"></path>
            <path d="M75.3254,154.748 L44.8184,190.807 L57.4864,190.807 L79.5634,164.824 L80.4444,164.824 L102.5214,190.807 L115.1894,190.807 L84.6824,154.748 L75.3254,154.748" id="Fill-9" fill="#4D4D4F" sketch:type="MSShapeGroup"></path>
            <text id="FuelFOR" sketch:type="MSTextLayer" font-family="Prosto Sans" font-size="21.1873" font-weight="bold" letter-spacing="-1.05936503" fill="#4D4D4F">
                <tspan x="30.5039" y="213.431635">FuelFOR</tspan>
            </text>
            <text id="International-fuel-E" sketch:type="MSTextLayer" font-family="Prosto Sans" font-size="7.171" font-weight="bold" fill="#4D4D4F">
                <tspan x="16.0039" y="226.431635">Intern</tspan>
                <tspan x="44.6879" y="226.431635" letter-spacing="-0.4295429">a</tspan>
                <tspan x="49.3712801" y="226.431635">tional fuel E</tspan>
                <tspan x="106.897042" y="226.431635" letter-spacing="-0.14342">x</tspan>
                <tspan x="111.880887" y="226.431635">change</tspan>
            </text>
        </g>
    </g>
</svg>