<?xml version="1.0" encoding="UTF-8" standalone="no"?>
<svg width="180px" height="97px" viewBox="0 0 180 97" version="1.1" xmlns="http://www.w3.org/2000/svg" xmlns:xlink="http://www.w3.org/1999/xlink" xmlns:sketch="http://www.bohemiancoding.com/sketch/ns">
    <!-- Generator: Sketch 3.2.2 (9983) - http://www.bohemiancoding.com/sketch -->
    <title>fuelfor_en</title>
    <desc>Created with Sketch.</desc>
    <defs></defs>
    <g id="Page-1" stroke="none" stroke-width="1" fill="none" fill-rule="evenodd" sketch:type="MSPage">
        <g id="text" sketch:type="MSLayerGroup" transform="translate(-272.000000, -67.000000)" fill="#4D4D4F">
            <path d="M314.220071,148.431635 L317.186293,148.431635 L317.186293,142.922937 L323.33061,142.922937 L323.33061,140.507584 L317.186293,140.507584 L317.186293,136.037064 L326.084959,136.037064 L326.084959,133.600525 L314.220071,133.600525 L314.220071,148.431635 Z M333.818324,148.855381 C337.949847,148.855381 340.59826,146.206968 340.59826,142.499191 L340.59826,133.600525 L337.632038,133.600525 L337.632038,142.499191 C337.632038,144.829794 336.148927,146.312905 333.818324,146.312905 C331.487721,146.312905 330.00461,144.829794 330.00461,142.499191 L330.00461,133.600525 L327.038388,133.600525 L327.038388,142.499191 C327.038388,146.206968 329.6868,148.855381 333.818324,148.855381 L333.818324,148.855381 Z M342.886488,148.431635 L354.963249,148.431635 L354.963249,145.995095 L345.85271,145.995095 L345.85271,142.287318 L351.997027,142.287318 L351.997027,139.850778 L345.85271,139.850778 L345.85271,136.037064 L354.751376,136.037064 L354.751376,133.600525 L342.886488,133.600525 L342.886488,148.431635 Z M356.192112,148.431635 L367.527318,148.431635 L367.527318,145.995095 L359.158334,145.995095 L359.158334,133.600525 L356.192112,133.600525 L356.192112,148.431635 Z M368.565496,148.431635 L371.531718,148.431635 L371.531718,142.922937 L377.676035,142.922937 L377.676035,140.507584 L371.531718,140.507584 L371.531718,136.037064 L380.430384,136.037064 L380.430384,133.600525 L368.565496,133.600525 L368.565496,148.431635 Z M380.197323,141.01608 C380.197323,145.571349 383.481355,148.855381 388.142561,148.855381 C392.803767,148.855381 396.087798,145.571349 396.087798,141.01608 C396.087798,136.46081 392.803767,133.176779 388.142561,133.176779 C383.481355,133.176779 380.197323,136.46081 380.197323,141.01608 L380.197323,141.01608 Z M393.01564,141.01608 C393.01564,144.194175 390.89691,146.312905 388.142561,146.312905 C385.388212,146.312905 383.269482,144.194175 383.269482,141.01608 C383.269482,137.837985 385.388212,135.719255 388.142561,135.719255 C390.89691,135.719255 393.01564,137.837985 393.01564,141.01608 L393.01564,141.01608 Z M397.613284,133.600525 L397.613284,148.431635 L400.579506,148.431635 L400.579506,143.346683 L404.711029,143.346683 L408.206934,148.431635 L411.702838,148.431635 L407.783188,142.817 L407.783188,142.711064 C407.783188,142.711064 410.537537,141.651699 410.537537,138.473604 C410.537537,135.719255 408.418807,133.600525 404.39322,133.600525 L397.613284,133.600525 Z M407.465378,138.473604 C407.465378,139.638905 406.406013,140.910143 404.39322,140.910143 L400.579506,140.910143 L400.579506,136.037064 L404.39322,136.037064 C406.406013,136.037064 407.465378,137.096429 407.465378,138.473604 L407.465378,138.473604 Z" id="FuelFOR" sketch:type="MSShapeGroup"></path>
            <path d="M299.588691,156.411935 L298.584751,156.411935 L298.584751,161.431635 L299.588691,161.431635 L299.588691,156.411935 Z M304.300038,159.854015 L301.826043,156.411935 L300.750393,156.411935 L300.750393,161.431635 L301.754333,161.431635 L301.754333,157.989555 L301.790188,157.989555 L304.264183,161.431635 L305.339833,161.431635 L305.339833,156.411935 L304.335893,156.411935 L304.335893,159.854015 L304.300038,159.854015 Z M306.049762,156.411935 L306.049762,157.2366 L307.770802,157.2366 L307.770802,161.431635 L308.774742,161.431635 L308.774742,157.2366 L310.495782,157.2366 L310.495782,156.411935 L306.049762,156.411935 Z M311.205711,161.431635 L315.293181,161.431635 L315.293181,160.60697 L312.209651,160.60697 L312.209651,159.352045 L314.289241,159.352045 L314.289241,158.52738 L312.209651,158.52738 L312.209651,157.2366 L315.221471,157.2366 L315.221471,156.411935 L311.205711,156.411935 L311.205711,161.431635 Z M316.067649,156.411935 L316.067649,161.431635 L317.071589,161.431635 L317.071589,159.710595 L318.469934,159.710595 L319.653149,161.431635 L320.836364,161.431635 L319.509729,159.53132 L319.509729,159.495465 C319.509729,159.495465 320.441959,159.136915 320.441959,158.061265 C320.441959,157.129035 319.724859,156.411935 318.362369,156.411935 L316.067649,156.411935 Z M319.402164,158.061265 C319.402164,158.45567 319.043614,158.88593 318.362369,158.88593 L317.071589,158.88593 L317.071589,157.2366 L318.362369,157.2366 C319.043614,157.2366 319.402164,157.59515 319.402164,158.061265 L319.402164,158.061265 Z M325.067254,159.854015 L322.593259,156.411935 L321.517609,156.411935 L321.517609,161.431635 L322.521549,161.431635 L322.521549,157.989555 L322.557404,157.989555 L325.031399,161.431635 L326.107049,161.431635 L326.107049,156.411935 L325.103109,156.411935 L325.103109,159.854015 L325.067254,159.854015 Z M330.086954,156.411935 L328.832029,156.411935 L326.752439,161.431635 L327.828089,161.431635 L328.222494,160.427695 L330.696489,160.427695 L331.090894,161.431635 L332.166544,161.431635 L330.086954,156.411935 Z M329.441564,157.487585 L329.477419,157.487585 L330.337939,159.567175 L328.581044,159.567175 L329.441564,157.487585 Z M331.500358,156.411935 L331.500358,157.2366 L333.221398,157.2366 L333.221398,161.431635 L334.225338,161.431635 L334.225338,157.2366 L335.946378,157.2366 L335.946378,156.411935 L331.500358,156.411935 Z M337.660247,156.411935 L336.656307,156.411935 L336.656307,161.431635 L337.660247,161.431635 L337.660247,156.411935 Z M338.535109,158.921785 C338.535109,160.46355 339.646614,161.575055 341.224234,161.575055 C342.801854,161.575055 343.913359,160.46355 343.913359,158.921785 C343.913359,157.38002 342.801854,156.268515 341.224234,156.268515 C339.646614,156.268515 338.535109,157.38002 338.535109,158.921785 L338.535109,158.921785 Z M342.873564,158.921785 C342.873564,159.997435 342.156464,160.714535 341.224234,160.714535 C340.292004,160.714535 339.574904,159.997435 339.574904,158.921785 C339.574904,157.846135 340.292004,157.129035 341.224234,157.129035 C342.156464,157.129035 342.873564,157.846135 342.873564,158.921785 L342.873564,158.921785 Z M348.337866,159.854015 L345.863871,156.411935 L344.788221,156.411935 L344.788221,161.431635 L345.792161,161.431635 L345.792161,157.989555 L345.828016,157.989555 L348.302011,161.431635 L349.377661,161.431635 L349.377661,156.411935 L348.373721,156.411935 L348.373721,159.854015 L348.337866,159.854015 Z M353.357566,156.411935 L352.102641,156.411935 L350.023051,161.431635 L351.098701,161.431635 L351.493106,160.427695 L353.967101,160.427695 L354.361506,161.431635 L355.437156,161.431635 L353.357566,156.411935 Z M352.712176,157.487585 L352.748031,157.487585 L353.608551,159.567175 L351.851656,159.567175 L352.712176,157.487585 Z M356.082546,161.431635 L359.919031,161.431635 L359.919031,160.60697 L357.086486,160.60697 L357.086486,156.411935 L356.082546,156.411935 L356.082546,161.431635 Z M362.70855,161.431635 L363.71249,161.431635 L363.71249,159.567175 L365.79208,159.567175 L365.79208,158.749681 L363.71249,158.749681 L363.71249,157.2366 L366.72431,157.2366 L366.72431,156.411935 L362.70855,156.411935 L362.70855,161.431635 Z M369.700275,161.575055 C371.09862,161.575055 371.994995,160.67868 371.994995,159.423755 L371.994995,156.411935 L370.991055,156.411935 L370.991055,159.423755 C370.991055,160.212565 370.489085,160.714535 369.700275,160.714535 C368.911465,160.714535 368.409495,160.212565 368.409495,159.423755 L368.409495,156.411935 L367.405555,156.411935 L367.405555,159.423755 C367.405555,160.67868 368.30193,161.575055 369.700275,161.575055 L369.700275,161.575055 Z M373.128013,161.431635 L377.215483,161.431635 L377.215483,160.60697 L374.131953,160.60697 L374.131953,159.352045 L376.211543,159.352045 L376.211543,158.52738 L374.131953,158.52738 L374.131953,157.2366 L377.143773,157.2366 L377.143773,156.411935 L373.128013,156.411935 L373.128013,161.431635 Z M377.989951,161.431635 L381.826436,161.431635 L381.826436,160.60697 L378.993891,160.60697 L378.993891,156.411935 L377.989951,156.411935 L377.989951,161.431635 Z M384.615955,161.431635 L388.703425,161.431635 L388.703425,160.60697 L385.619895,160.60697 L385.619895,159.352045 L387.699485,159.352045 L387.699485,158.52738 L385.619895,158.52738 L385.619895,157.2366 L388.631715,157.2366 L388.631715,156.411935 L384.615955,156.411935 L384.615955,161.431635 Z M391.514457,159.567175 L391.550312,159.567175 L392.948657,161.431635 L394.167727,161.431635 L392.267412,158.850075 L393.952597,156.411935 L392.733527,156.411935 L391.550312,158.132975 L391.514457,158.132975 L390.331242,156.411935 L389.112172,156.411935 L390.797357,158.850075 L388.897042,161.431635 L390.116112,161.431635 L391.514457,159.567175 Z M396.935733,156.268515 C395.286403,156.268515 394.174898,157.38002 394.174898,158.921785 C394.174898,160.46355 395.286403,161.575055 396.935733,161.575055 C398.011383,161.575055 398.692628,161.001375 398.692628,161.001375 L398.262368,160.32013 C398.262368,160.32013 397.724543,160.714535 397.007443,160.714535 C395.931793,160.714535 395.214693,159.997435 395.214693,158.921785 C395.214693,157.846135 395.931793,157.129035 397.007443,157.129035 C397.674346,157.129035 398.190658,157.45173 398.190658,157.45173 L398.620918,156.770485 C398.620918,156.770485 397.975528,156.268515 396.935733,156.268515 L396.935733,156.268515 Z M403.052596,156.411935 L403.052596,158.52738 L400.471036,158.52738 L400.471036,156.411935 L399.467096,156.411935 L399.467096,161.431635 L400.471036,161.431635 L400.471036,159.352045 L403.052596,159.352045 L403.052596,161.431635 L404.056536,161.431635 L404.056536,156.411935 L403.052596,156.411935 Z M408.036441,156.411935 L406.781516,156.411935 L404.701926,161.431635 L405.777576,161.431635 L406.171981,160.427695 L408.645976,160.427695 L409.040381,161.431635 L410.116031,161.431635 L408.036441,156.411935 Z M407.391051,157.487585 L407.426906,157.487585 L408.287426,159.567175 L406.530531,159.567175 L407.391051,157.487585 Z M414.311066,159.854015 L411.837071,156.411935 L410.761421,156.411935 L410.761421,161.431635 L411.765361,161.431635 L411.765361,157.989555 L411.801216,157.989555 L414.275211,161.431635 L415.350861,161.431635 L415.350861,156.411935 L414.346921,156.411935 L414.346921,159.854015 L414.311066,159.854015 Z M418.950703,156.268515 C417.337228,156.268515 416.225723,157.38002 416.225723,158.921785 C416.225723,160.46355 417.337228,161.575055 418.950703,161.575055 C420.098063,161.575055 420.886873,160.951178 420.886873,160.951178 L420.886873,158.52738 L418.843138,158.52738 L418.843138,159.352045 L419.882933,159.352045 L419.882933,160.53526 C419.882933,160.53526 419.524383,160.714535 419.022413,160.714535 C417.946763,160.714535 417.229663,159.997435 417.229663,158.921785 C417.229663,157.846135 417.946763,157.129035 419.022413,157.129035 C419.689316,157.129035 420.205628,157.45173 420.205628,157.45173 L420.635888,156.770485 C420.635888,156.770485 419.990498,156.268515 418.950703,156.268515 L418.950703,156.268515 Z M421.890813,161.431635 L425.978283,161.431635 L425.978283,160.60697 L422.894753,160.60697 L422.894753,159.352045 L424.974343,159.352045 L424.974343,158.52738 L422.894753,158.52738 L422.894753,157.2366 L425.906573,157.2366 L425.906573,156.411935 L421.890813,156.411935 L421.890813,161.431635 Z" id="International-fuel-E" sketch:type="MSShapeGroup"></path>
        </g>
        <g id="ЂЃ£Ѓ-†£аЃ-2" sketch:type="MSLayerGroup" transform="translate(54.000000, -132.000000)">
            <path d="M44.0944,132.513 L27.9134,132.513 L0.8184,164.326 L0.8184,190.807 L9.2684,190.807 L9.2684,166.017 L31.2374,140.034 L40.7844,140.034 L62.7424,166.017 L62.7424,190.807 L71.1894,190.807 L71.1894,164.326 L44.0944,132.513" id="Fill-12" fill="#2196F3" sketch:type="MSShapeGroup"></path>
            <path d="M0.8184,190.837 L9.2684,190.837 L9.2684,166.047 L0.8184,164.356 L0.8184,190.837" id="Fill-11" fill="#2175B8" sketch:type="MSShapeGroup"></path>
            <path d="M71.1894,190.837 L62.7394,190.837 L62.7394,166.047 L71.1894,164.356 L71.1894,190.837" id="Fill-10" fill="#2175B8" sketch:type="MSShapeGroup"></path>
            <path d="M31.3254,154.748 L0.8184,190.807 L13.4864,190.807 L35.5634,164.824 L36.4444,164.824 L58.5214,190.807 L71.1894,190.807 L40.6824,154.748 L31.3254,154.748" id="Fill-9" fill="#4D4D4F" sketch:type="MSShapeGroup"></path>
        </g>
    </g>
</svg>