<?xml version="1.0" encoding="UTF-8" standalone="no"?>
<svg width="198px" height="97px" viewBox="0 0 198 97" version="1.1" xmlns="http://www.w3.org/2000/svg" xmlns:xlink="http://www.w3.org/1999/xlink" xmlns:sketch="http://www.bohemiancoding.com/sketch/ns">
    <!-- Generator: Sketch 3.2.2 (9983) - http://www.bohemiancoding.com/sketch -->
    <title>woodfor_ru</title>
    <desc>Created with Sketch.</desc>
    <defs></defs>
    <g id="Page-1" stroke="none" stroke-width="1" fill="none" fill-rule="evenodd" sketch:type="MSPage">
        <g id="ЂЃ£Ѓ-†£аЃ-3" sketch:type="MSLayerGroup" transform="translate(4.000000, 0.000000)">
            <text id="ВудФОР" sketch:type="MSTextLayer" font-family="Prosto Sans" font-size="21.1873" font-weight="bold" fill="#4D4D4F">
                <tspan x="43.0039" y="81.0077885">ВудФОР</tspan>
            </text>
            <path d="M102.119,0.513 L85.938,0.513 L58.843,32.326 L58.843,58.807 L67.293,58.807 L67.293,34.017 L89.262,8.034 L98.809,8.034 L120.767,34.017 L120.767,58.807 L129.214,58.807 L129.214,32.326 L102.119,0.513" id="Fill-1" fill="#4CAF50" sketch:type="MSShapeGroup"></path>
            <text id="Международная-биржа-" sketch:type="MSTextLayer" font-family="Prosto Sans" font-size="7.171" font-weight="bold" fill="#4D4D4F">
                <tspan x="0.8633" y="94.6023231">Межд</tspan>
                <tspan x="26.865346" y="94.6023231" letter-spacing="0.14342">у</tspan>
                <tspan x="32.236425" y="94.6023231">на</tspan>
                <tspan x="43.53075" y="94.6023231" letter-spacing="-0.28684">р</tspan>
                <tspan x="48.213413" y="94.6023231" letter-spacing="-0.1441371">о</tspan>
                <tspan x="53.8921279" y="94.6023231" letter-spacing="-0.1427029">д</tspan>
                <tspan x="59.393002" y="94.6023231">ная бир</tspan>
                <tspan x="94.44485" y="94.6023231" letter-spacing="-0.14342">ж</tspan>
                <tspan x="102.390318" y="94.6023231">а пиломатериалов</tspan>
            </text>
            <path d="M58.843,58.837 L67.293,58.837 L67.293,34.047 L58.843,32.356 L58.843,58.837" id="Fill-2" fill="#428C45" sketch:type="MSShapeGroup"></path>
            <path d="M129.214,58.837 L120.764,58.837 L120.764,34.047 L129.214,32.356 L129.214,58.837" id="Fill-3" fill="#428C45" sketch:type="MSShapeGroup"></path>
            <path d="M89.35,22.748 L58.843,58.807 L71.511,58.807 L93.588,32.824 L94.469,32.824 L116.546,58.807 L129.214,58.807 L98.707,22.748 L89.35,22.748" id="Fill-4" fill="#4D4D4F" sketch:type="MSShapeGroup"></path>
        </g>
    </g>
</svg>