<?xml version="1.0" encoding="UTF-8" standalone="no"?>
<svg width="198px" height="97px" viewBox="0 0 198 97" version="1.1" xmlns="http://www.w3.org/2000/svg" xmlns:xlink="http://www.w3.org/1999/xlink" xmlns:sketch="http://www.bohemiancoding.com/sketch/ns">
    <!-- Generator: Sketch 3.2.2 (9983) - http://www.bohemiancoding.com/sketch -->
    <title>woodfor_en</title>
    <desc>Created with Sketch.</desc>
    <defs></defs>
    <g id="Page-1" stroke="none" stroke-width="1" fill="none" fill-rule="evenodd" sketch:type="MSPage">
        <g id="text" sketch:type="MSLayerGroup" transform="translate(-541.000000, -65.000000)" fill="#4D4D4F">
            <path d="M593.70844,134.990592 L596.780599,146.007988 L600.700249,146.007988 L604.831773,131.176878 L601.653678,131.176878 L598.581519,142.300211 L598.475583,142.300211 L595.445799,131.176878 L591.865145,131.176878 L588.835361,142.300211 L588.729425,142.300211 L585.657266,131.176878 L582.479171,131.176878 L586.610695,146.007988 L590.530345,146.007988 L593.602504,134.990592 L593.70844,134.990592 Z M605.022459,138.592433 C605.022459,143.147703 608.30649,146.431734 612.967696,146.431734 C617.628902,146.431734 620.912934,143.147703 620.912934,138.592433 C620.912934,134.037164 617.628902,130.753132 612.967696,130.753132 C608.30649,130.753132 605.022459,134.037164 605.022459,138.592433 L605.022459,138.592433 Z M617.840775,138.592433 C617.840775,141.770528 615.722045,143.889258 612.967696,143.889258 C610.213347,143.889258 608.094617,141.770528 608.094617,138.592433 C608.094617,135.414338 610.213347,133.295608 612.967696,133.295608 C615.722045,133.295608 617.840775,135.414338 617.840775,138.592433 L617.840775,138.592433 Z M621.590927,138.592433 C621.590927,143.147703 624.874959,146.431734 629.536165,146.431734 C634.197371,146.431734 637.481402,143.147703 637.481402,138.592433 C637.481402,134.037164 634.197371,130.753132 629.536165,130.753132 C624.874959,130.753132 621.590927,134.037164 621.590927,138.592433 L621.590927,138.592433 Z M634.409244,138.592433 C634.409244,141.770528 632.290514,143.889258 629.536165,143.889258 C626.781816,143.889258 624.663086,141.770528 624.663086,138.592433 C624.663086,135.414338 626.781816,133.295608 629.536165,133.295608 C632.290514,133.295608 634.409244,135.414338 634.409244,138.592433 L634.409244,138.592433 Z M639.006888,131.176878 L639.006888,146.007988 L644.727459,146.007988 C649.494601,146.007988 652.672696,142.93583 652.672696,138.592433 C652.672696,134.354973 649.494601,131.176878 644.727459,131.176878 L639.006888,131.176878 Z M644.727459,133.613418 C647.587744,133.613418 649.600538,135.626211 649.600538,138.592433 C649.600538,141.558655 647.587744,143.571449 644.727459,143.571449 L641.97311,143.571449 L641.97311,133.613418 L644.727459,133.613418 Z M654.198182,146.007988 L657.164404,146.007988 L657.164404,140.49929 L663.308721,140.49929 L663.308721,138.083938 L657.164404,138.083938 L657.164404,133.613418 L666.06307,133.613418 L666.06307,131.176878 L654.198182,131.176878 L654.198182,146.007988 Z M665.830009,138.592433 C665.830009,143.147703 669.114041,146.431734 673.775247,146.431734 C678.436453,146.431734 681.720484,143.147703 681.720484,138.592433 C681.720484,134.037164 678.436453,130.753132 673.775247,130.753132 C669.114041,130.753132 665.830009,134.037164 665.830009,138.592433 L665.830009,138.592433 Z M678.648326,138.592433 C678.648326,141.770528 676.529596,143.889258 673.775247,143.889258 C671.020898,143.889258 668.902168,141.770528 668.902168,138.592433 C668.902168,135.414338 671.020898,133.295608 673.775247,133.295608 C676.529596,133.295608 678.648326,135.414338 678.648326,138.592433 L678.648326,138.592433 Z M683.24597,131.176878 L683.24597,146.007988 L686.212192,146.007988 L686.212192,140.923036 L690.343715,140.923036 L693.83962,146.007988 L697.335524,146.007988 L693.415874,140.393354 L693.415874,140.287417 C693.415874,140.287417 696.170223,139.228052 696.170223,136.049957 C696.170223,133.295608 694.051493,131.176878 690.025906,131.176878 L683.24597,131.176878 Z M693.098064,136.049957 C693.098064,137.215259 692.038699,138.486497 690.025906,138.486497 L686.212192,138.486497 L686.212192,133.613418 L690.025906,133.613418 C692.038699,133.613418 693.098064,134.672783 693.098064,136.049957 L693.098064,136.049957 Z" id="WoodFOR" sketch:type="MSShapeGroup"></path>
            <path d="M569.613291,153.582923 L568.609351,153.582923 L568.609351,158.602623 L569.613291,158.602623 L569.613291,153.582923 Z M574.324638,157.025003 L571.850643,153.582923 L570.774993,153.582923 L570.774993,158.602623 L571.778933,158.602623 L571.778933,155.160543 L571.814788,155.160543 L574.288783,158.602623 L575.364433,158.602623 L575.364433,153.582923 L574.360493,153.582923 L574.360493,157.025003 L574.324638,157.025003 Z M576.074362,153.582923 L576.074362,154.407588 L577.795402,154.407588 L577.795402,158.602623 L578.799342,158.602623 L578.799342,154.407588 L580.520382,154.407588 L580.520382,153.582923 L576.074362,153.582923 Z M581.230311,158.602623 L585.317781,158.602623 L585.317781,157.777958 L582.234251,157.777958 L582.234251,156.523033 L584.313841,156.523033 L584.313841,155.698368 L582.234251,155.698368 L582.234251,154.407588 L585.246071,154.407588 L585.246071,153.582923 L581.230311,153.582923 L581.230311,158.602623 Z M586.092249,153.582923 L586.092249,158.602623 L587.096189,158.602623 L587.096189,156.881583 L588.494534,156.881583 L589.677749,158.602623 L590.860964,158.602623 L589.534329,156.702308 L589.534329,156.666453 C589.534329,156.666453 590.466559,156.307903 590.466559,155.232253 C590.466559,154.300023 589.749459,153.582923 588.386969,153.582923 L586.092249,153.582923 Z M589.426764,155.232253 C589.426764,155.626658 589.068214,156.056918 588.386969,156.056918 L587.096189,156.056918 L587.096189,154.407588 L588.386969,154.407588 C589.068214,154.407588 589.426764,154.766138 589.426764,155.232253 L589.426764,155.232253 Z M595.091854,157.025003 L592.617859,153.582923 L591.542209,153.582923 L591.542209,158.602623 L592.546149,158.602623 L592.546149,155.160543 L592.582004,155.160543 L595.055999,158.602623 L596.131649,158.602623 L596.131649,153.582923 L595.127709,153.582923 L595.127709,157.025003 L595.091854,157.025003 Z M600.111554,153.582923 L598.856629,153.582923 L596.777039,158.602623 L597.852689,158.602623 L598.247094,157.598683 L600.721089,157.598683 L601.115494,158.602623 L602.191144,158.602623 L600.111554,153.582923 Z M599.466164,154.658573 L599.502019,154.658573 L600.362539,156.738163 L598.605644,156.738163 L599.466164,154.658573 Z M601.524958,153.582923 L601.524958,154.407588 L603.245998,154.407588 L603.245998,158.602623 L604.249938,158.602623 L604.249938,154.407588 L605.970978,154.407588 L605.970978,153.582923 L601.524958,153.582923 Z M607.684847,153.582923 L606.680907,153.582923 L606.680907,158.602623 L607.684847,158.602623 L607.684847,153.582923 Z M608.559709,156.092773 C608.559709,157.634538 609.671214,158.746043 611.248834,158.746043 C612.826454,158.746043 613.937959,157.634538 613.937959,156.092773 C613.937959,154.551008 612.826454,153.439503 611.248834,153.439503 C609.671214,153.439503 608.559709,154.551008 608.559709,156.092773 L608.559709,156.092773 Z M612.898164,156.092773 C612.898164,157.168423 612.181064,157.885523 611.248834,157.885523 C610.316604,157.885523 609.599504,157.168423 609.599504,156.092773 C609.599504,155.017123 610.316604,154.300023 611.248834,154.300023 C612.181064,154.300023 612.898164,155.017123 612.898164,156.092773 L612.898164,156.092773 Z M618.362466,157.025003 L615.888471,153.582923 L614.812821,153.582923 L614.812821,158.602623 L615.816761,158.602623 L615.816761,155.160543 L615.852616,155.160543 L618.326611,158.602623 L619.402261,158.602623 L619.402261,153.582923 L618.398321,153.582923 L618.398321,157.025003 L618.362466,157.025003 Z M623.382166,153.582923 L622.127241,153.582923 L620.047651,158.602623 L621.123301,158.602623 L621.517706,157.598683 L623.991701,157.598683 L624.386106,158.602623 L625.461756,158.602623 L623.382166,153.582923 Z M622.736776,154.658573 L622.772631,154.658573 L623.633151,156.738163 L621.876256,156.738163 L622.736776,154.658573 Z M626.107146,158.602623 L629.943631,158.602623 L629.943631,157.777958 L627.111086,157.777958 L627.111086,153.582923 L626.107146,153.582923 L626.107146,158.602623 Z M632.73315,158.602623 L636.569635,158.602623 L636.569635,157.777958 L633.73709,157.777958 L633.73709,153.582923 L632.73315,153.582923 L632.73315,158.602623 Z M639.5456,158.746043 C640.943945,158.746043 641.84032,157.849668 641.84032,156.594743 L641.84032,153.582923 L640.83638,153.582923 L640.83638,156.594743 C640.83638,157.383553 640.33441,157.885523 639.5456,157.885523 C638.75679,157.885523 638.25482,157.383553 638.25482,156.594743 L638.25482,153.582923 L637.25088,153.582923 L637.25088,156.594743 C637.25088,157.849668 638.147255,158.746043 639.5456,158.746043 L639.5456,158.746043 Z M646.401076,157.885523 L647.656001,155.196398 L647.691856,155.196398 L648.086261,158.602623 L649.126056,158.602623 L648.516521,153.582923 L647.405016,153.582923 L645.970816,156.702308 L645.934961,156.702308 L644.500761,153.582923 L643.389256,153.582923 L642.779721,158.602623 L643.819516,158.602623 L644.213921,155.196398 L644.249776,155.196398 L645.504701,157.885523 L646.401076,157.885523 Z M650.094141,158.602623 L652.59682,158.602623 C653.894771,158.602623 654.576016,157.921378 654.576016,157.168423 C654.576016,156.164483 653.392801,155.963695 653.392801,155.963695 L653.392801,155.92784 C653.392801,155.92784 654.217466,155.734223 654.217466,154.945413 C654.217466,154.156603 653.643786,153.582923 652.317151,153.582923 L650.094141,153.582923 L650.094141,158.602623 Z M652.603991,156.451323 C653.249381,156.451323 653.536221,156.738163 653.536221,157.132568 C653.536221,157.491118 653.249381,157.777958 652.603991,157.777958 L651.098081,157.777958 L651.098081,156.451323 L652.603991,156.451323 Z M652.317151,155.626658 L651.098081,155.626658 L651.098081,154.407588 L652.317151,154.407588 C652.890831,154.407588 653.177671,154.694428 653.177671,155.017123 C653.177671,155.339818 652.890831,155.626658 652.317151,155.626658 L652.317151,155.626658 Z M655.386339,158.602623 L659.473809,158.602623 L659.473809,157.777958 L656.390279,157.777958 L656.390279,156.523033 L658.469869,156.523033 L658.469869,155.698368 L656.390279,155.698368 L656.390279,154.407588 L659.402099,154.407588 L659.402099,153.582923 L655.386339,153.582923 L655.386339,158.602623 Z M660.248277,153.582923 L660.248277,158.602623 L661.252217,158.602623 L661.252217,156.881583 L662.650562,156.881583 L663.833777,158.602623 L665.016992,158.602623 L663.690357,156.702308 L663.690357,156.666453 C663.690357,156.666453 664.622587,156.307903 664.622587,155.232253 C664.622587,154.300023 663.905487,153.582923 662.542997,153.582923 L660.248277,153.582923 Z M663.582792,155.232253 C663.582792,155.626658 663.224242,156.056918 662.542997,156.056918 L661.252217,156.056918 L661.252217,154.407588 L662.542997,154.407588 C663.224242,154.407588 663.582792,154.766138 663.582792,155.232253 L663.582792,155.232253 Z M667.777827,158.602623 L671.865297,158.602623 L671.865297,157.777958 L668.781767,157.777958 L668.781767,156.523033 L670.861357,156.523033 L670.861357,155.698368 L668.781767,155.698368 L668.781767,154.407588 L671.793587,154.407588 L671.793587,153.582923 L667.777827,153.582923 L667.777827,158.602623 Z M674.676329,156.738163 L674.712184,156.738163 L676.110529,158.602623 L677.329599,158.602623 L675.429284,156.021063 L677.114469,153.582923 L675.895399,153.582923 L674.712184,155.303963 L674.676329,155.303963 L673.493114,153.582923 L672.274044,153.582923 L673.959229,156.021063 L672.058914,158.602623 L673.277984,158.602623 L674.676329,156.738163 Z M680.097605,153.439503 C678.448275,153.439503 677.33677,154.551008 677.33677,156.092773 C677.33677,157.634538 678.448275,158.746043 680.097605,158.746043 C681.173255,158.746043 681.8545,158.172363 681.8545,158.172363 L681.42424,157.491118 C681.42424,157.491118 680.886415,157.885523 680.169315,157.885523 C679.093665,157.885523 678.376565,157.168423 678.376565,156.092773 C678.376565,155.017123 679.093665,154.300023 680.169315,154.300023 C680.836218,154.300023 681.35253,154.622718 681.35253,154.622718 L681.78279,153.941473 C681.78279,153.941473 681.1374,153.439503 680.097605,153.439503 L680.097605,153.439503 Z M686.214468,153.582923 L686.214468,155.698368 L683.632908,155.698368 L683.632908,153.582923 L682.628968,153.582923 L682.628968,158.602623 L683.632908,158.602623 L683.632908,156.523033 L686.214468,156.523033 L686.214468,158.602623 L687.218408,158.602623 L687.218408,153.582923 L686.214468,153.582923 Z M691.198313,153.582923 L689.943388,153.582923 L687.863798,158.602623 L688.939448,158.602623 L689.333853,157.598683 L691.807848,157.598683 L692.202253,158.602623 L693.277903,158.602623 L691.198313,153.582923 Z M690.552923,154.658573 L690.588778,154.658573 L691.449298,156.738163 L689.692403,156.738163 L690.552923,154.658573 Z M697.472938,157.025003 L694.998943,153.582923 L693.923293,153.582923 L693.923293,158.602623 L694.927233,158.602623 L694.927233,155.160543 L694.963088,155.160543 L697.437083,158.602623 L698.512733,158.602623 L698.512733,153.582923 L697.508793,153.582923 L697.508793,157.025003 L697.472938,157.025003 Z M702.112575,153.439503 C700.4991,153.439503 699.387595,154.551008 699.387595,156.092773 C699.387595,157.634538 700.4991,158.746043 702.112575,158.746043 C703.259935,158.746043 704.048745,158.122166 704.048745,158.122166 L704.048745,155.698368 L702.00501,155.698368 L702.00501,156.523033 L703.044805,156.523033 L703.044805,157.706248 C703.044805,157.706248 702.686255,157.885523 702.184285,157.885523 C701.108635,157.885523 700.391535,157.168423 700.391535,156.092773 C700.391535,155.017123 701.108635,154.300023 702.184285,154.300023 C702.851188,154.300023 703.3675,154.622718 703.3675,154.622718 L703.79776,153.941473 C703.79776,153.941473 703.15237,153.439503 702.112575,153.439503 L702.112575,153.439503 Z M705.052685,158.602623 L709.140155,158.602623 L709.140155,157.777958 L706.056625,157.777958 L706.056625,156.523033 L708.136215,156.523033 L708.136215,155.698368 L706.056625,155.698368 L706.056625,154.407588 L709.068445,154.407588 L709.068445,153.582923 L705.052685,153.582923 L705.052685,158.602623 Z" id="International-lumber" sketch:type="MSShapeGroup"></path>
        </g>
        <g id="ЂЃ£Ѓ-†£аЃ-3" sketch:type="MSLayerGroup" transform="translate(62.000000, -130.000000)">
            <path d="M44.0944,130.683988 L27.9134,130.683988 L0.8184,162.496988 L0.8184,188.977988 L9.2684,188.977988 L9.2684,164.187988 L31.2374,138.204988 L40.7844,138.204988 L62.7424,164.187988 L62.7424,188.977988 L71.1894,188.977988 L71.1894,162.496988 L44.0944,130.683988" id="Fill-16" fill="#4CAF50" sketch:type="MSShapeGroup"></path>
            <path d="M0.8184,189.007988 L9.2684,189.007988 L9.2684,164.217988 L0.8184,162.526988 L0.8184,189.007988" id="Fill-15" fill="#428C45" sketch:type="MSShapeGroup"></path>
            <path d="M71.1894,189.007988 L62.7394,189.007988 L62.7394,164.217988 L71.1894,162.526988 L71.1894,189.007988" id="Fill-14" fill="#428C45" sketch:type="MSShapeGroup"></path>
            <path d="M31.3254,152.918988 L0.8184,188.977988 L13.4864,188.977988 L35.5634,162.994988 L36.4444,162.994988 L58.5214,188.977988 L71.1894,188.977988 L40.6824,152.918988 L31.3254,152.918988" id="Fill-13" fill="#4D4D4F" sketch:type="MSShapeGroup"></path>
        </g>
    </g>
</svg>