<?xml version="1.0" encoding="UTF-8" standalone="no"?>
<svg width="198px" height="97px" viewBox="0 0 198 97" version="1.1" xmlns="http://www.w3.org/2000/svg" xmlns:xlink="http://www.w3.org/1999/xlink" xmlns:sketch="http://www.bohemiancoding.com/sketch/ns">
    <!-- Generator: Sketch 3.2.2 (9983) - http://www.bohemiancoding.com/sketch -->
    <title>woodfor_ru</title>
    <desc>Created with Sketch.</desc>
    <defs></defs>
    <g id="Page-1" stroke="none" stroke-width="1" fill="none" fill-rule="evenodd" sketch:type="MSPage">
        <g id="text" sketch:type="MSLayerGroup" transform="translate(-541.000000, 65.000000)" fill="#4D4D4F">
            <path d="M589.720071,16.0077885 L597.114439,16.0077885 C600.94934,16.0077885 602.962134,13.994995 602.962134,11.7703285 C602.962134,8.80410648 599.466229,8.21086208 599.466229,8.21086208 L599.466229,8.10492558 C599.466229,8.10492558 601.902769,7.53286848 601.902769,5.20226548 C601.902769,2.87166248 600.207785,1.17667848 596.288134,1.17667848 L589.720071,1.17667848 L589.720071,16.0077885 Z M597.135626,9.65159848 C599.042483,9.65159848 599.889975,10.4990905 599.889975,11.664392 C599.889975,12.723757 599.042483,13.571249 597.135626,13.571249 L592.686293,13.571249 L592.686293,9.65159848 L597.135626,9.65159848 Z M596.288134,7.21505898 L592.686293,7.21505898 L592.686293,3.61321798 L596.288134,3.61321798 C597.983118,3.61321798 598.83061,4.46070998 598.83061,5.41413848 C598.83061,6.36756698 597.983118,7.21505898 596.288134,7.21505898 L596.288134,7.21505898 Z M608.386083,16.0077885 L611.670114,16.0077885 L618.661923,1.17667848 L615.377892,1.17667848 L611.352305,9.75753498 L611.140432,9.75753498 L607.114845,1.17667848 L603.830813,1.17667848 L609.021702,11.9822015 L610.271752,11.9822015 L608.386083,16.0077885 Z M622.581574,1.17667848 L621.416272,10.605027 C621.183212,12.511884 620.145034,13.571249 618.873796,13.571249 L618.661923,13.571249 L618.661923,19.1858835 L621.628145,19.1858835 L621.628145,16.0077885 L632.221795,16.0077885 L632.221795,19.1858835 L635.188017,19.1858835 L635.188017,13.571249 L633.28116,13.571249 L633.28116,1.17667848 L622.581574,1.17667848 Z M624.488431,10.605027 L625.335923,3.61321798 L630.314938,3.61321798 L630.314938,13.571249 L623.111256,13.571249 L623.111256,13.4653125 C623.111256,13.4653125 624.382494,12.1940745 624.488431,10.605027 L624.488431,10.605027 Z M647.5614,0.541059477 L644.595178,0.541059477 L644.595178,2.13010698 C639.192417,2.44791648 636.438068,5.20226548 636.438068,8.59223348 C636.438068,11.9822015 639.192417,14.7365505 644.595178,15.05436 L644.595178,16.6434075 L647.5614,16.6434075 L647.5614,15.05436 C652.964162,14.7365505 655.718511,11.9822015 655.718511,8.59223348 C655.718511,5.20226548 652.964162,2.44791648 647.5614,2.13010698 L647.5614,0.541059477 Z M647.5614,4.67258298 C650.951368,4.77851948 652.646352,6.47350348 652.646352,8.59223348 C652.646352,10.7109635 650.951368,12.4059475 647.5614,12.511884 L647.5614,4.67258298 Z M644.595178,12.511884 C641.20521,12.4059475 639.510226,10.7109635 639.510226,8.59223348 C639.510226,6.47350348 641.20521,4.77851948 644.595178,4.67258298 L644.595178,12.511884 Z M657.68893,8.59223348 C657.68893,13.147503 660.972961,16.4315345 665.634167,16.4315345 C670.295373,16.4315345 673.579405,13.147503 673.579405,8.59223348 C673.579405,4.03696398 670.295373,0.752932477 665.634167,0.752932477 C660.972961,0.752932477 657.68893,4.03696398 657.68893,8.59223348 L657.68893,8.59223348 Z M670.507246,8.59223348 C670.507246,11.7703285 668.388516,13.8890585 665.634167,13.8890585 C662.879818,13.8890585 660.761088,11.7703285 660.761088,8.59223348 C660.761088,5.41413848 662.879818,3.29540848 665.634167,3.29540848 C668.388516,3.29540848 670.507246,5.41413848 670.507246,8.59223348 L670.507246,8.59223348 Z M676.164255,1.17667848 L676.164255,16.0077885 L679.130477,16.0077885 L679.130477,11.3465825 L682.944191,11.3465825 C687.075715,11.3465825 689.300381,9.12191598 689.300381,6.26163048 C689.300381,3.40134498 687.075715,1.17667848 682.944191,1.17667848 L676.164255,1.17667848 Z M682.944191,3.61321798 C684.956985,3.61321798 686.228223,4.88445598 686.228223,6.26163048 C686.228223,7.63880498 684.956985,8.91004298 682.944191,8.91004298 L679.130477,8.91004298 L679.130477,3.61321798 L682.944191,3.61321798 Z" id="ВудФОР" sketch:type="MSShapeGroup"></path>
            <path d="M549.871889,28.8852231 L551.126814,26.1960981 L551.162669,26.1960981 L551.557074,29.6023231 L552.596869,29.6023231 L551.987334,24.5826231 L550.875829,24.5826231 L549.441629,27.7020081 L549.405774,27.7020081 L547.971574,24.5826231 L546.860069,24.5826231 L546.250534,29.6023231 L547.290329,29.6023231 L547.684734,26.1960981 L547.720589,26.1960981 L548.975514,28.8852231 L549.871889,28.8852231 Z M553.564954,29.6023231 L557.652424,29.6023231 L557.652424,28.7776581 L554.568894,28.7776581 L554.568894,27.5227331 L556.648484,27.5227331 L556.648484,26.6980681 L554.568894,26.6980681 L554.568894,25.4072881 L557.580714,25.4072881 L557.580714,24.5826231 L553.564954,24.5826231 L553.564954,29.6023231 Z M559.34478,24.5826231 L558.304985,24.5826231 L558.663535,25.8734031 C558.971888,26.9849081 559.55991,27.1641831 559.55991,27.1641831 L559.55991,27.2000381 L557.91058,29.6023231 L559.093795,29.6023231 L560.56385,27.4510231 L561.460225,27.4510231 L561.460225,29.6023231 L562.464165,29.6023231 L562.464165,27.4510231 L563.36054,27.4510231 L564.830595,29.6023231 L566.01381,29.6023231 L564.36448,27.2000381 L564.36448,27.1641831 C564.36448,27.1641831 564.952502,26.9849081 565.260855,25.8734031 L565.619405,24.5826231 L564.57961,24.5826231 L564.22106,25.8734031 C564.099153,26.3036631 563.7908,26.6263581 563.21712,26.6263581 L562.464165,26.6263581 L562.464165,24.5826231 L561.460225,24.5826231 L561.460225,26.6263581 L560.70727,26.6263581 C560.13359,26.6263581 559.825237,26.3036631 559.70333,25.8734031 L559.34478,24.5826231 Z M567.404984,24.5826231 L567.010579,27.7737181 C566.931698,28.4191081 566.580319,28.7776581 566.150059,28.7776581 L566.078349,28.7776581 L566.078349,30.6779731 L567.082289,30.6779731 L567.082289,29.6023231 L570.667789,29.6023231 L570.667789,30.6779731 L571.671729,30.6779731 L571.671729,28.7776581 L571.026339,28.7776581 L571.026339,24.5826231 L567.404984,24.5826231 Z M568.050374,27.7737181 L568.337214,25.4072881 L570.022399,25.4072881 L570.022399,28.7776581 L567.584259,28.7776581 L567.584259,28.7418031 C567.584259,28.7418031 568.014519,28.3115431 568.050374,27.7737181 L568.050374,27.7737181 Z M573.47165,29.6023231 L574.583155,29.6023231 L576.949585,24.5826231 L575.83808,24.5826231 L574.47559,27.4868781 L574.40388,27.4868781 L573.04139,24.5826231 L571.929885,24.5826231 L573.68678,28.2398331 L574.109869,28.2398331 L573.47165,29.6023231 Z M581.402776,24.5826231 L581.402776,26.6980681 L578.821216,26.6980681 L578.821216,24.5826231 L577.817276,24.5826231 L577.817276,29.6023231 L578.821216,29.6023231 L578.821216,27.5227331 L581.402776,27.5227331 L581.402776,29.6023231 L582.406716,29.6023231 L582.406716,24.5826231 L581.402776,24.5826231 Z M586.386621,24.5826231 L585.131696,24.5826231 L583.052106,29.6023231 L584.127756,29.6023231 L584.522161,28.5983831 L586.996156,28.5983831 L587.390561,29.6023231 L588.466211,29.6023231 L586.386621,24.5826231 Z M585.741231,25.6582731 L585.777086,25.6582731 L586.637606,27.7378631 L584.880711,27.7378631 L585.741231,25.6582731 Z M589.111601,24.5826231 L589.111601,29.6023231 L590.115541,29.6023231 L590.115541,28.0247031 L591.406321,28.0247031 C592.804666,28.0247031 593.557621,27.2717481 593.557621,26.3036631 C593.557621,25.3355781 592.804666,24.5826231 591.406321,24.5826231 L589.111601,24.5826231 Z M591.406321,25.4072881 C592.087566,25.4072881 592.517826,25.8375481 592.517826,26.3036631 C592.517826,26.7697781 592.087566,27.2000381 591.406321,27.2000381 L590.115541,27.2000381 L590.115541,25.4072881 L591.406321,25.4072881 Z M593.507424,27.0924731 C593.507424,28.6342381 594.618929,29.7457431 596.196549,29.7457431 C597.774169,29.7457431 598.885674,28.6342381 598.885674,27.0924731 C598.885674,25.5507081 597.774169,24.4392031 596.196549,24.4392031 C594.618929,24.4392031 593.507424,25.5507081 593.507424,27.0924731 L593.507424,27.0924731 Z M597.845879,27.0924731 C597.845879,28.1681231 597.128779,28.8852231 596.196549,28.8852231 C595.264319,28.8852231 594.547219,28.1681231 594.547219,27.0924731 C594.547219,26.0168231 595.264319,25.2997231 596.196549,25.2997231 C597.128779,25.2997231 597.845879,26.0168231 597.845879,27.0924731 L597.845879,27.0924731 Z M600.218763,24.5826231 L599.824358,27.7737181 C599.745477,28.4191081 599.394098,28.7776581 598.963838,28.7776581 L598.892128,28.7776581 L598.892128,30.6779731 L599.896068,30.6779731 L599.896068,29.6023231 L603.481568,29.6023231 L603.481568,30.6779731 L604.485508,30.6779731 L604.485508,28.7776581 L603.840118,28.7776581 L603.840118,24.5826231 L600.218763,24.5826231 Z M600.864153,27.7737181 L601.150993,25.4072881 L602.836178,25.4072881 L602.836178,28.7776581 L600.398038,28.7776581 L600.398038,28.7418031 C600.398038,28.7418031 600.828298,28.3115431 600.864153,27.7737181 L600.864153,27.7737181 Z M608.559353,24.5826231 L608.559353,26.6980681 L605.977793,26.6980681 L605.977793,24.5826231 L604.973853,24.5826231 L604.973853,29.6023231 L605.977793,29.6023231 L605.977793,27.5227331 L608.559353,27.5227331 L608.559353,29.6023231 L609.563293,29.6023231 L609.563293,24.5826231 L608.559353,24.5826231 Z M613.543198,24.5826231 L612.288273,24.5826231 L610.208683,29.6023231 L611.284333,29.6023231 L611.678738,28.5983831 L614.152733,28.5983831 L614.547138,29.6023231 L615.622788,29.6023231 L613.543198,24.5826231 Z M612.897808,25.6582731 L612.933663,25.6582731 L613.794183,27.7378631 L612.037288,27.7378631 L612.897808,25.6582731 Z M618.225861,24.5826231 C616.820345,24.5826231 616.146271,25.2638681 616.146271,26.2319531 C616.146271,27.3793131 617.150211,27.6661531 617.150211,27.6661531 L617.150211,27.7020081 L615.787721,29.6023231 L616.935081,29.6023231 L618.154151,27.8812831 L619.552496,27.8812831 L619.552496,29.6023231 L620.556436,29.6023231 L620.556436,24.5826231 L618.225861,24.5826231 Z M617.186066,26.2319531 C617.186066,25.7658381 617.544616,25.4072881 618.225861,25.4072881 L619.552496,25.4072881 L619.552496,27.0566181 L618.225861,27.0566181 C617.544616,27.0566181 617.186066,26.6263581 617.186066,26.2319531 L617.186066,26.2319531 Z M624.801668,28.7776581 L624.801668,27.2000381 L626.200013,27.2000381 C626.845403,27.2000381 627.203953,27.5585881 627.203953,27.9888481 C627.203953,28.4191081 626.845403,28.7776581 626.200013,28.7776581 L624.801668,28.7776581 Z M628.243748,27.9888481 C628.243748,27.1283281 627.490793,26.3753731 626.200013,26.3753731 L624.801668,26.3753731 L624.801668,25.4072881 L627.777633,25.4072881 L627.777633,24.5826231 L623.797728,24.5826231 L623.797728,29.6023231 L626.200013,29.6023231 C627.490793,29.6023231 628.243748,28.8493681 628.243748,27.9888481 L628.243748,27.9888481 Z M630.058011,29.6023231 L632.567861,26.1602431 L632.603716,26.1602431 L632.603716,29.6023231 L633.607656,29.6023231 L633.607656,24.5826231 L632.603716,24.5826231 L630.093866,28.0247031 L630.058011,28.0247031 L630.058011,24.5826231 L629.054071,24.5826231 L629.054071,29.6023231 L630.058011,29.6023231 Z M634.769358,24.5826231 L634.769358,29.6023231 L635.773298,29.6023231 L635.773298,28.0247031 L637.064078,28.0247031 C638.462423,28.0247031 639.215378,27.2717481 639.215378,26.3036631 C639.215378,25.3355781 638.462423,24.5826231 637.064078,24.5826231 L634.769358,24.5826231 Z M637.064078,25.4072881 C637.745323,25.4072881 638.175583,25.8375481 638.175583,26.3036631 C638.175583,26.7697781 637.745323,27.2000381 637.064078,27.2000381 L635.773298,27.2000381 L635.773298,25.4072881 L637.064078,25.4072881 Z M640.943589,24.5826231 L639.903794,24.5826231 L640.262344,25.8734031 C640.570697,26.9849081 641.158719,27.1641831 641.158719,27.1641831 L641.158719,27.2000381 L639.509389,29.6023231 L640.692604,29.6023231 L642.162659,27.4510231 L643.059034,27.4510231 L643.059034,29.6023231 L644.062974,29.6023231 L644.062974,27.4510231 L644.959349,27.4510231 L646.429404,29.6023231 L647.612619,29.6023231 L645.963289,27.2000381 L645.963289,27.1641831 C645.963289,27.1641831 646.551311,26.9849081 646.859664,25.8734031 L647.218214,24.5826231 L646.178419,24.5826231 L645.819869,25.8734031 C645.697962,26.3036631 645.389609,26.6263581 644.815929,26.6263581 L644.062974,26.6263581 L644.062974,24.5826231 L643.059034,24.5826231 L643.059034,26.6263581 L642.306079,26.6263581 C641.732399,26.6263581 641.424046,26.3036631 641.302139,25.8734031 L640.943589,24.5826231 Z M650.789372,24.5826231 L649.534447,24.5826231 L647.454857,29.6023231 L648.530507,29.6023231 L648.924912,28.5983831 L651.398907,28.5983831 L651.793312,29.6023231 L652.868962,29.6023231 L650.789372,24.5826231 Z M650.143982,25.6582731 L650.179837,25.6582731 L651.040357,27.7378631 L649.283462,27.7378631 L650.143982,25.6582731 Z M655.593942,24.5826231 L655.593942,29.6023231 L656.597882,29.6023231 L656.597882,25.4072881 L659.143587,25.4072881 L659.143587,29.6023231 L660.147527,29.6023231 L660.147527,24.5826231 L655.593942,24.5826231 Z M662.313169,29.6023231 L664.823019,26.1602431 L664.858874,26.1602431 L664.858874,29.6023231 L665.862814,29.6023231 L665.862814,24.5826231 L664.858874,24.5826231 L662.349024,28.0247031 L662.313169,28.0247031 L662.313169,24.5826231 L661.309229,24.5826231 L661.309229,29.6023231 L662.313169,29.6023231 Z M667.91372,24.5826231 L667.519315,27.8812831 C667.440434,28.5625281 667.12491,28.8852231 666.658795,28.8852231 L666.443665,28.8852231 L666.443665,29.6740331 C666.443665,29.6740331 666.651624,29.7457431 666.945635,29.7457431 C667.806155,29.7457431 668.41569,29.1362081 668.55911,27.8812831 L668.84595,25.4072881 L670.602845,25.4072881 L670.602845,29.6023231 L671.606785,29.6023231 L671.606785,24.5826231 L667.91372,24.5826231 Z M672.481647,27.0924731 C672.481647,28.6342381 673.593152,29.7457431 675.170772,29.7457431 C676.748392,29.7457431 677.859897,28.6342381 677.859897,27.0924731 C677.859897,25.5507081 676.748392,24.4392031 675.170772,24.4392031 C673.593152,24.4392031 672.481647,25.5507081 672.481647,27.0924731 L672.481647,27.0924731 Z M676.820102,27.0924731 C676.820102,28.1681231 676.103002,28.8852231 675.170772,28.8852231 C674.238542,28.8852231 673.521442,28.1681231 673.521442,27.0924731 C673.521442,26.0168231 674.238542,25.2997231 675.170772,25.2997231 C676.103002,25.2997231 676.820102,26.0168231 676.820102,27.0924731 L676.820102,27.0924731 Z M682.162497,28.8852231 L683.417422,26.1960981 L683.453277,26.1960981 L683.847682,29.6023231 L684.887477,29.6023231 L684.277942,24.5826231 L683.166437,24.5826231 L681.732237,27.7020081 L681.696382,27.7020081 L680.262182,24.5826231 L679.150677,24.5826231 L678.541142,29.6023231 L679.580937,29.6023231 L679.975342,26.1960981 L680.011197,26.1960981 L681.266122,28.8852231 L682.162497,28.8852231 Z M688.602055,24.5826231 L687.34713,24.5826231 L685.26754,29.6023231 L686.34319,29.6023231 L686.737595,28.5983831 L689.21159,28.5983831 L689.605995,29.6023231 L690.681645,29.6023231 L688.602055,24.5826231 Z M687.956665,25.6582731 L687.99252,25.6582731 L688.85304,27.7378631 L687.096145,27.7378631 L687.956665,25.6582731 Z M690.875262,24.5826231 L690.875262,25.4072881 L692.596302,25.4072881 L692.596302,29.6023231 L693.600242,29.6023231 L693.600242,25.4072881 L695.321282,25.4072881 L695.321282,24.5826231 L690.875262,24.5826231 Z M696.031211,29.6023231 L700.118681,29.6023231 L700.118681,28.7776581 L697.035151,28.7776581 L697.035151,27.5227331 L699.114741,27.5227331 L699.114741,26.6980681 L697.035151,26.6980681 L697.035151,25.4072881 L700.046971,25.4072881 L700.046971,24.5826231 L696.031211,24.5826231 L696.031211,29.6023231 Z M700.893149,24.5826231 L700.893149,29.6023231 L701.897089,29.6023231 L701.897089,28.0247031 L703.187869,28.0247031 C704.586214,28.0247031 705.339169,27.2717481 705.339169,26.3036631 C705.339169,25.3355781 704.586214,24.5826231 703.187869,24.5826231 L700.893149,24.5826231 Z M703.187869,25.4072881 C703.869114,25.4072881 704.299374,25.8375481 704.299374,26.3036631 C704.299374,26.7697781 703.869114,27.2000381 703.187869,27.2000381 L701.897089,27.2000381 L701.897089,25.4072881 L703.187869,25.4072881 Z M707.010012,29.6023231 L709.519862,26.1602431 L709.555717,26.1602431 L709.555717,29.6023231 L710.559657,29.6023231 L710.559657,24.5826231 L709.555717,24.5826231 L707.045867,28.0247031 L707.010012,28.0247031 L707.010012,24.5826231 L706.006072,24.5826231 L706.006072,29.6023231 L707.010012,29.6023231 Z M714.539562,24.5826231 L713.284637,24.5826231 L711.205047,29.6023231 L712.280697,29.6023231 L712.675102,28.5983831 L715.149097,28.5983831 L715.543502,29.6023231 L716.619152,29.6023231 L714.539562,24.5826231 Z M713.894172,25.6582731 L713.930027,25.6582731 L714.790547,27.7378631 L713.033652,27.7378631 L713.894172,25.6582731 Z M718.153746,24.5826231 L717.759341,27.8812831 C717.68046,28.5625281 717.364936,28.8852231 716.898821,28.8852231 L716.683691,28.8852231 L716.683691,29.6740331 C716.683691,29.6740331 716.89165,29.7457431 717.185661,29.7457431 C718.046181,29.7457431 718.655716,29.1362081 718.799136,27.8812831 L719.085976,25.4072881 L720.842871,25.4072881 L720.842871,29.6023231 L721.846811,29.6023231 L721.846811,24.5826231 L718.153746,24.5826231 Z M722.721673,27.0924731 C722.721673,28.6342381 723.833178,29.7457431 725.410798,29.7457431 C726.988418,29.7457431 728.099923,28.6342381 728.099923,27.0924731 C728.099923,25.5507081 726.988418,24.4392031 725.410798,24.4392031 C723.833178,24.4392031 722.721673,25.5507081 722.721673,27.0924731 L722.721673,27.0924731 Z M727.060128,27.0924731 C727.060128,28.1681231 726.343028,28.8852231 725.410798,28.8852231 C724.478568,28.8852231 723.761468,28.1681231 723.761468,27.0924731 C723.761468,26.0168231 724.478568,25.2997231 725.410798,25.2997231 C726.343028,25.2997231 727.060128,26.0168231 727.060128,27.0924731 L727.060128,27.0924731 Z M728.974785,29.6023231 L731.477464,29.6023231 C732.775415,29.6023231 733.45666,28.9210781 733.45666,28.1681231 C733.45666,27.1641831 732.273445,26.9633951 732.273445,26.9633951 L732.273445,26.9275401 C732.273445,26.9275401 733.09811,26.7339231 733.09811,25.9451131 C733.09811,25.1563031 732.52443,24.5826231 731.197795,24.5826231 L728.974785,24.5826231 L728.974785,29.6023231 Z M731.484635,27.4510231 C732.130025,27.4510231 732.416865,27.7378631 732.416865,28.1322681 C732.416865,28.4908181 732.130025,28.7776581 731.484635,28.7776581 L729.978725,28.7776581 L729.978725,27.4510231 L731.484635,27.4510231 Z M731.197795,26.6263581 L729.978725,26.6263581 L729.978725,25.4072881 L731.197795,25.4072881 C731.771475,25.4072881 732.058315,25.6941281 732.058315,26.0168231 C732.058315,26.3395181 731.771475,26.6263581 731.197795,26.6263581 L731.197795,26.6263581 Z" id="Международная-биржа-" sketch:type="MSShapeGroup"></path>
        </g>
        <g id="ЂЃ£Ѓ-†£аЃ-3" sketch:type="MSLayerGroup" transform="translate(62.000000, 0.000000)">
            <path d="M44.119,0.513 L27.938,0.513 L0.843,32.326 L0.843,58.807 L9.293,58.807 L9.293,34.017 L31.262,8.034 L40.809,8.034 L62.767,34.017 L62.767,58.807 L71.214,58.807 L71.214,32.326 L44.119,0.513" id="Fill-1" fill="#4CAF50" sketch:type="MSShapeGroup"></path>
            <path d="M0.843,58.837 L9.293,58.837 L9.293,34.047 L0.843,32.356 L0.843,58.837" id="Fill-2" fill="#428C45" sketch:type="MSShapeGroup"></path>
            <path d="M71.214,58.837 L62.764,58.837 L62.764,34.047 L71.214,32.356 L71.214,58.837" id="Fill-3" fill="#428C45" sketch:type="MSShapeGroup"></path>
            <path d="M31.35,22.748 L0.843,58.807 L13.511,58.807 L35.588,32.824 L36.469,32.824 L58.546,58.807 L71.214,58.807 L40.707,22.748 L31.35,22.748" id="Fill-4" fill="#4D4D4F" sketch:type="MSShapeGroup"></path>
        </g>
    </g>
</svg>